<?xml version="1.0" encoding="utf-8"?>
<!-- Generator: Adobe Illustrator 24.1.3, SVG Export Plug-In . SVG Version: 6.00 Build 0)  -->
<svg version="1.1" id="Layer_1" xmlns="http://www.w3.org/2000/svg" xmlns:xlink="http://www.w3.org/1999/xlink" x="0px" y="0px"
	 viewBox="0 0 400.5 400" style="enable-background:new 0 0 400.5 400;" xml:space="preserve">
<style type="text/css">
	.st0{fill:#88C057;}
	.st1{fill:#649C42;}
	.st2{fill:#A49CA7;}
	.st3{fill:#C3BDC5;}
	.st4{fill:#B3ADB7;}
	.st5{fill:#555057;}
	.st6{fill-rule:evenodd;clip-rule:evenodd;fill:#EFC41C;}
	.st7{fill-rule:evenodd;clip-rule:evenodd;fill:#F3D55B;}
	.st8{fill-rule:evenodd;clip-rule:evenodd;fill:#F4EFCA;}
	.st9{fill-rule:evenodd;clip-rule:evenodd;fill:#F19C23;}
	.st10{fill-rule:evenodd;clip-rule:evenodd;fill:#E47E26;}
	.st11{fill:#FDC26C;}
	.st12{fill:#FAA861;}
	.st13{fill:#FFF0B0;}
	.st14{fill:#FFE07E;}
</style>
<g>
	<path class="st0" d="M108.8,302.2c3.5,0.8,7.3,0.8,11.3-0.9c7-2.9,11.9-9.6,12.1-17.2c0.2-8.5-5.2-15.7-12.7-18.3
		c-0.5-7.7-6.9-13.8-14.8-13.8c0,0,0,0-0.1,0c0.1-1.2,0.1-2.4-0.3-3.7c-1.1-3.6-4.2-6.4-8-6.8c-3.1-0.4-5.9,0.7-7.9,2.7
		c-1.9-1.7-4.3-2.7-7.1-2.7c-5.8,0-10.6,4.7-10.6,10.6c0,0,0,0,0,0.1c-7.1,0.5-12.7,6.5-12.7,13.7c0,1.1,0.1,2.2,0.4,3.2
		c-8.4,0.4-15.2,7.3-15.2,15.8c0,2.9,0.8,5.6,2.1,7.9c-2.6,2.1-4.3,5.4-4.3,9c0,5.1,3.2,9.4,7.8,11c-0.6,20.7,6.8,32.9,21.1,49.3
		c0.3,0.3,0.5,0.6,0.8,0.9c0.1,0.1,0.1,0.1,0.2,0.2c5.9,6.7,19.3,1.6,16.4-6.9c-15.4-45.1,32-38.6,32-38.6s1.4-13.6-10.9-14.3
		C108.7,303,108.7,302.6,108.8,302.2C108.7,302.3,108.8,302.3,108.8,302.2z"/>
	<path class="st1" d="M71.1,363.1c-0.1-0.1-0.1-0.1-0.2-0.2c-0.3-0.3-0.5-0.6-0.8-0.9c-14.3-16.4-21.7-28.6-21.1-49.3
		c-4.5-1.6-7.8-5.9-7.8-11c0-3.6,1.7-6.9,4.3-9c-1.4-2.3-2.1-5-2.1-7.9c0-8.5,6.7-15.5,15.2-15.8c-0.2-1-0.4-2.1-0.4-3.2
		c0-5.7,3.5-10.7,8.5-12.7c-0.3-1.1-0.8-2.2-1.3-3.3c-2.8-5.5-7.6-8.9-12.1-8.2c-3.7,0.6-6.2,3.6-7.3,7.6c-3.1-2.1-6.5-2.9-9.6-1.8
		c-6.6,2.3-8.7,11.8-4.9,20.6c0,0,0,0,0,0.1c-7.1,3.4-9,13.6-4.5,22.7c0.7,1.3,1.4,2.6,2.3,3.7c-7.9,3.3-10,13.2-5,21.8
		c1.6,2.8,3.7,5,6.1,6.8c-1.1,2.7-0.9,6,0.9,9c2.4,4.1,6.9,6.5,11.1,6.5c7.4,14.5,16.4,20.1,30.1,25.9c0.1,0.1,0.3,0.1,0.4,0.2
		C72.3,364.2,71.6,363.7,71.1,363.1z"/>
	<path class="st1" d="M76.4,296.2c0.1-0.3,0.2-0.6,0.2-0.9c1.6-4,3.5-7.4,5.6-10.3c10.1-2.1,17.7,1.1,17.8,1.1
		c0.3,0.1,0.6,0.2,0.9,0.2c0.9,0,1.7-0.5,2.1-1.3c0.5-1.1,0-2.5-1.2-3c-0.3-0.1-6.5-2.8-15.4-2.1c4.3-4.5,8.2-6.6,8.7-6.9
		c3.3-1.6,8,0.5,9.6,1.4c0.4,0.2,0.7,0.3,1.1,0.3c0.8,0,1.5-0.4,1.9-1.1c0.6-1.1,0.3-2.4-0.8-3.1c-0.3-0.2-5.3-3.1-10.5-2.5
		c0.4-1.8,1.4-3.5,1.9-4.1c0.8-1,0.6-2.4-0.4-3.1c-1-0.8-2.4-0.6-3.1,0.4c-0.1,0.2-3.1,4.1-3.1,8.6c-3.3,2-11.7,8.1-17.6,20.2
		c-0.3,0.7-0.6,1.4-0.9,2.1c-6.1-4.2-5.1-11.6-5.1-12c0.2-1.2-0.6-2.4-1.9-2.6c-1.2-0.2-2.4,0.6-2.6,1.9c-0.7,4.1,0.3,12.5,7.8,17
		c-1.7,4.9-2.9,10.8-3.3,17.7c0,0.2-0.1,0.4,0,0.6c-0.2,4.8,0,10.2,0.8,16.1c-2.8-1.6-4.1-3.9-4.2-4c-0.6-1.1-1.9-1.5-3-0.9
		c-1.1,0.6-1.5,1.9-0.9,3c0.1,0.2,2.8,5.2,9,7.1c1.6,8.9,4.5,18.8,9.2,30c1.5-0.1,3-0.5,4.4-1.2c0,0,0,0,0-0.1
		c-4.9-11.6-7.8-21.9-9.4-31c0-0.1,0-0.1,0-0.2c-1.2-6.8-1.5-12.9-1.3-18.4c3.1-5.4,12.4-5.6,12.5-5.6c1.2,0,2.2-1,2.2-2.3
		c0-1.2-1-2.2-2.2-2.2c0,0,0,0,0,0c-0.4,0-6.8,0.1-11.8,3.3c0.6-4.4,1.6-8.4,2.9-11.9C76.2,296.6,76.3,296.4,76.4,296.2z"/>
</g>
<path class="st2" d="M128.2,70.2l6.5,3.6c1.2,0.7,0.9,2.5-0.5,2.8c-9.1,1.5-15.8,7.7-17.7,9.7c-0.4,0.4-1,0.5-1.5,0.4
	c-7-2.1-15-12.7-15-12.7l-5.1-6.6l26.3-1.3L128.2,70.2z"/>
<path class="st2" d="M99.9,46.1l3.1-5.8c0.3-0.6,0.1-1.3-0.4-1.7l-11.9-8.4c-0.5-0.3-1.1-0.3-1.6,0.1c-10.5,8.4-10.3,16.5-10.3,16.5
	l0.2,3.7h19.7L99.9,46.1z"/>
<path class="st2" d="M80.8,76.3L77.4,72H66.1l3.5,4.5c0,0,7.4,9.2,17.9,10c0.9,0.1,1.4-0.9,0.8-1.6L80.8,76.3z"/>
<path class="st2" d="M175,71.9c-1.7-4.2-5.7-11.6-12.8-12c-0.2,0-0.3-0.1-0.3-0.3s0.1-0.3,0.3-0.3c7.1-0.7,10.8-8.3,12.3-12.5
	c0.4-1.2-0.7-2.4-1.9-2L140.8,54v11.7l32.4,8.4C174.4,74.4,175.5,73.1,175,71.9z"/>
<path class="st3" d="M154.1,61.3c-10.9,5.5-95,27.9-127.6,3.4c-2-1.5-2-4.1,0-5.7c3-2.4,11.8-5.8,24.1-8.5c2.4-0.5,5-1,7.6-1.5
	c25.9-4.4,62.9-5,95.8,10C154.9,59.6,155,60.9,154.1,61.3L154.1,61.3z"/>
<path class="st4" d="M154.1,61.3c-10.9,5.5-95,27.9-127.6,3.4c-2-1.5-2-4.1,0-5.7c1.5-1.2,4.4-2.6,8.5-4.1
	c26.2,18.4,83.1,8.6,111.3,1c2.6,1,5.1,2,7.7,3.2C154.9,59.6,155,60.9,154.1,61.3L154.1,61.3z"/>
<ellipse class="st5" cx="42" cy="60.4" rx="3.4" ry="3.5"/>
<g>
	<path class="st2" d="M64.8,55.4c-1.9-2.8-4.3-4.8-6.6-6.2c-2.7,0.5-5.2,1-7.6,1.5c11.4,3.3,15.8,13.9,12.8,25.1
		c1.5,0.1,3.1,0.2,4.6,0.2c0-0.1,0.1-0.5,0.2-0.7C69.6,67.4,68.5,60.7,64.8,55.4L64.8,55.4z"/>
	<path class="st2" d="M71.9,137.3l-6.5,3.6c-1.2,0.7-0.9,2.5,0.5,2.8c9.1,1.5,15.8,7.7,17.7,9.7c0.4,0.4,1,0.5,1.5,0.4
		c7-2.1,15-12.7,15-12.7l5.1-6.6L79,133.2L71.9,137.3z"/>
	<path class="st2" d="M100.1,113.1l-3.1-5.8c-0.3-0.6-0.1-1.3,0.4-1.7l11.9-8.4c0.5-0.3,1.1-0.3,1.6,0.1
		c10.5,8.4,10.3,16.5,10.3,16.5l-0.2,3.7h-19.7L100.1,113.1z"/>
	<path class="st2" d="M119.3,143.4l3.4-4.3H134l-3.5,4.5c0,0-7.4,9.2-17.9,10c-0.9,0.1-1.4-0.9-0.8-1.6L119.3,143.4z"/>
	<path class="st2" d="M25.1,139c1.7-4.2,5.7-11.6,12.8-12c0.2,0,0.3-0.1,0.3-0.3c0-0.2-0.1-0.3-0.3-0.3c-7.1-0.7-10.8-8.3-12.3-12.5
		c-0.4-1.2,0.7-2.4,1.9-2l31.8,9.3v11.7l-32.4,8.4C25.7,141.4,24.6,140.2,25.1,139L25.1,139z"/>
</g>
<path class="st3" d="M46,128.4c10.9,5.5,95,27.9,127.6,3.4c2-1.5,2-4.1,0-5.7c-3-2.4-11.8-5.8-24.1-8.5c-2.4-0.5-5-1-7.6-1.5
	c-25.9-4.4-62.9-5-95.8,10C45.2,126.7,45.1,128,46,128.4L46,128.4z"/>
<path class="st4" d="M46,128.4c10.9,5.5,95,27.9,127.6,3.4c2-1.5,2-4.1,0-5.7c-1.5-1.2-4.4-2.6-8.5-4.1c-26.2,18.4-83.1,8.6-111.3,1
	c-2.6,1-5.1,2-7.7,3.2C45.2,126.7,45.1,128,46,128.4L46,128.4z"/>
<ellipse class="st5" cx="158.1" cy="127.5" rx="3.4" ry="3.5"/>
<path class="st2" d="M132,142.4c0,0.1,0.1,0.5,0.2,0.7c1.6,0,3.1-0.1,4.6-0.2c-3.1-11.2,1.4-21.8,12.8-25.1c-2.4-0.5-5-1-7.6-1.5
	c-2.3,1.4-4.7,3.4-6.6,6.2C131.6,127.7,130.5,134.4,132,142.4L132,142.4z"/>
<g id="Page-1_1_">
	<g id="_x30_17---Parmesan">
		<path id="Path_9_" class="st6" d="M370.3,78.8v39.9c0,8.2-5.6,15.9-12.5,22.3l-2.5-39.9L370.3,78.8z"/>
		<path id="Path_8_" class="st6" d="M298,121.2v37.3c0,0.7-0.3,1.3-0.7,1.8c-0.5,0.5-1.1,0.7-1.8,0.7c-38.8-0.8-69.8-19.4-69.8-42.4
			V78.8L298,121.2z"/>
		<path id="Path_7_" class="st7" d="M370.3,78.8c0,8.2-5.6,15.9-12.5,22.3L298,82.5v38.6c-39.9,0-72.3-19-72.3-42.4
			S258,36.4,298,36.4S370.3,55.4,370.3,78.8z"/>
		<path id="Path_6_" class="st8" d="M235.9,78.8c-0.7,0-1.4-0.3-1.9-0.9s-0.7-1.3-0.6-2c2.3-13.5,19.8-25.5,43.6-30.1
			c0.9-0.2,1.8,0.1,2.4,0.8c0.6,0.7,0.8,1.6,0.5,2.4s-1,1.5-1.9,1.6c-24.9,4.8-38,16.8-39.6,26C238.1,78,237.1,78.8,235.9,78.8
			L235.9,78.8z"/>
		<path id="Path_5_" class="st9" d="M357.8,101.1V141L298,113.7V73.8L357.8,101.1z"/>
		<g>
			<circle id="Oval" class="st10" cx="314.2" cy="100" r="6.2"/>
			<circle id="Oval_1_" class="st10" cx="344.1" cy="114.9" r="6.2"/>
			<circle id="Oval_2_" class="st10" cx="320.4" cy="113.7" r="2.5"/>
			<circle id="Oval_3_" class="st10" cx="327.9" cy="98.7" r="2.5"/>
			<circle id="Oval_4_" class="st10" cx="330.4" cy="111.2" r="2.5"/>
		</g>
	</g>
</g>
<g>
	<path class="st11" d="M361.2,296.5l-20.3-9.1c-7.8-2.7-16.5-5-25.8-6.7l-27-3.4c-6.3-0.4-12.7-0.7-19.3-0.7
		c-4.2,0-8.4,0.1-12.5,0.3l-33.5,3.8c-27.5,5.1-49.2,14.7-59.9,26.6l-3.7,16.8l-2.3,12.3c0,14.1,11.5,25.6,25.6,25.6h171.8l20.2-5
		c4.7-4.6,7.7-11.1,7.7-18.3V324C382.1,313.8,374.3,304.3,361.2,296.5L361.2,296.5z"/>
	<path class="st12" d="M192,356.9c-16.1,0-29.2-13.1-29.2-29.2v-20.5c-4.7,5.2-7.3,10.9-7.3,16.8v14.6c0,14.1,11.5,25.6,25.6,25.6
		h175.4c7,0,13.3-2.8,17.9-7.3L192,356.9L192,356.9z"/>
	<g>
		<path class="st13" d="M349.1,290.5L328.4,313l-0.3,8c11.1-6.5,22.3-14.7,33-24.4C357.5,294.4,353.5,292.4,349.1,290.5L349.1,290.5
			z"/>
		<path class="st13" d="M298,278.1l-8.8,1.5c-12.5,13.1-17.9,24.9-25.5,38.7l3.2,2.3c13.7-8.1,27.4-18.7,40.2-31.5
			c2.8-2.8,5.4-5.6,8-8.4C309.6,279.6,303.9,278.8,298,278.1L298,278.1z"/>
		<path class="st13" d="M234.3,278.8l-10,4c-11.1,12.1-19.2,23.5-26.3,36.2l5.6,2.3c14.1-8.2,28.3-19.1,41.5-32.3
			c3.9-3.9,7.6-8,11.1-12.1C248.7,277.1,241.3,277.8,234.3,278.8L234.3,278.8z"/>
	</g>
	<path class="st14" d="M234.3,278.8c-3.9,0.5-7.8,1.2-11.5,1.8c-11.1,12.1-20.3,24.9-27.3,37.5c-1.9,3.4,1.6,6.8,4.9,4.9
		c1.1-0.6,2.2-1.2,3.3-1.9C211.8,306.9,222.2,292.5,234.3,278.8L234.3,278.8z"/>
	<path class="st14" d="M298,278.1c-3.3-0.4-6.6-0.7-9.9-0.9c-12.5,13.1-22.8,27.1-30.5,40.9c-1.9,3.4,1.6,6.8,4.9,4.9
		c1.4-0.8,2.9-1.6,4.3-2.5C275.1,306.3,285.5,291.8,298,278.1L298,278.1z"/>
	<path class="st14" d="M349.1,290.5c-2.6-1.1-5.4-2.2-8.3-3.2c-8.5,10.1-15.7,20.5-21.4,30.8c-1.9,3.4,1.6,6.8,4.9,4.9
		c1.2-0.7,2.5-1.4,3.7-2.1C334.1,310.8,341.1,300.5,349.1,290.5L349.1,290.5z"/>
</g>
</svg>
