<?xml version="1.0" encoding="utf-8"?>
<!-- Generator: Adobe Illustrator 24.1.3, SVG Export Plug-In . SVG Version: 6.00 Build 0)  -->
<svg version="1.1" id="Layer_1" xmlns="http://www.w3.org/2000/svg" xmlns:xlink="http://www.w3.org/1999/xlink" x="0px" y="0px"
	 viewBox="0 0 400.5 400" style="enable-background:new 0 0 400.5 400;" xml:space="preserve">
<style type="text/css">
	.st0{fill:#88C057;}
	.st1{fill:#649C42;}
	.st2{fill-rule:evenodd;clip-rule:evenodd;fill:#EFC41C;}
	.st3{fill-rule:evenodd;clip-rule:evenodd;fill:#F3D55B;}
	.st4{fill-rule:evenodd;clip-rule:evenodd;fill:#F4EFCA;}
	.st5{fill-rule:evenodd;clip-rule:evenodd;fill:#F19C23;}
	.st6{fill-rule:evenodd;clip-rule:evenodd;fill:#E47E26;}
	.st7{fill:#A6D065;}
	.st8{fill:#94CA55;}
	.st9{fill:#B25A27;}
	.st10{fill:#4FBA6D;}
	.st11{fill:#E0B799;}
	.st12{fill:#D0976F;}
	.st13{fill:#F5E3A2;}
	.st14{fill:#FBF1CF;}
</style>
<g>
	<path class="st0" d="M142.2,85.6c3.6,0.9,7.5,0.8,11.7-0.9c7.2-3,12.4-10,12.5-17.8c0.2-8.8-5.4-16.3-13.2-19
		c-0.5-8-7.2-14.3-15.3-14.3c0,0,0,0-0.1,0c0.1-1.2,0.1-2.5-0.3-3.8c-1.1-3.7-4.4-6.6-8.3-7.1c-3.2-0.4-6.1,0.8-8.1,2.8
		c-1.9-1.7-4.5-2.8-7.3-2.8c-6,0-10.9,4.9-10.9,10.9c0,0,0,0,0,0.1c-7.4,0.6-13.1,6.7-13.1,14.2c0,1.1,0.1,2.3,0.4,3.3
		c-8.7,0.4-15.7,7.6-15.7,16.4c0,3,0.8,5.8,2.2,8.2c-2.7,2.2-4.4,5.6-4.4,9.3c0,5.2,3.4,9.7,8,11.3c-0.6,21.4,7,34,21.8,51.1
		c0.3,0.3,0.5,0.6,0.8,0.9c0.1,0.1,0.1,0.1,0.2,0.2c6.1,6.9,20,1.6,17-7.1c-15.9-46.7,33.2-40,33.2-40s1.4-14.1-11.3-14.8
		C142.1,86.3,142.1,86,142.2,85.6C142.1,85.6,142.2,85.6,142.2,85.6z"/>
	<path class="st1" d="M103.1,148.6c-0.1-0.1-0.1-0.1-0.2-0.2c-0.3-0.3-0.5-0.6-0.8-0.9c-14.8-17-22.4-29.7-21.8-51.1
		c-4.7-1.7-8-6.1-8-11.3c0-3.8,1.7-7.1,4.4-9.3c-1.4-2.4-2.2-5.2-2.2-8.2c0-8.8,7-16,15.7-16.4c-0.3-1.1-0.4-2.2-0.4-3.3
		c0-6,3.7-11,8.8-13.2c-0.3-1.1-0.8-2.3-1.4-3.4c-2.9-5.7-7.9-9.2-12.5-8.5c-3.8,0.6-6.4,3.7-7.6,7.9c-3.2-2.1-6.7-3-9.9-1.8
		c-6.8,2.4-9,12.2-5.1,21.3c0,0,0,0.1,0,0.1c-7.4,3.5-9.4,14-4.7,23.5c0.7,1.4,1.5,2.7,2.4,3.8c-8.2,3.4-10.3,13.6-5.2,22.6
		c1.6,2.9,3.8,5.2,6.3,7c-1.2,2.8-0.9,6.2,0.9,9.3c2.5,4.2,7.1,6.7,11.4,6.7c7.6,15,17,20.8,31.2,26.8c0.1,0.1,0.3,0.1,0.4,0.2
		C104.4,149.7,103.7,149.2,103.1,148.6z"/>
	<path class="st1" d="M108.7,79.4c0.1-0.3,0.2-0.6,0.2-0.9c1.7-4.2,3.7-7.7,5.8-10.6c10.4-2.2,18.3,1.1,18.5,1.2
		c0.3,0.1,0.6,0.2,0.9,0.2c0.9,0,1.7-0.5,2.1-1.4c0.5-1.2,0-2.5-1.2-3.1c-0.3-0.1-6.7-2.9-15.9-2.2c4.5-4.7,8.5-6.8,9-7.1
		c3.4-1.6,8.3,0.5,9.9,1.4c0.4,0.2,0.8,0.3,1.2,0.3c0.8,0,1.6-0.4,2-1.1c0.7-1.1,0.3-2.5-0.8-3.2c-0.3-0.2-5.5-3.2-10.8-2.6
		c0.5-1.9,1.5-3.6,2-4.3c0.8-1,0.6-2.5-0.4-3.3c-1-0.8-2.5-0.6-3.3,0.4c-0.1,0.2-3.2,4.2-3.2,8.9c-3.4,2.1-12.1,8.3-18.2,21
		c-0.3,0.7-0.6,1.4-1,2.1c-6.3-4.3-5.3-12-5.2-12.4c0.2-1.3-0.7-2.5-1.9-2.7c-1.3-0.2-2.5,0.7-2.7,1.9c-0.7,4.2,0.3,12.9,8.1,17.6
		c-1.7,5.1-3,11.2-3.4,18.3c0,0.2-0.1,0.4,0,0.7c-0.2,5,0,10.6,0.8,16.7c-2.9-1.6-4.3-4-4.4-4.2c-0.6-1.1-2-1.6-3.1-1
		c-1.1,0.6-1.6,2-1,3.1c0.1,0.2,2.9,5.4,9.3,7.4c1.7,9.2,4.7,19.5,9.5,31.1c1.6-0.1,3.1-0.5,4.5-1.2c0,0,0,0,0-0.1
		c-5.1-12.1-8.1-22.7-9.8-32.1c0-0.1,0-0.1,0-0.2c-1.2-7-1.6-13.4-1.4-19c3.3-5.5,12.8-5.8,12.9-5.8c1.3,0,2.3-1.1,2.3-2.4
		c0-1.3-1.1-2.3-2.3-2.3c0,0,0,0,0,0c-0.4,0-7,0.1-12.3,3.4c0.6-4.6,1.7-8.7,3-12.3C108.5,79.7,108.6,79.6,108.7,79.4z"/>
</g>
<g id="Page-1_1_">
	<g id="_x30_17---Parmesan">
		<path id="Path_9_" class="st2" d="M181.5,291.9v39.9c0,8.2-5.6,15.9-12.5,22.3l-2.5-39.9L181.5,291.9z"/>
		<path id="Path_8_" class="st2" d="M109.2,334.3v37.3c0,0.7-0.3,1.3-0.7,1.8c-0.5,0.5-1.1,0.7-1.8,0.7
			c-38.8-0.8-69.8-19.4-69.8-42.4v-39.9L109.2,334.3z"/>
		<path id="Path_7_" class="st3" d="M181.5,291.9c0,8.2-5.6,15.9-12.5,22.3l-59.8-18.6v38.6c-39.9,0-72.3-19-72.3-42.4
			c0-23.4,32.4-42.4,72.3-42.4S181.5,268.5,181.5,291.9z"/>
		<path id="Path_6_" class="st4" d="M47.1,292c-0.7,0-1.4-0.3-1.9-0.9s-0.7-1.3-0.6-2c2.3-13.5,19.8-25.5,43.6-30.1
			c0.9-0.2,1.8,0.1,2.4,0.8c0.6,0.7,0.8,1.6,0.5,2.4s-1,1.5-1.9,1.6c-24.9,4.8-38,16.8-39.6,26C49.4,291.1,48.3,291.9,47.1,292
			L47.1,292z"/>
		<path id="Path_5_" class="st5" d="M169.1,314.3v39.9l-59.8-27.3v-39.9L169.1,314.3z"/>
		<g>
			<circle id="Oval" class="st6" cx="125.4" cy="313.1" r="6.2"/>
			<circle id="Oval_1_" class="st6" cx="155.4" cy="328.1" r="6.2"/>
			<circle id="Oval_2_" class="st6" cx="131.7" cy="326.8" r="2.5"/>
			<circle id="Oval_3_" class="st6" cx="139.2" cy="311.9" r="2.5"/>
			<circle id="Oval_4_" class="st6" cx="141.6" cy="324.3" r="2.5"/>
		</g>
	</g>
</g>
<path class="st7" d="M356.5,123.3c0,22.8-18.6,36.7-41.5,36.5c-1.1,0-2.1,0-3.1-0.1h0c-21.3-1.4-38-15.3-37.7-37
	c0.2-11.2,4.8-21.4,12.3-28.7c3.2-3.2,5.3-7.3,5.9-11.8c0-0.1,0-0.2,0.1-0.4c2.2-11.4,11.6-20,23-20h0.1c11.3,0.1,20.7,8.6,22.8,20
	c0,0.1,0,0.1,0,0.2c0.7,4.6,2.9,8.9,6.2,12.2C351.9,101.7,356.5,112,356.5,123.3z"/>
<path class="st8" d="M315.4,61.9l-0.3,8.7c0,0-3.9,3-4.4,10.3c-1.1,19.3-16.2,26.2-16.2,45.7s7,27.2,17.3,33.1l0,0h0
	c-21.3-1.4-38-15.3-37.7-37c0.2-11.2,4.8-21.4,12.3-28.7c3.2-3.2,5.3-7.3,5.9-11.8c0-0.1,0-0.2,0.1-0.4c2.2-11.4,11.6-20,23-20
	L315.4,61.9L315.4,61.9z"/>
<path class="st9" d="M314.9,70.1c-0.1,0-0.2,0-0.4,0c-1.2-0.2-2-1.3-1.7-2.5l0,0c0-0.2,3.3-19.6-4.8-27.7c-0.8-0.8-0.8-2.2,0-3
	c0.8-0.8,2.2-0.8,3,0c9.7,9.7,6.1,30.6,6,31.5C316.8,69.3,315.9,70.1,314.9,70.1z"/>
<path class="st8" d="M310.3,66.8c1.3,0,2.1,0,2.9-0.1c0.7,0,1.4-0.1,2-0.1c0.6,0,1.2,0,2,0.1c0.8,0,1.6,0.1,2.9,0.1
	c0,1.3-0.7,2.3-1.6,3c-0.9,0.7-2.1,1.1-3.3,1.1c-1.2,0-2.4-0.4-3.3-1.1C311,69.1,310.3,68,310.3,66.8z"/>
<path class="st9" d="M322.4,48.7c-7.5,0-11-5.1-11.2-5.4c-0.5-0.7-0.3-1.7,0.4-2.2c0.7-0.5,1.7-0.3,2.2,0.4c0.2,0.3,4.1,5.8,13,3.3
	c0.8-0.2,1.7,0.3,1.9,1.1c0.2,0.8-0.3,1.7-1.1,1.9C325.7,48.5,323.9,48.7,322.4,48.7z"/>
<path class="st10" d="M349.6,50.6l10.7-11.3l-14.2-6.5c-8.7-4-19,0.3-22.2,9.3l-0.3,0.8c-0.8,2.3-0.3,4.9,1.3,6.7l0.6,0.6
	C331.9,57.4,343,57.6,349.6,50.6z"/>
<g>
	<path class="st11" d="M245.5,305.8c0-48.7,32.8-51.2,45.9-62.7c2.1-1.8,5.1-1.8,7.2,0c13.1,11.5,45.9,14,45.9,62.7
		c0,30.7-22.2,55.7-49.5,55.7C267.7,361.4,245.5,336.5,245.5,305.8L245.5,305.8z"/>
	<path class="st12" d="M326.1,349.2c-57.1-11-64.2-67.8-54.7-94.1c-12.9,7.8-25.8,20.2-25.8,50.7c0,30.7,22.2,55.7,49.5,55.7
		C306.8,361.4,317.6,356.8,326.1,349.2L326.1,349.2z"/>
	<g>
		<path class="st11" d="M273.7,332.3c-0.6,0-1.2-0.3-1.5-0.8c-2.4-3.5-8.6-17-8.4-26.5c0-1,0.9-1.9,1.9-1.8c1,0,1.8,0.9,1.8,1.9
			c-0.2,8.1,5.4,20.9,7.7,24.3c0.6,0.9,0.4,2-0.5,2.6C274.5,332.2,274.1,332.3,273.7,332.3z"/>
		<g>
			<path class="st12" d="M275.9,293.3c-0.9,0-1.7-0.6-1.8-1.6c-1.2-7.2,0.7-11.5,2.3-15.3c1.4-3.3,2.5-5.8,1.7-9.8
				c-0.2-1,0.4-2,1.4-2.2c1-0.2,2,0.4,2.2,1.4c1.1,5.1-0.4,8.7-1.9,12.1c-1.5,3.5-3.1,7.1-2.1,13.2c0.2,1-0.5,2-1.5,2.2
				C276.1,293.3,276,293.3,275.9,293.3L275.9,293.3z"/>
			<path class="st12" d="M303.9,322.4c0,0-0.1,0-0.1,0c-1-0.1-1.8-1-1.7-2c0.3-3.3-0.6-7.6-2.5-12.5c-1.8-4.5-3.8-7.9-4.6-9
				c-0.6-0.8-0.4-2,0.4-2.6c0.8-0.6,2-0.4,2.6,0.4c2.3,3.3,8.5,15.1,7.8,24C305.7,321.6,304.9,322.4,303.9,322.4L303.9,322.4z"/>
			<path class="st12" d="M313.7,277.5c-0.3,0-0.7-0.1-1-0.3c-3.2-2-9.9-8.3-10.9-11.8c-0.3-1,0.3-2,1.3-2.3c1-0.3,2,0.3,2.3,1.3
				c0.6,2,6.3,7.8,9.3,9.6c0.9,0.5,1.1,1.7,0.6,2.6C314.9,277.2,314.3,277.5,313.7,277.5z"/>
		</g>
		<path class="st11" d="M295.1,350.2c-0.7,0-1.4-0.4-1.7-1.1c-0.4-0.9,0-2.1,0.9-2.5c2.4-1.1,7-5.7,9.3-11.9c0.4-1,1.4-1.5,2.4-1.1
			c1,0.4,1.4,1.5,1.1,2.4c-2.6,6.8-7.7,12.3-11.2,13.9C295.6,350.1,295.3,350.2,295.1,350.2L295.1,350.2z"/>
	</g>
	<path class="st13" d="M335,297.6c0-7.2-5.8-13.1-13-13.1c-9.4,0-15.6,9.7-11.9,18.2c-9.2,4.5-12.5,16-7.3,24.7
		c-3.3,2.7-5.5,6.8-5.5,11.4c0,7.3,5.3,13.3,12.2,14.3c-2.4,8.4,3.8,16.7,12.4,16.7c7.2,0,13-5.8,13-13.1L335,297.6L335,297.6z"/>
	<g>
		<path class="st14" d="M318,348.4c-1,0-1.9-0.8-1.9-1.9c0-4.3,3.4-7.7,7.7-7.7c1,0,1.9,0.8,1.9,1.9s-0.8,1.9-1.9,1.9
			c-2.2,0-4,1.8-4,4C319.9,347.5,319,348.4,318,348.4z"/>
		<path class="st14" d="M320.1,329.7c-1,0-1.9-0.8-1.9-1.9c0-2.2-1.8-4-4-4c-1,0-1.9-0.8-1.9-1.9c0-1,0.8-1.9,1.9-1.9
			c4.2,0,7.7,3.5,7.7,7.7C322,328.8,321.2,329.7,320.1,329.7z"/>
		<path class="st14" d="M322.6,312.3c-0.5,0-1-0.2-1.3-0.5c-3-3-3-7.9,0-10.9c0.7-0.7,1.9-0.7,2.6,0c0.7,0.7,0.7,1.9,0,2.7
			c-1.5,1.6-1.5,4.1,0,5.6c0.7,0.7,0.7,1.9,0,2.7C323.6,312.2,323.1,312.3,322.6,312.3L322.6,312.3z"/>
	</g>
	<path class="st14" d="M335,297.6c0-7.2,5.8-13.1,13-13.1c9.4,0,15.6,9.7,11.9,18.2c9.2,4.5,12.5,16,7.3,24.7
		c3.3,2.7,5.5,6.8,5.5,11.4c0,7.3-5.3,13.3-12.2,14.3c2.4,8.4-3.8,16.7-12.4,16.7c-7.2,0-13-5.8-13-13.1V297.6z"/>
	<g>
		<path class="st13" d="M352,348.4c-1,0-1.9-0.8-1.9-1.9c0-2.2-1.8-4-4-4c-1,0-1.9-0.8-1.9-1.9s0.8-1.9,1.9-1.9
			c4.2,0,7.7,3.5,7.7,7.7C353.8,347.5,353,348.4,352,348.4z"/>
		<path class="st13" d="M349.9,329.7c-1,0-1.9-0.8-1.9-1.9c0-4.3,3.4-7.7,7.7-7.7c1,0,1.9,0.8,1.9,1.9c0,1-0.8,1.9-1.9,1.9
			c-2.2,0-4,1.8-4,4C351.7,328.8,350.9,329.7,349.9,329.7z"/>
		<path class="st13" d="M347.4,312.3c-0.5,0-1-0.2-1.3-0.5c-0.7-0.7-0.7-1.9,0-2.7c0.7-0.8,1.2-1.8,1.2-2.8c0-1.1-0.4-2.1-1.2-2.8
			c-0.7-0.7-0.7-1.9,0-2.7c0.7-0.7,1.9-0.7,2.6,0c3,3,3,7.9,0,10.9C348.3,312.2,347.8,312.3,347.4,312.3L347.4,312.3z"/>
	</g>
</g>
</svg>
