<?xml version="1.0" encoding="iso-8859-1"?>
<!-- Generator: Adobe Illustrator 19.0.0, SVG Export Plug-In . SVG Version: 6.00 Build 0)  -->
<svg version="1.1" id="Capa_1" xmlns="http://www.w3.org/2000/svg" xmlns:xlink="http://www.w3.org/1999/xlink" x="0px" y="0px"
	 viewBox="0 0 512 512" style="enable-background:new 0 0 512 512;" xml:space="preserve">
<g>
	<g>
		<path d="M293.244,218.876c-3.909-3.899-10.237-3.899-14.146,0c-3.899,3.909-3.899,10.237,0,14.146
			c3.909,3.899,10.237,3.899,14.146,0C297.143,229.113,297.143,222.784,293.244,218.876z"/>
	</g>
</g>
<g>
	<g>
		<path d="M166.001,346.119c-3.909-3.899-10.237-3.899-14.146,0c-3.899,3.909-3.899,10.237,0,14.146
			c3.909,3.899,10.237,3.899,14.146,0C169.9,356.356,169.9,350.028,166.001,346.119z"/>
	</g>
</g>
<g>
	<g>
		<path d="M504.192,122.667c-6.452-10.069-15.729-17.246-26.387-20.819c9.836-18.648,7.124-42.59-8.91-58.624
			c-15.84-15.838-39.753-18.805-58.617-8.897c-3.571-10.665-10.75-19.942-20.819-26.395c-32.373-20.783-75.664,2.335-76.568,41.199
			c-0.458,19.546-8.65,49.231-14.853,73.988c-46.244-18.485-82.899,6.904-110.664,47.76
			C141.866,237.839,77.688,326.359,38.036,393.755C1.063,456.601-8.221,489.906,6.995,505.124
			c35.616,35.616,181.252-76.394,334.246-180.369c40.875-27.78,66.247-64.437,47.767-110.676
			c25.851-6.476,54.836-14.403,73.979-14.851C501.79,198.327,525.01,155.098,504.192,122.667z M407.05,64.492
			c0.031-0.056,0.062-0.111,0.093-0.167c9.627-17.768,33.539-21.037,47.613-6.962c14.152,14.152,10.709,38.048-6.961,47.612
			c-0.057,0.031-0.112,0.063-0.169,0.094l-93.715,53.138L407.05,64.492z M332.88,49.597c0.546-23.458,26.709-37.082,45.785-24.836
			c8.795,5.636,13.945,14.777,14.165,24.835c-2.677,3.754,1.484-3.031-55.97,98.15c-7.003-6.002-13.814-11.058-20.553-15.259
			C324.573,99.483,332.371,71.36,332.88,49.597z M330.005,308.22c-6.242,4.242-12.635,8.622-19.15,13.108l-31.752-31.752
			c-3.905-3.904-10.233-3.904-14.139,0c-3.904,3.904-3.904,10.234,0,14.139l29.166,29.166
			c-27.211,18.85-55.089,38.354-83.576,57.798l-16.276-16.276c-3.904-3.904-10.232-3.904-14.139,0
			c-3.904,3.904-3.904,10.234,0,14.138l13.573,13.573c-36.263,24.474-106.032,71.039-147.071,85.591
			c-21.007,7.449-25.33,3.457-25.504,3.285c-0.176-0.178-4.168-4.497,3.282-25.506c5.42-15.287,15.801-36.009,30.852-61.591
			c6.413-10.901,13.514-22.412,21.084-34.312l18.956,18.956c3.905,3.904,10.233,3.904,14.139,0c3.904-3.904,3.904-10.234,0-14.138
			l-22.012-22.011c17.928-27.482,37.741-56.411,57.063-84.32l35.635,35.643c3.903,3.903,10.233,3.907,14.139,0.001
			c3.904-3.904,3.905-10.233,0.002-14.138l-38.195-38.204c16.167-23.28,33.117-47.603,47.831-69.253
			c3.504-5.156,6.968-9.763,10.39-13.893l36.525,36.517c3.905,3.903,10.233,3.904,14.139-0.001
			c3.903-3.905,3.902-10.234-0.002-14.138l-36.784-36.775c37.314-32.492,73.681-13.808,108.802,21.313
			C389.485,227.625,388.343,268.571,330.005,308.22z M462.52,179.241c-22.57,0.529-53.073,9.104-82.883,16.572
			c-4.211-6.751-9.267-13.562-15.261-20.553c101.525-57.648,94.437-53.321,98.149-55.969c10.059,0.215,19.196,5.369,24.838,14.171
			C499.655,152.612,485.922,178.696,462.52,179.241z"/>
	</g>
</g>
<g>
</g>
<g>
</g>
<g>
</g>
<g>
</g>
<g>
</g>
<g>
</g>
<g>
</g>
<g>
</g>
<g>
</g>
<g>
</g>
<g>
</g>
<g>
</g>
<g>
</g>
<g>
</g>
<g>
</g>
</svg>
