<svg xmlns="http://www.w3.org/2000/svg" viewBox="0 0 113.09 112.76"><defs><style>.cls-1,.cls-2{fill:none;stroke:#374d57;}.cls-2{stroke-miterlimit:10;}.cls-3{font-size:11px;fill:#374d57;font-family:Nunito-Regular, Nunito;}.cls-4{letter-spacing:0em;}.cls-5{letter-spacing:0.03em;}.cls-6{letter-spacing:-0.01em;}.cls-7{letter-spacing:0em;}</style></defs><g id="Layer_2" data-name="Layer 2"><g id="Layer_2-2" data-name="Layer 2"><ellipse class="cls-1" cx="56.55" cy="56.38" rx="56.05" ry="55.88"/><rect class="cls-1" x="42.39" y="13.43" width="27.16" height="29.62"/><rect class="cls-1" x="42.39" y="45.17" width="27.16" height="11.95"/><polygon class="cls-1" points="49.48 61.52 49.48 65.58 49.48 65.08 46.54 65.08 46.54 62.03 42.39 62.03 42.39 59.03 69.56 59.03 69.56 62.03 65.52 62.03 65.52 65.08 62.46 65.08 62.46 65.58 62.46 61.53 49.48 61.52"/><polyline class="cls-1" points="44.08 30.99 45.45 30.99 45.45 32.24 45.45 27.28"/><line class="cls-2" x1="45.45" y1="50.16" x2="45.45" y2="53.11"/><line class="cls-2" x1="45.45" y1="52.23" x2="44.49" y2="52.23"/><text class="cls-3" transform="translate(16.37 86.95)">C<tspan class="cls-4" x="7.4" y="0">l</tspan><tspan x="10.6" y="0">ear </tspan><tspan class="cls-5" x="29.06" y="0">T</tspan><tspan x="35.97" y="0">he </tspan><tspan class="cls-6" x="50.91" y="0">F</tspan><tspan class="cls-7" x="56.82" y="0">ridge</tspan></text></g></g></svg>