<?xml version="1.0" encoding="iso-8859-1"?>
<!-- Generator: Adobe Illustrator 19.0.0, SVG Export Plug-In . SVG Version: 6.00 Build 0)  -->
<svg version="1.1" id="Capa_1" xmlns="http://www.w3.org/2000/svg" xmlns:xlink="http://www.w3.org/1999/xlink" x="0px" y="0px"
	 viewBox="0 0 512 512" style="enable-background:new 0 0 512 512;" xml:space="preserve">
<path style="fill:#C97D5D;" d="M250.621,286.143l74.51-278.729c1.426-5.335,6.897-8.5,12.219-7.071l9.637,2.588
	c5.322,1.429,8.481,6.913,7.054,12.247l-74.51,278.729c-5.18,19.377-3.772,39.752,2.906,58.663
	c2.597,7.355,3.078,15.545,0.911,23.652l-7.746,28.978c-5.704,21.339-27.586,34.002-48.875,28.284l0,0
	c-21.289-5.718-33.922-27.651-28.218-48.99l7.746-28.978c2.167-8.107,6.669-14.959,12.587-20.026
	C234.058,322.46,245.441,305.521,250.621,286.143z"/>
<path style="fill:#B5FFFE;" d="M413.629,201.998h-44.894V150H57.467v312c0,11.046,8.933,20,19.953,20c0,16.568,13.4,30,29.93,30
	h211.502c16.53,0,29.93-13.432,29.93-30c11.02,0,19.953-8.954,19.953-20v-58.001h16.943c22.988,0,43.712-16.551,51.568-38.205
	l23.534-64.874c5.123-14.12,7.72-28.897,7.72-43.922C468.5,226.671,443.885,201.998,413.629,201.998z M432.653,290.668
	l-23.535,64.874c-3.571,9.843-12.99,16.456-23.439,16.456h-16.943v-140h44.894c13.753,0,24.941,11.215,24.941,25
	C438.57,268.516,436.579,279.844,432.653,290.668z"/>
<path style="fill:#C5F9FF;" d="M315.527,482H77.42c-11.02,0-19.953-8.954-19.953-20V150H335.48v312
	C335.48,473.046,326.546,482,315.527,482z"/>
<path style="fill:#FFBF98;" d="M279.53,293.908c-5.18,19.377-3.772,39.751,2.906,58.663c2.597,7.354,3.078,15.545,0.911,23.652
	l-7.746,28.978c-5.704,21.339-27.586,34.002-48.875,28.285l0,0c-21.289-5.718-33.922-27.651-28.218-48.99l7.746-28.978
	c2.167-8.106,6.669-14.958,12.587-20.026c15.217-13.031,26.599-29.97,31.779-49.347L287.014,150H318L279.53,293.908z"/>
<g>
	<path style="fill:#B5FFFE;" d="M148.752,93.501V107.5c0,4.143-3.35,7.5-7.482,7.5c-4.132,0-7.482-3.357-7.482-7.5V93.501
		c0-4.86-2.892-9.208-7.368-11.078c-10.069-4.205-16.576-13.987-16.576-24.923v-30c0-4.143,3.35-7.5,7.482-7.5
		c4.132,0,7.482,3.357,7.482,7.5v30c0,4.86,2.892,9.208,7.367,11.077C142.246,72.783,148.752,82.566,148.752,93.501z
		 M168.092,55.577c-4.476-1.87-7.368-6.218-7.368-11.077v-37c0-4.143-3.35-7.5-7.482-7.5c-4.132,0-7.482,3.357-7.482,7.5v37
		c0,10.934,6.507,20.717,16.576,24.923c4.476,1.87,7.368,6.218,7.368,11.077v27c0,4.143,3.35,7.5,7.482,7.5
		c4.132,0,7.482-3.357,7.482-7.5v-27C184.668,69.566,178.161,59.783,168.092,55.577z"/>
	<path style="fill:#B5FFFE;" d="M382.702,147L382.702,147c0,8.284-6.716,15-15,15H58.5c-8.284,0-15-6.716-15-15l0,0
		c0-8.284,6.716-15,15-15h309.202C375.986,132,382.702,138.716,382.702,147z"/>
</g>
<path style="fill:#FFD573;" d="M368.735,232v230c0,11.046-8.933,20-19.953,20H77.42c-11.02,0-19.953-8.954-19.953-20V272h67.121
	c29.341,0,58.279-6.847,84.522-20l0,0c26.243-13.153,55.181-20,84.522-20H368.735z"/>
<path style="fill:#FFB45A;" d="M368.735,232v230c0,11.046-8.933,20-19.953,20h-33.255c11.02,0,19.953-8.954,19.953-20V232H368.735z
	 M296.08,232h-2.447c-9.791,0-19.534,0.78-29.149,2.285l-13.863,51.859c-5.18,19.377-16.562,36.316-31.779,49.347
	c-5.918,5.068-10.42,11.92-12.587,20.026l-7.746,28.978c-5.704,21.338,6.93,43.272,28.218,48.99
	c21.289,5.717,43.17-6.946,48.875-28.285l7.746-28.978c2.167-8.106,1.686-16.297-0.911-23.652
	c-6.678-18.911-8.086-39.286-2.906-58.663L296.08,232z M127.303,250c-11.02,0-19.953,8.954-19.953,20s8.933,20,19.953,20
	s19.953-8.954,19.953-20S138.323,250,127.303,250z M162.221,320c-8.265,0-14.965,6.716-14.965,15s6.7,15,14.965,15
	s14.965-6.716,14.965-15S170.485,320,162.221,320z"/>
<g>
</g>
<g>
</g>
<g>
</g>
<g>
</g>
<g>
</g>
<g>
</g>
<g>
</g>
<g>
</g>
<g>
</g>
<g>
</g>
<g>
</g>
<g>
</g>
<g>
</g>
<g>
</g>
<g>
</g>
</svg>
