<svg height="512" viewBox="0 0 54 58" width="512" xmlns="http://www.w3.org/2000/svg"><g id="Page-1" fill="none" fill-rule="evenodd"><g id="057---Basil" transform="translate(-1)"><path id="Path" d="m38.51 22.05c.0317128-.0090869.0620043-.0225497.09-.04l.01.04c3.66.03 11.67 1.4 15.12 12.51 2.23 7.19 1.17 15.75-.48 22.58-.1307458.5572512-.662516.9247347-1.23.85-7.34-.81-22.71-4.64-26.98-22.4l2.8-12.68c.0223745.0082028.0462237.0116098.07.01z" fill="#24ae5f"/><path id="Path" d="m51.277 43.039-5.1-1.475c-.115-.214-.229-.427-.35-.645-.7-1.27-1.468-2.548-2.29-3.823l5.32.89c.3558262.0671942.7201776-.0632246.9525375-.3409586s.29642-.6593848.1674745-.9977639c-.1289454-.3383791-.4307473-.5806116-.789012-.6332775l-7.2-1.205c-1.1319195-1.5845391-2.3490446-3.1064461-3.646-4.559l7.191.8c.355122.0394778.7043294-.1134984.9160793-.4013042.2117498-.2878057.2538721-.6667164.1105-.994-.1433722-.3272836-.4504573-.553218-.8055793-.5926958l-9.554-1.062c-2.7337869-2.7330579-5.8843808-5.0144876-9.334-6.759-.3214584-.1675379-.7084125-.1479935-1.0113538.0510818s-.4744281.5465055-.4482025.9080531c.0262257.3615476.2460567.6805927.5745563.8338651 3.1128037 1.5749707 5.9669989 3.6158012 8.464 6.052l-2.145 8.604c-.1335558.5353845.1917847 1.0777678.727 1.212.0797047.0205603.1616862.030976.244.031.4582245-.0010433.8571106-.3133942.968-.758l1.857-7.424c1.4411256 1.5428739 2.7847281 3.1740334 4.023 4.884l-2.079 7.084c-.155192.5301933.1488067 1.0858079.679 1.2409999.5301934.155192 1.085808-.1488066 1.241-.6789999l1.612-5.506c.9 1.369 1.752 2.743 2.5 4.109.092.166.179.329.268.493l-1.315 5.386c-.0629883.2577981-.0209202.5300615.1169392.7568261.1378593.2267646.3602028.3894313.6180608.4521739.0786146.0187723.1591753.028171.24.028.4608042-.0002349.8617894-.3153242.971-.763l.765-3.137c.8823411 1.7956927 1.6612792 3.6403703 2.333 5.525.1742459.5246705.7408295.8087458 1.2655.6345.5246705-.1742459.8087458-.7408295.6345-1.2655-.7244473-2.044389-1.5719976-4.0430449-2.538-5.985l3.292.952c.5307456.1529829 1.0850171-.1532544 1.238-.684s-.1532544-1.0850171-.684-1.238z" fill="#4c8056"/><path id="Path" d="m27.84 22.91c.3513102 4.411267-.6237442 8.8268706-2.8 12.68-1.0699554 1.7865965-2.4798944 3.346023-4.15 4.59-3.79 2.85-10.99 4.09-18.04 4.58-.55159153.0396094-1.04913392-.330358-1.17-.87-1.46765488-5.8216112-.63681981-11.9848317 2.32-17.21 1.24007593-2.2107345 2.88145322-4.1708916 4.84-5.78 3.4587571-2.7532029 7.9530239-3.8466005 12.29-2.99.15.02.31.06.44.09.4491025.0810758.8931694.187919 1.33.32z" fill="#4fba6f"/><path id="Path" d="m51.19 1.83c-.38 3.7-2.4 16.23-12.59 20.18-.0279957.0174503-.0582872.0309131-.09.04-3.3971089 1.2089399-7.0512326 1.5088538-10.6.87-.0237763.0016098-.0476255-.0017972-.07-.01-1.4377952-.2130514-2.8606459-.5169937-4.26-.91-.2953682-1.2129719-.5223922-2.4415724-.68-3.68-.2312252-1.734347-.2547245-3.4900858-.07-5.23-.000647-.0303096.0027154-.0605717.01-.09.1167035-1.0199599.337864-2.0252352.66-3v-.01c4.01-12.22 22.21-10.11 26.75-9.38.58649.09437826.9982813.62883078.94 1.22z" fill="#71c285"/><path id="Path" d="m24.512 22.348c.637-1.7 3.321-4.349 5.064-5.975l6.749 2.25c.3394023.1130746.7133476.0364908.9809742-.2009029.2676266-.2373938.3882757-.5995317.3165-.9500001-.0717758-.3504683-.3250719-.6360225-.6644742-.749097l-5.67-1.891c1.6768342-1.443172 3.4473725-2.7737482 5.3-3.983l5.312 2.128c.1184475.0467953.2446438.0708811.372.071.479807.0004421.8923048-.3399613.9829242-.8111333s-.1661831-.9403003-.6119242-1.1178667l-3.97-1.587c2.0175667-1.22717042 4.1047528-2.33604019 6.251-3.321.4882913-.23134265.7045065-.80872457.4882756-1.3038933-.2162308-.49516872-.786697-.72902165-1.2882756-.5281067-2.2261256 1.01508435-4.3893452 2.16281294-6.478 3.437v-3.647c0-.55228475-.4477153-1-1-1s-1 .44771525-1 1v4.912c-1.6452726 1.0681795-3.2315879 2.2245339-4.752 3.464v-5c0-.55228475-.4477153-1-1-1s-1 .44771525-1 1v6.741c-2.517 2.31-5.08 4.868-6.055 6.943-1.4559311.6373851-2.8671436 1.3723915-4.224 2.2h-7.858c-.5522847 0-1 .4477153-1 1s.4477153 1 1 1h4.836c-1.8778492 1.385308-3.5921822 2.979537-5.11 4.752h-4.228c-.55228475 0-1 .4477153-1 1s.44771525 1 1 1h2.645c-1.45130558 2.0155719-2.6505489 4.2011433-3.571 6.508-.09848963.2463783-.09502491.5217985.00963134.7656213.10465624.2438228.30192323.4360571.54836866.5343787.11787453.0476729.24385009.072121.371.072.40919192.0001502.77718982-.2490109.929-.629.97861711-2.4524225 2.29573176-4.7557743 3.913-6.843l.918 5.508c.0801661.4821996.497182.835775.986.836.0553075.0002649.1105278-.0044204.165-.014.5444092-.0908048.9123105-.6055085.822-1.15l-1.126-6.753c-.0209734-.1240993-.0658-.2429576-.132-.35 1.5417866-1.6605644 3.2706279-3.1370593 5.152-4.4l.882 6.179c.0701372.4924593.4915715.8584978.989.859.0475145.0001526.0949759-.0031897.142-.01.2627626-.0373884.4998838-.1777006.6591293-.390028.1592456-.2123274.2275514-.4792512.1898707-.741972l-1.011-7.08c1.3504963-.8232211 2.7596183-1.5461649 4.216-2.163.2506333-.1148493.4500472-.3181803.56-.571z" fill="#4c8056"/></g></g></svg>