<svg id="Capa_1" enable-background="new 0 0 512 512" height="512" viewBox="0 0 512 512" width="512" xmlns="http://www.w3.org/2000/svg"><g><path d="m385.069 87.271c-.388-.326-.783-.636-1.18-.943 3.209-2.284 6.185-5.006 8.838-8.16 17.626-20.952 14.079-52.657-8.397-69.098-19.134-13.997-46.147-11.547-62.47 5.645-2.303 2.426-5.22 6.803-6.997 9.598-.001.001-.002.001-.002.003-.558.87-1.012 1.534-1.756 1.691-.652.138-1.716-.7-1.716-.7l-.006.009c-15.067-11.91-36.97-9.774-49.419 5.025-5.359 6.37-8.104 14.065-8.353 21.785-.225 6.964-3.415 13.404-8.759 17.876-1.572 1.316-3.052 2.786-4.417 4.409-9.103 10.82-10.668 25.461-5.26 37.558 1.026 2.295.61 4.932-1.011 6.854-.009.011-.019.022-.028.034-3.733 4.437-5.944 9.644-6.691 14.991-2.37 16.958-8.87 33.072-19.893 46.175l-200.849 238.743c-10.032 11.925-8.633 29.656 3.049 39.867l21.298 21.231 220.193-263.082c11.023-13.103 25.787-22.265 42.089-27.502 5.14-1.651 9.892-4.722 13.624-9.158.009-.011.019-.022.028-.034 1.616-1.926 4.143-2.788 6.58-2.169 12.844 3.258 27.001-.79 36.104-11.611 1.366-1.623 2.561-3.333 3.588-5.107 3.491-6.03 9.29-10.276 16.113-11.689 7.564-1.567 14.675-5.588 20.034-11.958 12.689-15.082 10.748-37.595-4.334-50.283z" fill="#b9ea6a"/><path d="m502.93 127.67c-16.441-22.476-48.147-26.023-69.098-8.397-3.154 2.653-5.876 5.629-8.16 8.838-.307-.397-.617-.793-.943-1.18-12.688-15.082-35.201-17.023-50.283-4.335-6.37 5.359-10.392 12.47-11.958 20.034-1.413 6.823-5.659 12.622-11.689 16.113-1.774 1.027-3.484 2.222-5.107 3.588-10.82 9.103-14.869 23.26-11.611 36.104.618 2.437-.243 4.964-2.169 6.58-.011.009-.022.019-.034.028-4.437 3.732-7.507 8.485-9.158 13.624-5.237 16.303-14.399 31.066-27.502 42.089l-263.082 220.194 21.231 21.298c10.212 11.682 27.942 13.081 39.867 3.049l238.742-200.845c13.103-11.023 29.217-17.523 46.175-19.893 5.347-.747 10.554-2.959 14.991-6.691.011-.009.023-.019.034-.028 1.922-1.621 4.559-2.038 6.854-1.011 12.097 5.408 26.738 3.843 37.558-5.26 1.623-1.366 3.093-2.845 4.409-4.417 4.472-5.344 10.912-8.534 17.876-8.759 7.72-.249 15.415-2.994 21.785-8.353 15.082-12.688 17.023-35.201 4.335-50.283-.023-.027-.048-.053-.071-.08-.112-.14-.303-.463-.159-.932.187-.608.779-.819.779-.819l-.001-.003c3.854-1.878 7.434-4.639 10.744-7.78 17.192-16.326 19.642-43.338 5.645-62.473z" fill="#95d528"/><g><path d="m496.462 182.225c7.196-7.196 12.36-15.664 15.5-24.687.415-10.414-2.533-20.986-9.026-29.863-16.443-22.478-48.151-26.025-69.104-8.398-3.154 2.654-5.876 5.63-8.161 8.839-.307-.397-.617-.793-.943-1.18-12.689-15.084-35.204-17.025-50.287-4.335-6.371 5.36-10.392 12.471-11.959 20.036-1.413 6.824-5.66 12.623-11.69 16.115-1.774 1.027-3.484 2.223-5.107 3.588-10.821 9.104-14.87 23.262-11.611 36.107.618 2.437-.243 4.964-2.17 6.58-.011.009-.022.019-.034.028-4.437 3.733-7.508 8.485-9.159 13.626-5.238 16.304-14.4 31.069-27.504 42.093l-263.105 220.21 21.233 21.3c5.487 6.277 13.146 9.554 20.907 9.716 7.423-2.786 14.369-7.126 20.29-13.047l242.887-242.887c9.263-9.263 21.742-15.894 36.085-19.174 7.092-1.622 13.779-4.532 19.776-8.583 20.529 3.305 41.932-3.355 56.877-18.301 2.703-2.703 5.179-5.653 7.351-8.759.202-.287.346-.304.416-.313 14.509-1.724 28.195-8.368 38.538-18.711z" fill="#7db723"/><path d="m329.775 15.538c7.196-7.196 15.664-12.36 24.687-15.5 10.414-.415 20.986 2.533 29.863 9.026 22.478 16.443 26.025 48.151 8.398 69.104-2.654 3.154-5.63 5.876-8.839 8.161.397.307.793.617 1.18.943 15.084 12.689 17.025 35.204 4.335 50.287-5.36 6.371-12.471 10.392-20.036 11.959-6.824 1.413-12.623 5.66-16.115 11.69-1.027 1.774-2.223 3.484-3.588 5.107-9.104 10.821-23.262 14.87-36.107 11.611-2.437-.618-4.964.243-6.58 2.17-.009.011-.019.022-.028.034-3.733 4.437-8.485 7.508-13.626 9.159-16.304 5.238-31.069 14.4-42.093 27.504l-220.21 263.105-21.3-21.233c-6.277-5.486-9.554-13.145-9.716-20.907 2.786-7.423 7.126-14.369 13.047-20.29l242.887-242.887c9.263-9.263 15.894-21.742 19.174-36.085 1.622-7.092 4.532-13.779 8.583-19.776-3.305-20.529 3.355-41.932 18.301-56.877 2.703-2.703 5.653-5.179 8.759-7.351.287-.202.304-.346.313-.416 1.724-14.509 8.368-28.195 18.711-38.538z" fill="#95d528"/><path d="m477.94 163.703c15.344-15.344 15.344-40.222 0-55.566-.004-.004-.008-.008-.012-.012-.593-.593-.522-1.577.172-2.048 4.002-2.715 7.926-5.73 11.317-9.555 17.315-19.531 17.447-49.393.285-69.058-20.16-23.1-55.274-23.992-76.589-2.677-2.811 2.811-4.998 5.961-7.185 9.124-.476.688-1.455.762-2.045.169-.01-.01-.021-.021-.031-.031-15.344-15.344-40.222-15.344-55.566 0-6.377 6.377-10.099 14.401-11.172 22.702-.992 7.678-5.006 14.744-11.348 19.185-1.849 1.294-3.611 2.767-5.262 4.419-10.979 10.979-14.093 26.835-9.36 40.59.908 2.639.256 5.561-1.719 7.533l-.034.034c-4.572 4.572-7.508 10.159-8.808 16.036-4.02 18.163-12.595 35.002-25.749 48.157l-242.777 242.772c-12.132 12.132-12.896 31.919-1.08 44.359 12.22 12.867 32.562 13.065 45.032.594l243.275-243.275c13.154-13.154 29.993-21.729 48.157-25.749 5.876-1.301 11.464-4.236 16.036-8.808l.034-.034c1.972-1.975 4.894-2.627 7.533-1.719 13.755 4.734 29.611 1.619 40.59-9.36 1.651-1.651 3.124-3.414 4.419-5.262 4.441-6.342 11.506-10.356 19.185-11.348 8.301-1.073 16.324-4.795 22.702-11.172z" fill="#b9ea6a"/><g fill="#95d528"><path d="m477.94 163.703c14.474-14.474 15.288-37.428 2.455-52.865-1.86 5.662-5.031 10.988-9.533 15.49-6.481 6.481-14.661 10.219-23.106 11.222-7.618.905-14.38 5.014-18.78 11.298-1.294 1.849-2.767 3.611-4.418 5.262-11.008 11.008-26.92 14.11-40.701 9.321-2.615-.909-5.468-.203-7.422 1.758-.011.011-.023.023-.034.034-4.514 4.514-10.017 7.432-15.811 8.757-18.378 4.203-35.438 12.857-48.769 26.187l-242.889 242.889c-11.842 11.842-30.777 12.254-43.12 1.249-5.757 11.988-3.839 26.907 6.179 36.552 12.306 11.848 31.887 11.706 44.019-.426l242.887-242.887c13.331-13.331 30.391-21.984 48.769-26.187 5.794-1.325 11.297-4.244 15.811-8.757.011-.011.023-.023.034-.034 1.954-1.96 4.808-2.666 7.422-1.758 13.781 4.789 29.693 1.687 40.701-9.321 1.651-1.651 3.124-3.414 4.419-5.262 4.4-6.284 11.162-10.393 18.78-11.298 8.445-1.005 16.626-4.743 23.107-11.224z"/><path d="m429.55 96.474h-3.109l8.805-8.805c3.017-3.017 3.017-7.91 0-10.927-3.018-3.017-7.91-3.017-10.928 0l-8.804 8.804v-3.108c0-4.267-3.459-7.727-7.727-7.727s-7.727 3.46-7.727 7.727v18.562l-21.822 21.822v-9.128c0-4.267-3.459-7.727-7.727-7.727s-7.727 3.46-7.727 7.727v24.582l-17.186 17.186c-3.017 3.017-3.017 7.91 0 10.927 1.509 1.509 3.486 2.263 5.464 2.263 1.977 0 3.955-.755 5.464-2.263l17.185-17.185h24.582c4.268 0 7.727-3.46 7.727-7.727s-3.459-7.727-7.727-7.727h-9.128l21.822-21.822h18.563c4.268 0 7.727-3.46 7.727-7.727 0-4.268-3.459-7.727-7.727-7.727z"/></g></g></g></svg>