<?xml version="1.0" encoding="iso-8859-1"?>
<!-- Generator: Adobe Illustrator 19.0.0, SVG Export Plug-In . SVG Version: 6.00 Build 0)  -->
<svg version="1.1" id="Layer_1" xmlns="http://www.w3.org/2000/svg" xmlns:xlink="http://www.w3.org/1999/xlink" x="0px" y="0px"
	 viewBox="0 0 512 512" style="enable-background:new 0 0 512 512;" xml:space="preserve">
<path style="fill:#5B5D6E;" d="M170.739,225.085c2.566,1.705,4.038,4.625,3.883,7.7l-12.018,240.378l0,0
	C161.6,494.524,178.275,512,199.659,512h112.683c21.171,0,38.049-17.689,37.055-38.837l0,0l-12.019-240.378
	c-0.153-3.068,1.304-5.99,3.864-7.688c8.845-5.867,13.967-16.892,11.029-28.8c-2.915-11.817-14.112-19.745-26.283-19.745h-0.723
	c-14.956,0-27.543-11.198-29.284-26.052L282.483,35.31h-52.966l-13.498,115.189c-1.741,14.855-14.328,26.052-29.284,26.052H186.7
	c-13.75,0-26.055,9.781-27.622,23.329C157.866,210.376,162.8,219.809,170.739,225.085z"/>
<path style="fill:#464655;" d="M308.966,220.69h-59.019c-11.329,0-20.812-9.248-20.372-20.568c0.003-0.081,0.007-0.16,0.01-0.241
	c0.57-13.548,5.589-18.088,10.057-23.329c3.528-4.139,10.016-11.198,10.648-26.052l4.908-115.189h-25.681l-13.498,115.189
	c-1.741,14.855-14.327,26.052-29.283,26.052h-0.034c-13.75,0-26.055,9.78-27.622,23.329c-1.214,10.495,3.72,19.928,11.659,25.204
	c2.566,1.705,4.038,4.625,3.883,7.701l-12.018,240.377C161.6,494.524,178.275,512,199.659,512h44.682
	c-7.776,0-13.474-11.402-13.474-38.837l3.954-217.484c0.175-9.624,8.026-17.334,17.652-17.334h56.493
	c4.879,0,8.828-3.948,8.828-8.828S313.845,220.69,308.966,220.69z"/>
<ellipse style="fill:#FF7369;" cx="256" cy="353.103" rx="61.793" ry="88.276"/>
<path style="fill:#D5DCED;" d="M282.483,44.138h-52.966c-4.875,0-8.828-3.953-8.828-8.828V8.828c0-4.875,3.953-8.828,8.828-8.828
	h52.966c4.875,0,8.828,3.953,8.828,8.828V35.31C291.311,40.185,287.358,44.138,282.483,44.138z"/>
<path style="fill:#C7CFE2;" d="M247.173,35.31V8.828C247.173,3.953,251.125,0,256,0h-26.483c-4.875,0-8.828,3.953-8.828,8.828V35.31
	c0,4.875,3.953,8.828,8.828,8.828H256C251.125,44.138,247.173,40.185,247.173,35.31z"/>
<path style="fill:#FF5050;" d="M256,282.483c-4.917,0-9.64,1.304-14.051,3.692c-3.475,1.881-7.671-0.762-7.598-4.714l0.201-11.059
	c-23.538,12.469-40.344,44.738-40.344,82.701c0,36.354,15.392,67.553,37.367,81.081l0.202-11.129
	c0.074-4.083,4.573-6.468,8.019-4.279c5.016,3.187,10.479,4.948,16.205,4.948c24.376,0,44.138-31.618,44.138-70.621
	S280.377,282.483,256,282.483z"/>
<g>
	<path style="fill:#FFDC64;" d="M264.828,326.621h-17.655c-4.879,0-8.828-3.948-8.828-8.828c0-4.879,3.948-8.828,8.828-8.828h17.655
		c4.879,0,8.828,3.948,8.828,8.828C273.656,322.673,269.707,326.621,264.828,326.621z"/>
	<path style="fill:#FFDC64;" d="M264.828,397.241h-17.655c-4.879,0-8.828-3.948-8.828-8.828s3.948-8.828,8.828-8.828h17.655
		c4.879,0,8.828,3.948,8.828,8.828S269.707,397.241,264.828,397.241z"/>
</g>
<path style="fill:#FFC850;" d="M282.483,361.931h-52.966c-4.879,0-8.828-3.948-8.828-8.828c0-4.879,3.948-8.828,8.828-8.828h52.966
	c4.879,0,8.828,3.948,8.828,8.828C291.311,357.983,287.363,361.931,282.483,361.931z"/>
<g>
</g>
<g>
</g>
<g>
</g>
<g>
</g>
<g>
</g>
<g>
</g>
<g>
</g>
<g>
</g>
<g>
</g>
<g>
</g>
<g>
</g>
<g>
</g>
<g>
</g>
<g>
</g>
<g>
</g>
</svg>
