<?xml version="1.0" encoding="iso-8859-1"?>
<!-- Generator: Adobe Illustrator 19.0.0, SVG Export Plug-In . SVG Version: 6.00 Build 0)  -->
<svg version="1.1" id="Layer_1" xmlns="http://www.w3.org/2000/svg" xmlns:xlink="http://www.w3.org/1999/xlink" x="0px" y="0px"
	 viewBox="0 0 511.998 511.998" style="enable-background:new 0 0 511.998 511.998;" xml:space="preserve">
<path style="fill:#F5DC9B;" d="M418.846,268.065L418.846,268.065c-16.952,0-33.038,8.963-40.775,24.045
	c-11.571,22.553-32.185,30.685-48.308,33.463c-7.559-15.878-14.68-33.239-21.178-51.85c-4.578-13.11-4.608-27.424-0.217-40.599
	l1.099-3.297c4.592-13.775,13.937-25.329,26.068-33.307c37.893-24.919,85.847-72.954,96.361-113.072
	c8.41-32.09-12.645-55.621-45.819-55.621l0,0c-27.895,0-50.466,21.083-61.375,46.757c-8.673,20.413-22.877,43.475-46.015,65.975
	c-2.058-20.731-3.147-42.376-2.978-64.994C276.021,34.022,242.602,0,201.058,0l0,0c-41.923,0-75.761,34.44-74.699,76.348
	c1.557,61.391,16.756,156.552,66.944,251.721c-22.35-12.492-38.645-30.163-49.973-46.566
	c-13.755-19.918-40.342-27.938-61.675-16.503c-25.16,13.488-32.136,45.338-16.395,68.268
	c57.051,83.105,140.496,91.898,190.377,88.365c23.107,27.863,50.11,54.692,81.657,79.52c15.721,12.372,37.74,14.766,54.611,4.015
	c24.248-15.452,28.416-48.44,9.631-69.418c-11.475-12.815-25.105-30.149-39.076-51.672c41.25-9.294,67.667-30.615,84.376-52.089
	C466.008,307.351,449.912,271.172,418.846,268.065z"/>
<g>
	<path style="fill:#F5C887;" d="M417.894,114.258c3.55-5.721,6.576-11.428,9.061-17.062c-11.5-14.413-23.436-25.573-34.66-34.194
		c5.328-10.835,9.061-21.907,10.429-32.941c-5.094-1.443-10.665-2.234-16.65-2.234l0,0c-26.398,0-49.609,16.568-59.119,41.194
		c-8.392,21.728-23.003,46.968-48.27,71.538c0,0,0.367,4.384,1.1,10.128c1.509,11.821,15.276,17.557,24.657,10.208
		c8.709-6.823,19.598-15.837,30.935-26.413c10.686,8.951,22.267,20.88,33.021,36.558c4.415-3.921,8.784-8.002,13.058-12.238
		c-10.885-15.479-22.435-27.509-33.287-36.786c4.422-4.51,8.815-9.218,13.079-14.091c11.283,8.628,23.422,20.106,34.886,35.263
		c4.024-4.598,7.869-9.274,11.447-14.006c-11.61-14.744-23.704-26.161-35.079-34.954c3.92-5.107,7.624-10.342,11.011-15.672
		C394.721,87.376,406.667,99.009,417.894,114.258z"/>
	<path style="fill:#F5C887;" d="M222.707,293.924c31.471-7.082,62.891-18.798,83.468-29.555c-1.204-6.621-1.297-13.384-0.357-20.046
		c-20.031,12.306-55.375,25.587-88.946,32.881c-21.962-65.446-30.143-119.735-31.623-162.406
		c25.135-7.442,56.595-12.449,91.076-8.026c-0.254-5.81-0.261-11.821-0.35-17.767c-34.279-3.962-65.428,0.412-90.96,7.407
		c0.114-12.164,0.769-23.201,1.758-33.097c24.45-3.928,54.468-4.64,88.363,2.864c-0.778-6.643-2.393-13.026-4.786-19.029
		c-30.687-5.797-58.07-5.472-81.188-2.308c1.425-8.888,3.063-16.483,4.659-22.75c2.917-11.447-8.445-21.404-19.48-17.189
		c-28.642,10.94-48.804,38.946-47.98,71.442c1.557,61.391,16.757,156.552,66.944,251.721c9.497,4.326,18.786,6.351,26.48,7.229
		c8.935,1.019,15.845-7.792,12.511-16.145C228.87,310.573,225.687,302.17,222.707,293.924z"/>
	<path style="fill:#F5C887;" d="M406.812,306.416c7.744-8.449,12.971-17.509,12.782-26.51c-0.149-7.039-6.798-11.871-13.586-10.001
		c-11.867,3.269-22.2,11.024-27.936,22.206c-11.571,22.553-32.185,30.685-48.308,33.463c0,0,0.975,2.26,2.934,5.672
		c5.936,10.348,19.165,13.943,29.565,8.099c9.303-5.227,21.055-12.486,31.499-20.877c15.112,15.213,30.146,24.112,39.378,28.666
		c4.659-4.466,8.785-9.066,12.481-13.69C439.714,330.91,423.392,322.913,406.812,306.416z"/>
	<path style="fill:#F5C887;" d="M400.151,434.141c-3.66-4.138-7.545-8.814-11.561-13.835c-5.286,6.9-20.746,24.724-48.634,40.002
		c-21.692-22.707-39.848-47.301-49.462-61.05c-4.606-6.588-11.928-10.809-19.956-11.225c-50.74-2.626-90.436-20.947-120.107-42.812
		c10.818-12.016,18.041-23.326,22.423-31.274c-4.835-4.004-9.293-8.197-13.363-12.5c-3.409,6.733-10.667,19.221-22.975,32.688
		c-4.259-3.666-8.257-7.372-12.006-11.067c11.732-13.47,19.264-26.197,23.657-34.921c-1.698-2.228-3.321-4.447-4.838-6.645
		c-2.198-3.183-4.814-5.937-7.593-8.481c-2.274,5.455-9.316,20.469-23.469,37.071c-8.718-9.935-15.553-19.327-20.577-27.094
		c-7.044-10.888-23.373-10.051-29.41,1.425c-7.893,15.001-7.322,33.834,2.982,48.845c57.051,83.105,140.496,91.898,190.377,88.365
		c23.107,27.862,50.109,54.692,81.657,79.52c7.31,5.754,15.976,9.303,24.855,10.393c6.701,0.823,12.863-3.855,13.973-10.515l0,0
		c0.778-4.668-1.174-9.284-4.924-12.17c-6.173-4.752-12.259-10.021-18.176-15.578C377.567,459.009,392.755,443.156,400.151,434.141z
		"/>
</g>
<g>
</g>
<g>
</g>
<g>
</g>
<g>
</g>
<g>
</g>
<g>
</g>
<g>
</g>
<g>
</g>
<g>
</g>
<g>
</g>
<g>
</g>
<g>
</g>
<g>
</g>
<g>
</g>
<g>
</g>
</svg>
