<svg height="512pt" viewBox="0 0 512 512" width="512pt" xmlns="http://www.w3.org/2000/svg"><path d="m438.101562 170.6875-62.648437 75.167969-88.5625 25.058593v-78.667968l-.261719-10.929688-1.828125-77.089844c2.097657-11.402343 5.09375-22.3125 8.886719-32.597656 11.410156-30.917968 30.007812-56.132812 52.84375-71.628906 22.835938 15.496094 41.429688 40.710938 52.832031 71.628906 3.800781 10.285156 6.796875 21.195313 8.886719 32.597656l29.203125 65.019532zm0 0" fill="#9fd179"/><path d="m437.453125 169.246094-95.128906 32.640625-55.695313-20.570313-1.828125-77.089844c2.097657-11.402343 5.09375-22.3125 8.886719-32.597656 17.507812 16.976563 33.535156 38.664063 46.273438 63.921875 2.550781 5.054688 4.730468 9.761719 6.570312 14.199219 1.828125-4.4375 4.007812-9.144531 6.554688-14.199219 12.738281-25.269531 28.769531-46.957031 46.277343-63.921875 3.800781 10.285156 6.796875 21.195313 8.886719 32.597656zm0 0" fill="#55b774"/><path d="m350.730469 201.890625h-118.675781c-1.304688-3.394531-2.527344-6.796875-3.664063-10.183594-14.996094-44.6875-15.152344-88.0625-1.492187-118.445312 19.199218 4.1875 39.183593 14.921875 57.894531 30.957031v.011719c20.957031 17.949219 40.304687 42.558593 55.175781 72.046875 2.546875 5.054687 4.726562 9.761718 6.566406 14.199218v.011719c.167969.40625.332032.824219.5 1.21875 1.449219 3.574219 2.671875 6.957031 3.695313 10.183594zm0 0" fill="#9fd179"/><path d="m464.667969 191.707031c-1.136719 3.386719-2.359375 6.789063-3.664063 10.183594h-118.675781c1.023437-3.226563 2.242187-6.609375 3.695313-10.183594.167968-.394531.332031-.8125.5-1.21875l.011718-.011719c1.828125-4.4375 4.007813-9.144531 6.554688-14.199218 14.871094-29.488282 34.21875-54.097656 55.175781-72.046875v-.011719c18.710937-16.035156 38.695313-26.769531 57.894531-30.957031 13.660156 30.382812 13.503906 73.757812-1.492187 118.445312zm0 0" fill="#9fd179"/><g fill="#55b774"><path d="m291.746094 201.886719h-59.695313c-18.554687-48.21875-19.847656-95.9375-5.160156-128.628907zm0 0"/><path d="m291.753906 209.71875c-2.863281 0-5.621094-1.574219-6.996094-4.308594l-25.445312-50.453125c-1.949219-3.859375-.394531-8.570312 3.464844-10.515625 3.859375-1.949218 8.570312-.398437 10.519531 3.464844l34.035156 68.695312c1.945313 3.859376-8.195312-9.671874-12.058593-7.726562-1.128907.574219-2.332032.84375-3.519532.84375zm0 0"/><path d="m401.292969 209.71875c-1.183594 0-2.386719-.269531-3.519531-.839844-3.859376-1.949218-17.558594 17.847656-15.613282 13.988282l37.59375-74.960938c1.949219-3.863281 6.660156-5.414062 10.519532-3.464844 3.859374 1.945313 5.414062 6.65625 3.464843 10.519532l-25.445312 50.453124c-1.378907 2.726563-4.136719 4.304688-7 4.304688zm0 0"/></g><path d="m354.53125 437.960938c-9.960938 4.164062-20.253906 7.726562-30.8125 10.628906 9.910156 2.066406 19.664062 4.5625 29.226562 7.484375 31.40625 9.609375 24.496094 55.925781-8.34375 55.925781h-177.566406c-32.835937 0-39.75-46.316406-8.34375-55.925781 9.566406-2.921875 19.320313-5.417969 29.226563-7.484375-108.328125-29.738282-187.91406275-128.929688-187.91406275-246.699219h511.62890575c0 106.28125-64.820312 197.445313-157.101562 236.070313zm0 0" fill="#f7e680"/><path d="m190.191406 201.886719h-120.316406l-19.535156-111.390625 87.519531-24.296875 8.820313 22.886719zm0 0" fill="#996136"/><path d="m186.269531 191.707031h-90.035156l-12.355469-70.40625c-1.398437-7.996093 3.5-15.753906 11.320313-17.925781l51.484375-14.285156zm0 0" fill="#c28e63"/><path d="m158.460938 43.824219c0 9.605469-6.359376 18.417969-16.070313 21.109375l-69.792969 19.382812-22.257812 6.179688c-11.664063 3.238281-23.757813-3.59375-26.992188-15.253906-.542968-1.964844-.804687-3.9375-.804687-5.878907 0-9.605469 6.359375-18.417969 16.070312-21.125l44.519531-12.363281 47.53125-13.1875c11.664063-3.246094 23.742188 3.59375 26.992188 15.257812.542969 1.960938.804688 3.933594.804688 5.878907zm0 0" fill="#996136"/><path d="m158.460938 43.824219c0 9.605469-6.359376 18.417969-16.070313 21.109375l-69.792969 19.382812c-11.660156 3.234375-23.753906-3.59375-26.988281-15.257812-.542969-1.960938-.804687-3.933594-.804687-5.878906 0-9.605469 6.359374-18.417969 16.070312-21.121094l22.257812-6.183594 47.53125-13.1875c11.664063-3.246094 23.742188 3.59375 26.992188 15.257812.542969 1.960938.804688 3.933594.804688 5.878907zm0 0" fill="#c28e63"/><path d="m346.53125 168.441406c-4.328125 0-7.832031-3.503906-7.832031-7.828125v-102.328125c0-4.324218 3.503906-7.832031 7.832031-7.832031 4.324219 0 7.828125 3.507813 7.828125 7.832031v102.324219c0 4.328125-3.503906 7.832031-7.828125 7.832031zm0 0" fill="#55b774"/><path d="m128.304688 335.265625c-13.890626-38.835937-21.894532-84.507813-21.894532-133.378906h-106.410156c0 117.765625 79.585938 216.960937 187.914062 246.699219-9.910156 2.066406-19.660156 4.5625-29.226562 7.484374-31.40625 9.605469-24.496094 55.925782 8.34375 55.925782h36.933594c-19.183594 0-23.222656-46.320313-4.878906-55.925782 5.585937-2.921874 11.285156-5.414062 17.066406-7.484374l.007812.003906h107.558594c10.554688-2.902344 20.851562-6.464844 30.8125-10.628906h-80.277344c-65.449218 0-123.910156-41.070313-145.949218-102.695313zm0 0" fill="#eda532"/><path d="m464.667969 191.707031c-1.136719 3.386719-2.359375 6.789063-3.664063 10.183594h-228.949218c-1.304688-3.394531-2.527344-6.796875-3.664063-10.183594zm0 0" fill="#55b774"/></svg>