<svg id="Layer_1" enable-background="new 0 0 504.5 504.5" height="512" viewBox="0 0 504.5 504.5" width="512" xmlns="http://www.w3.org/2000/svg"><g><g><g><path d="m235.626 108.733c0 47.201-28.759 74.848-64.234 74.848s-64.234-27.647-64.234-74.848 28.759-95.448 64.234-95.448 64.234 48.247 64.234 95.448z" fill="#ffdeb0"/><path d="m171.392 13.285c-6.984 0-13.705 1.876-20 5.24 25.682 13.722 44.234 52.299 44.234 90.208 0 37.907-18.555 63.186-44.234 71.678 6.296 2.082 13.015 3.17 20 3.17 35.476 0 64.234-27.647 64.234-74.848s-28.758-95.448-64.234-95.448z" fill="#fcd59f"/><path d="m364.095 108.733c0 47.201-28.759 74.848-64.234 74.848s-64.234-27.647-64.234-74.848 28.759-95.448 64.234-95.448 64.234 48.247 64.234 95.448z" fill="#fff1ec"/><path d="m299.861 13.285c-6.984 0-13.705 1.876-20 5.24 25.682 13.722 44.234 52.299 44.234 90.208 0 37.907-18.555 63.186-44.234 71.678 6.296 2.082 13.015 3.17 20 3.17 35.476 0 64.234-27.647 64.234-74.848s-28.758-95.448-64.234-95.448z" fill="#fce2c5"/><path d="m171.392 188.889c0 47.201-28.759 74.848-64.234 74.848s-64.234-27.647-64.234-74.848 28.759-95.448 64.234-95.448 64.234 48.248 64.234 95.448z" fill="#fff1ec"/><path d="m107.158 93.442c-6.984 0-13.705 1.876-20 5.24 25.682 13.722 44.234 52.299 44.234 90.208 0 37.907-18.555 63.186-44.234 71.678 6.296 2.082 13.015 3.17 20 3.17 35.476 0 64.234-27.647 64.234-74.848s-28.759-95.448-64.234-95.448z" fill="#fce2c5"/><path d="m299.861 188.889c0 47.201-28.759 74.848-64.234 74.848s-64.234-27.647-64.234-74.848 28.759-95.448 64.234-95.448 64.234 48.248 64.234 95.448z" fill="#fcd59f"/><path d="m235.626 93.442c-6.984 0-13.705 1.876-20 5.24 25.682 13.722 44.234 52.299 44.234 90.208 0 37.907-18.555 63.186-44.234 71.678 6.296 2.082 13.015 3.17 20 3.17 35.476 0 64.234-27.647 64.234-74.848.001-47.201-28.758-95.448-64.234-95.448z" fill="#f7c783"/><path d="m428.33 188.889c0 47.201-28.759 74.848-64.234 74.848s-64.234-27.647-64.234-74.848 28.759-95.448 64.234-95.448 64.234 48.248 64.234 95.448z" fill="#ffdeb0"/><path d="m364.095 93.442c-6.984 0-13.705 1.876-20 5.24 25.682 13.722 44.234 52.299 44.234 90.208 0 37.907-18.555 63.186-44.234 71.678 6.296 2.082 13.015 3.17 20 3.17 35.476 0 64.234-27.647 64.234-74.848.001-47.201-28.758-95.448-64.234-95.448z" fill="#fcd59f"/></g><path d="m374.334 389.651h-277.415c-36.413 0-65.932-29.519-65.932-65.932v-83.756h409.278v83.756c.001 36.414-29.518 65.932-65.931 65.932z" fill="#e8b266"/><path d="m400.266 239.963v83.756c0 36.413-29.519 65.932-65.932 65.932h40c36.413 0 65.932-29.519 65.932-65.932v-83.756z" fill="#d9a359"/><path d="m445.684 239.963h-420.115c-9.057 0-16.4-7.342-16.4-16.4v-.002c0-9.057 7.342-16.4 16.4-16.4h420.115c9.057 0 16.4 7.342 16.4 16.4v.002c0 9.058-7.343 16.4-16.4 16.4z" fill="#8f5a46"/></g><path d="m463.753 382.626h-456.253c-4.142 0-7.5 3.358-7.5 7.5s3.358 7.5 7.5 7.5h456.253c4.142 0 7.5-3.358 7.5-7.5s-3.358-7.5-7.5-7.5z" fill="#fce2c5"/><path d="m504.5 380.473c0 47.201-28.759 74.848-64.234 74.848s-64.234-27.647-64.234-74.848 28.759-95.448 64.234-95.448 64.234 48.248 64.234 95.448z" fill="#fff1ec"/><path d="m440.266 285.026c-6.984 0-13.705 1.876-20 5.24 25.682 13.722 44.234 52.299 44.234 90.208 0 37.907-18.555 63.186-44.234 71.678 6.296 2.082 13.015 3.17 20 3.17 35.476 0 64.234-27.647 64.234-74.848s-28.759-95.448-64.234-95.448z" fill="#fce2c5"/><path d="m330.214 362.752c47.203 0 74.852 28.757 74.852 64.231s-27.648 64.231-74.852 64.231-95.453-28.757-95.453-64.231 48.25-64.231 95.453-64.231z" fill="#ffdeb0"/><path d="m330.214 362.752c-6.908 0-13.837.62-20.636 1.783 35.301 6.764 55.487 32.147 55.487 62.448s-20.186 55.684-55.487 62.448c6.798 1.163 13.728 1.783 20.636 1.783 47.203 0 74.852-28.757 74.852-64.231s-27.649-64.231-74.852-64.231z" fill="#fcd59f"/><g><path d="m317.215 44.187c-2.991-2.867-7.738-2.767-10.604.223-2.867 2.99-2.767 7.738.223 10.604 5.297 5.079 10.39 13.322 13.972 22.614 1.148 2.978 3.988 4.804 7 4.804.897 0 1.81-.162 2.696-.504 3.865-1.49 5.79-5.831 4.3-9.696-4.411-11.44-10.657-21.4-17.587-28.045z" fill="#f0d4b4"/><g fill="#e8b266"><path d="m359.857 391.221c-3.729-1.803-8.213-.242-10.017 3.487-1.803 3.729-.242 8.214 3.487 10.017 9.48 4.584 14.288 12.073 14.288 22.258 0 4.142 3.358 7.5 7.5 7.5s7.5-3.358 7.5-7.5c0-15.964-8.082-28.665-22.758-35.762z"/><path d="m252.895 124.77c-2.99-2.867-7.737-2.767-10.604.223s-2.767 7.737.223 10.604c5.296 5.078 10.388 13.32 13.972 22.615 1.148 2.978 3.988 4.804 7 4.804.897 0 1.81-.162 2.697-.504 3.865-1.49 5.79-5.832 4.3-9.696-4.413-11.442-10.659-21.402-17.588-28.046z"/></g></g></g></svg>