<svg id="Layer_1" enable-background="new 0 0 512 512" height="512" viewBox="0 0 512 512" width="512" xmlns="http://www.w3.org/2000/svg"><g><g><g><path d="m173.761 416.42v55.3h-122.04c-2.852 0-5.453-1.61-6.724-4.16l-20.011-40.31c-1.501-3.02-.83-6.78 1.911-9.1 1.391-1.17 3.182-1.73 4.993-1.73z" fill="#4dd4f7"/><g><path d="m173.761 282.05v72.11l-57.533 13.93-49.168 11.91-54.581-35.85 7.464-26.04-7.464-26.05 54.581-35.85 49.168 11.91z" fill="#e7f3f7"/><path d="m173.761 282.05v72.11l-57.533 13.93v-99.97z" fill="#cbe6ef"/><path d="m173.761 247.48v44.58h-161.282l-12.187-42.52c-.65-2.26-.2-4.7 1.221-6.58s3.642-2.98 5.993-2.98h158.751c4.142 0 7.504 3.35 7.504 7.5z" fill="#ff4656"/><path d="m173.761 344.15v44.59c0 4.14-3.362 7.5-7.504 7.5h-158.751c-2.351 0-4.573-1.11-5.993-2.99s-1.871-4.31-1.221-6.58l12.187-42.52z" fill="#14bb87"/></g></g><path d="m173.761 247.48v44.58h-57.533v-52.08h50.029c4.142 0 7.504 3.35 7.504 7.5z" fill="#d93c49"/><path d="m116.228 344.15h57.533v44.59c0 4.14-3.362 7.5-7.504 7.5h-50.029z" fill="#13a279"/><path d="m116.228 416.42h57.533v55.3h-57.533z" fill="#00c2f3"/></g><g><g><path d="m338.239 416.42v55.3h122.04c2.852 0 5.453-1.61 6.724-4.16l20.011-40.31c1.501-3.02.83-6.78-1.911-9.1-1.391-1.17-3.182-1.73-4.993-1.73z" fill="#4dd4f7"/><g><path d="m338.239 282.05v72.11l57.533 13.93 49.168 11.91 54.581-35.85-7.464-26.04 7.464-26.05-54.581-35.85-49.168 11.91z" fill="#e7f3f7"/><path d="m338.239 282.05v72.11l57.533 13.93v-99.97z" fill="#cbe6ef"/><path d="m338.239 247.48v44.58h161.282l12.187-42.52c.65-2.26.2-4.7-1.221-6.58s-3.642-2.98-5.993-2.98h-158.75c-4.143 0-7.505 3.35-7.505 7.5z" fill="#ff4656"/><path d="m338.239 344.15v44.59c0 4.14 3.362 7.5 7.504 7.5h158.751c2.351 0 4.573-1.11 5.993-2.99s1.871-4.31 1.221-6.58l-12.187-42.52z" fill="#14bb87"/></g></g><path d="m338.239 247.48v44.58h57.533v-52.08h-50.029c-4.142 0-7.504 3.35-7.504 7.5z" fill="#d93c49"/><path d="m395.772 344.15h-57.533v44.59c0 4.14 3.362 7.5 7.504 7.5h50.029z" fill="#13a279"/><path d="m338.239 416.42h57.533v55.3h-57.533z" fill="#00c2f3"/></g><g><path d="m366.05 234.28v249.63c0 15.49-12.607 28.09-28.106 28.09h-163.593c-15.499 0-28.106-12.6-28.106-28.09v-249.63c0-6.72.77-13.44 2.281-19.99l9.435-40.76 19.271-39.98-.74-39.99 10.616-45.84 7.834-33.86h122.38l18.461 79.7-.74 39.99 19.271 39.98 9.445 40.76c1.521 6.54 2.291 13.27 2.291 19.99z" fill="#d65b43"/><path d="m366.05 234.28v249.63c0 15.49-12.607 28.09-28.106 28.09h-163.593c-15.499 0-28.106-12.6-28.106-28.09h167.525c11.006 0 19.921-8.91 19.921-19.91v-224.97c0-2.7-.26-5.4-.76-8.06l-31.918-167.08c-1.791-9.38-10.006-16.17-19.571-16.17h-94.334l7.834-33.86h122.38l18.461 79.7-.74 39.99 19.271 39.98 9.445 40.76c1.521 6.54 2.291 13.27 2.291 19.99z" fill="#b2382b"/><path d="m334.432 13.86c0 3.82-1.551 7.29-4.062 9.8-2.501 2.51-5.963 4.06-9.796 4.06h-128.873c-7.654 0-13.858-6.21-13.858-13.86 0-3.83 1.551-7.3 4.062-9.8 2.501-2.51 5.963-4.06 9.796-4.06h128.873c7.655 0 13.858 6.2 13.858 13.86z" fill="#415e6f"/><path d="m334.432 13.86c0 3.82-1.551 7.29-4.062 9.8-2.501 2.51-5.963 4.06-9.796 4.06h-27.015c3.832 0 7.294-1.55 9.796-4.06 2.511-2.51 4.062-5.98 4.062-9.8 0-7.66-6.203-13.86-13.858-13.86h27.015c7.655 0 13.858 6.2 13.858 13.86z" fill="#003343"/><path d="m354.313 173.53h-196.351l18.53-79.97h159.291z" fill="#fdeda5"/><g><path d="m256.134 116.051c-4.144 0-7.504 3.357-7.504 7.5v19.996c0 4.143 3.36 7.5 7.504 7.5s7.504-3.357 7.504-7.5v-19.996c0-4.143-3.36-7.5-7.504-7.5z" fill="#fff"/><path d="m221.114 116.051c-4.144 0-7.504 3.357-7.504 7.5v19.996c0 4.143 3.36 7.5 7.504 7.5s7.504-3.357 7.504-7.5v-19.996c0-4.143-3.36-7.5-7.504-7.5z" fill="#ff4656"/><path d="m291.154 116.051c-4.144 0-7.504 3.357-7.504 7.5v19.996c0 4.143 3.36 7.5 7.504 7.5s7.504-3.357 7.504-7.5v-19.996c0-4.143-3.36-7.5-7.504-7.5z" fill="#14bb87"/></g><path d="m326.187 276.063h-21.992c-3.619-23.249-23.787-41.099-48.048-41.099s-44.429 17.85-48.048 41.099h-21.992c-4.144 0-7.504 3.357-7.504 7.5v160.626c0 4.143 3.36 7.5 7.504 7.5h140.08c4.144 0 7.504-3.357 7.504-7.5v-160.626c.001-4.143-3.359-7.5-7.504-7.5z" fill="#fdeda5"/><g fill="#ffa402"><path d="m295.137 340.934h-80.046c-4.144 0-7.504 3.357-7.504 7.5s3.36 7.5 7.504 7.5h80.046c4.144 0 7.504-3.357 7.504-7.5s-3.36-7.5-7.504-7.5z"/><path d="m274.816 370.949h-39.405c-4.144 0-7.504 3.357-7.504 7.5s3.36 7.5 7.504 7.5h39.405c4.144 0 7.504-3.357 7.504-7.5s-3.359-7.5-7.504-7.5z"/></g></g><path d="m354.313 173.53h-32.358l-15.279-79.97h29.107z" fill="#fbdf63"/></g></svg>