<svg id="Layer_1" enable-background="new 0 0 512 512" height="512" viewBox="0 0 512 512" width="512" xmlns="http://www.w3.org/2000/svg"><path d="m351.807 182.248 22.164 12.313c4.226 2.348 3.083 8.65-1.683 9.46-31.073 5.28-53.817 26.389-60.415 33.142-1.327 1.358-3.304 1.849-5.122 1.299-24.009-7.261-51.094-43.165-51.094-43.165l-17.513-22.456 89.626-4.464z" fill="#a49ca7"/><path d="m255.657 99.834 10.513-19.858c1.057-1.997.466-4.468-1.379-5.771l-40.734-28.755c-1.642-1.159-3.86-1.081-5.425.179-35.741 28.779-35.086 56.264-35.086 56.264l.601 12.484h67.219z" fill="#a49ca7"/><path d="m190.413 202.852-11.675-14.558h-38.632l11.847 15.245s25.258 31.272 61.142 34.164c2.907.234 4.633-3.19 2.728-5.398z" fill="#a49ca7"/><path d="m511.594 188.069c-5.806-14.209-19.443-39.384-43.622-41.007-.542-.036-.971-.472-.981-1.016s.401-.996.941-1.053c24.1-2.551 36.762-28.232 42.021-42.653 1.497-4.105-2.313-8.17-6.505-6.966l-108.397 31.666v39.727l110.309 28.513c4.235 1.043 7.886-3.166 6.234-7.211z" fill="#a49ca7"/><path d="m440.135 151.928c-37.282 18.851-324.04 95.154-434.9 11.734-6.954-5.233-6.964-13.897-.124-19.326 10.261-8.149 40.187-19.707 82.177-28.814 8.241-1.793 16.957-3.492 26.074-5.048 88.163-15.051 214.421-17.111 326.618 33.996 3.142 1.442 3.235 5.892.155 7.458z" fill="#c2bdc5"/><path d="m440.135 151.928c-37.282 18.852-324.043 95.158-434.9 11.734-6.954-5.233-6.964-13.897-.124-19.326 5.12-4.059 15.144-8.983 29.123-14.021 89.255 62.81 283.454 29.329 379.528 3.245 8.808 3.338 17.554 6.964 26.218 10.91 3.142 1.442 3.235 5.892.155 7.458z" fill="#b3adb6"/><ellipse cx="58.161" cy="148.798" fill="#544f56" rx="11.74" ry="11.763"/><g fill="#a49ca7"><path d="m135.913 131.675c-6.603-9.519-14.752-16.349-22.551-21.201-9.117 1.556-17.832 3.255-26.074 5.048 38.767 11.172 53.934 47.362 43.484 85.453 5.233.319 10.508.546 15.834.701.133-.484.495-1.751.587-2.235 4.945-27.033 1.154-49.831-11.28-67.766z"/><path d="m160.193 410.935-22.164 12.313c-4.226 2.348-3.083 8.65 1.683 9.46 31.073 5.28 53.817 26.389 60.415 33.142 1.327 1.358 3.304 1.849 5.122 1.299 24.009-7.261 51.094-43.165 51.094-43.165l17.513-22.456-89.626-4.464z"/><path d="m256.343 328.521-10.513-19.858c-1.057-1.997-.466-4.468 1.379-5.771l40.735-28.754c1.642-1.159 3.859-1.081 5.425.179 35.741 28.779 35.086 56.264 35.086 56.264l-.601 12.484h-67.219z"/><path d="m321.587 431.538 11.675-14.558h38.632l-11.847 15.245s-25.258 31.272-61.142 34.164c-2.907.234-4.633-3.19-2.728-5.398z"/><path d="m.406 416.756c5.806-14.209 19.443-39.384 43.622-41.007.542-.036.971-.472.981-1.016s-.401-.996-.941-1.053c-24.1-2.551-36.762-28.232-42.021-42.653-1.497-4.105 2.313-8.17 6.505-6.966l108.396 31.665v39.727l-110.308 28.514c-4.235 1.043-7.886-3.167-6.234-7.211z"/></g><path d="m71.865 380.615c37.282 18.851 324.04 95.154 434.9 11.734 6.954-5.233 6.964-13.897.124-19.326-10.261-8.149-40.187-19.707-82.177-28.814-8.241-1.792-16.957-3.492-26.074-5.048-88.163-15.051-214.421-17.111-326.618 33.996-3.142 1.442-3.235 5.892-.155 7.458z" fill="#c2bdc5"/><path d="m71.865 380.615c37.282 18.852 324.043 95.158 434.9 11.734 6.954-5.233 6.964-13.897.124-19.326-5.12-4.059-15.144-8.983-29.123-14.021-89.255 62.81-283.454 29.329-379.528 3.245-8.808 3.338-17.554 6.964-26.218 10.91-3.142 1.442-3.235 5.892-.155 7.458z" fill="#b3adb6"/><ellipse cx="453.839" cy="377.485" fill="#544f56" rx="11.74" ry="11.763"/><path d="m364.807 428.127c.092.485.454 1.751.587 2.235 5.326-.155 10.6-.381 15.834-.701-10.45-38.092 4.717-74.281 43.484-85.453-8.241-1.792-16.957-3.492-26.074-5.048-7.798 4.852-15.947 11.682-22.551 21.201-12.434 17.936-16.225 40.734-11.28 67.766z" fill="#a49ca7"/></svg>