<svg id="Layer_1" enable-background="new 0 0 497 497" height="512" viewBox="0 0 497 497" width="512" xmlns="http://www.w3.org/2000/svg"><g><g><g><path d="m175.369 198.092c25.72-24.573 38.236-15.792 63.956-40.365 25.719-24.572 15.775-34.869 41.494-59.441 25.718-24.571 35.661-14.275 61.379-38.846 25.717-24.572 15.774-34.868 41.492-59.44l39.309 40.705 1.16 28.121 33.532 7.804 39.309 40.704c-25.718 24.572-15.775 34.868-41.493 59.44-25.718 24.571-35.661 14.275-61.379 38.846-25.719 24.572-15.775 34.869-41.494 59.441-22.482 21.479-32.909 16.317-52.356 31.087l-86.14-7.908z" fill="#d82e3d"/></g><g><path d="m457.691 76.629-.114-.027 24.484 25.354c-25.718 24.572-15.775 34.868-41.493 59.44-25.718 24.571-35.661 14.275-61.379 38.846-25.719 24.572-15.775 34.869-41.494 59.441-22.481 21.48-32.909 16.317-52.355 31.087l-76.823-7.053 5.622 14.522 86.14 7.908c19.446-14.771 29.874-9.608 52.355-31.087 25.719-24.572 15.775-34.869 41.494-59.441 25.718-24.571 35.661-14.275 61.379-38.846 25.718-24.572 15.775-34.868 41.493-59.44z" fill="#c10a54"/></g><g><path d="m225.593 230.045c19.889-15.421 30.297-9.883 53.041-31.613 25.719-24.572 15.775-34.869 41.494-59.441 25.718-24.571 35.661-14.275 61.379-38.846 25.718-24.572 15.775-34.868 41.493-59.44l34.692 35.924c-25.718 24.572-15.775 34.868-41.493 59.44-25.718 24.571-35.661 14.275-61.379 38.846-25.719 24.572-15.775 34.869-41.494 59.441-25.72 24.573-35.663 14.277-61.383 38.85h-37.804z" fill="#fedca9"/></g></g><g><g><path d="m360.554 379.666c-25.72-24.573-15.776-34.87-41.496-59.443s-35.663-14.277-61.383-38.85c-25.719-24.572-15.775-34.869-41.494-59.441-25.718-24.571-35.661-14.275-61.379-38.846-25.718-24.572-15.775-34.868-41.493-59.44l-39.309 40.705-6.673 32.321-28.019 3.604-39.308 40.705c25.718 24.572 15.775 34.868 41.493 59.44 25.718 24.571 35.661 14.275 61.379 38.846 25.719 24.572 15.775 34.869 41.494 59.441 25.72 24.573 35.663 14.277 61.383 38.85s15.776 34.87 41.496 59.443l39.309-40.705 9.28-28.795 25.412-7.129z" fill="#e5646e"/></g><g><path d="m319.058 320.223c-25.72-24.573-35.663-14.277-61.383-38.85-25.719-24.572-15.775-34.869-41.494-59.441-25.718-24.571-35.661-14.275-61.379-38.846-25.718-24.572-15.775-34.868-41.493-59.44l-16.793 17.389c25.325 24.356 15.578 34.673 41.192 59.145 25.718 24.571 35.661 14.275 61.379 38.846 25.719 24.572 15.775 34.869 41.494 59.441 25.72 24.573 35.663 14.277 61.383 38.85s15.776 34.87 41.496 59.443l-23.019 23.837.804-.226 39.309-40.705c-25.719-24.574-15.776-34.87-41.496-59.443z" fill="#cf5668"/></g><g><path d="m321.245 420.371c-25.72-24.573-15.776-34.87-41.496-59.443s-35.663-14.277-61.383-38.85c-25.719-24.572-15.775-34.869-41.494-59.441-25.718-24.571-35.661-14.275-61.379-38.846-25.718-24.572-15.775-34.868-41.493-59.44l-34.692 35.924c25.718 24.572 15.775 34.868 41.493 59.44 25.718 24.571 35.661 14.275 61.379 38.846 25.719 24.572 15.775 34.869 41.494 59.441 25.72 24.573 35.663 14.277 61.383 38.85s15.776 34.87 41.496 59.443z" fill="#fedca9"/></g></g></g></svg>