<svg id="Layer_1" enable-background="new 0 0 512 512" height="512" viewBox="0 0 512 512" width="512" xmlns="http://www.w3.org/2000/svg"><g><path d="m359.058 486.284c28.784-24.635 46.736-59.476 46.736-98.102 0-59.07-41.982-109.291-100.488-127.689 5.634-1.669 8.713-6.883 8.713-13.057 0-7.52-6.098-13.617-13.62-13.617h-6.464v-84.012h-75.868v84.012h-6.464c-7.522 0-13.62 6.096-13.62 13.617 0 6.174 3.08 11.388 8.713 13.057-58.506 18.397-100.488 68.618-100.488 127.689 0 38.626 17.952 73.467 46.735 98.102-5.626 1.458-9.78 6.568-9.78 12.649 0 7.216 5.851 13.067 13.07 13.067h199.537c7.218 0 13.07-5.85 13.07-13.067-.002-6.08-4.156-11.191-9.782-12.649z" fill="#766e6e"/><path d="m359.058 486.284c28.784-24.635 46.736-59.476 46.736-98.102 0-59.07-41.982-109.291-100.488-127.689 5.634-1.669 8.713-6.883 8.713-13.057 0-7.52-6.098-13.617-13.62-13.617h-6.464v-84.012l-41.207 1.79v82.222h6.464c7.522 0 13.62 6.097 13.62 13.617 0 6.174-3.079 11.388-8.713 13.057 58.506 18.397 100.488 68.618 100.488 127.689 0 38.626-17.952 73.467-46.735 98.102 5.626 1.458 9.78 6.568 9.78 12.649 0 7.216-5.851 13.067-13.069 13.067h41.207c7.218 0 13.07-5.85 13.07-13.067-.002-6.08-4.156-11.191-9.782-12.649z" fill="#5b5555"/><g><path d="m218.066 20.687h75.868v129.12h-75.868z" fill="#f9f3f1"/></g><path d="m252.727 20.687h41.207v129.12h-41.207z" fill="#f3eae6"/><path d="m295.056 62.061h-78.111c-5.713 0-10.345-4.631-10.345-10.345v-26.748c0-13.789 11.178-24.968 24.968-24.968h48.864c13.79 0 24.968 11.179 24.968 24.968v26.748c0 5.713-4.631 10.345-10.344 10.345z" fill="#fd4755"/><ellipse cx="256" cy="385.638" fill="#f9f3f1" rx="84.144" ry="84.127"/><g fill="#fd4755"><path d="m300.141 388.255h-88.282c-4.267 0-7.726 3.459-7.726 7.726s3.459 7.726 7.726 7.726h88.282c4.268 0 7.726-3.459 7.726-7.726s-3.459-7.726-7.726-7.726z"/><path d="m233.93 367.85h44.141c4.268 0 7.726-3.459 7.726-7.726s-3.459-7.726-7.726-7.726h-44.141c-4.267 0-7.726 3.459-7.726 7.726s3.458 7.726 7.726 7.726z"/></g></g></svg>