<?xml version="1.0" encoding="utf-8"?>
<!-- Generator: Adobe Illustrator 24.1.3, SVG Export Plug-In . SVG Version: 6.00 Build 0)  -->
<svg version="1.1" id="Layer_1" xmlns="http://www.w3.org/2000/svg" xmlns:xlink="http://www.w3.org/1999/xlink" x="0px" y="0px"
	 viewBox="0 0 400.5 400" style="enable-background:new 0 0 400.5 400;" xml:space="preserve">
<style type="text/css">
	.st0{fill:#E3A230;}
	.st1{fill:#F5D66E;}
	.st2{fill:#A75B3D;}
	.st3{fill:#A34323;}
	.st4{fill:#822F1C;}
	.st5{fill:#EA5F57;}
	.st6{fill:#DCDFDF;}
	.st7{fill:#BEC1C3;}
	.st8{fill:#FFFFFF;}
	.st9{fill:#6BB48C;}
	.st10{opacity:0.1;fill:#010101;enable-background:new    ;}
	.st11{fill:#F3C97F;}
	.st12{fill:#4A515A;}
	.st13{opacity:0.1;}
	.st14{fill:#010101;}
	.st15{fill:#FFF4D8;}
	.st16{fill:#F8DBAA;}
	.st17{fill:#ADACB2;}
	.st18{fill:#CDCDD0;}
	.st19{fill:#BC7429;}
	.st20{fill:#804E20;}
	.st21{fill:#F8981E;}
	.st22{fill:#F0542C;}
	.st23{fill:#BD3E27;}
	.st24{fill:#F37452;}
</style>
<g>
	<path class="st0" d="M138.5,58.1h-11.7c-2,0-3.6-1.6-3.6-3.6V42.7c0-2,1.6-3.6,3.6-3.6h11.7c2,0,3.6,1.6,3.6,3.6v11.7
		C142.1,56.5,140.5,58.1,138.5,58.1z"/>
	<path class="st0" d="M138.5,86.7h-11.7c-2,0-3.6-1.6-3.6-3.6V71.4c0-2,1.6-3.6,3.6-3.6h11.7c2,0,3.6,1.6,3.6,3.6v11.7
		C142.1,85.1,140.5,86.7,138.5,86.7z"/>
	<path class="st0" d="M138.5,115.4h-11.7c-2,0-3.6-1.6-3.6-3.6V100c0-2,1.6-3.6,3.6-3.6h11.7c2,0,3.6,1.6,3.6,3.6v11.7
		C142.1,113.7,140.5,115.4,138.5,115.4z"/>
	<path class="st0" d="M138.5,144h-11.7c-2,0-3.6-1.6-3.6-3.6v-11.8c0-2,1.6-3.6,3.6-3.6h11.7c2,0,3.6,1.6,3.6,3.6v11.7
		C142.1,142.4,140.5,144,138.5,144z"/>
</g>
<g>
	<path class="st1" d="M54.7,57H43c-2,0-3.6-1.6-3.6-3.6V41.6c0-2,1.6-3.6,3.6-3.6h11.7c2,0,3.6,1.6,3.6,3.6v11.7
		C58.3,55.4,56.7,57,54.7,57z"/>
	<path class="st1" d="M54.7,85.6H43c-2,0-3.6-1.6-3.6-3.6V70.3c0-2,1.6-3.6,3.6-3.6h11.7c2,0,3.6,1.6,3.6,3.6V82
		C58.3,84,56.7,85.6,54.7,85.6z"/>
	<path class="st1" d="M54.7,114.3H43c-2,0-3.6-1.6-3.6-3.6V98.9c0-2,1.6-3.6,3.6-3.6h11.7c2,0,3.6,1.6,3.6,3.6v11.7
		C58.3,112.7,56.7,114.3,54.7,114.3z"/>
	<path class="st1" d="M54.7,142.9H43c-2,0-3.6-1.6-3.6-3.6v-11.7c0-2,1.6-3.6,3.6-3.6h11.7c2,0,3.6,1.6,3.6,3.6v11.7
		C58.3,141.3,56.7,142.9,54.7,142.9z"/>
</g>
<path class="st2" d="M123.2,151.4H59.4c-4,0-7.2-3.3-7.2-7.4v-15.4c0-0.6,0.1-1.1,0.4-1.6l3.6-7.2l-3.6-6.2
	c-0.3-0.5-0.5-1.2-0.5-1.8V100c0-0.6,0.1-1.2,0.4-1.7l3.6-6.7l-3.6-6.7c-0.3-0.5-0.4-1.1-0.4-1.7V71.4c0-0.6,0.1-1.2,0.4-1.7
	l3.6-6.7l-3.6-6.7c-0.3-0.5-0.4-1.1-0.4-1.7V38.1c0-4.1,3.2-7.4,7.2-7.4h63.9c4,0,7.2,3.3,7.2,7.4v16.4c0,0.6-0.1,1.2-0.4,1.7
	l-3.6,6.7l3.6,6.7c0.3,0.5,0.4,1.1,0.4,1.7v11.7c0,0.6-0.1,1.2-0.4,1.7l-3.6,6.7l3.6,6.7c0.3,0.5,0.4,1.1,0.4,1.7v11.7
	c0,0.6-0.2,1.3-0.5,1.8l-3.6,6.2l3.6,7.2c0.3,0.5,0.4,1.1,0.4,1.6v15.4C130.5,148.1,127.2,151.4,123.2,151.4z"/>
<g>
	<path class="st3" d="M108.9,66.5h-34c-2,0-3.6-1.6-3.6-3.6c0-2,1.6-3.6,3.6-3.6h34c2,0,3.6,1.6,3.6,3.6
		C112.6,64.9,111,66.5,108.9,66.5z"/>
	<path class="st3" d="M108.9,95.2h-34c-2,0-3.6-1.6-3.6-3.6c0-2,1.6-3.6,3.6-3.6h34c2,0,3.6,1.6,3.6,3.6
		C112.6,93.5,111,95.2,108.9,95.2z"/>
	<path class="st3" d="M108.9,123.8h-34c-2,0-3.6-1.6-3.6-3.6s1.6-3.6,3.6-3.6h34c2,0,3.6,1.6,3.6,3.6S111,123.8,108.9,123.8z"/>
	<path class="st3" d="M123.2,30.7H91.3v120.8h31.9c4,0,7.2-3.3,7.2-7.4v-15.4c0-0.6-0.1-1.1-0.4-1.6l-3.6-7.2l3.6-6.2
		c0.3-0.5,0.5-1.2,0.5-1.8V100c0-0.6-0.1-1.2-0.4-1.7l-3.6-6.7l3.6-6.7c0.3-0.5,0.4-1.1,0.4-1.7V71.4c0-0.6-0.1-1.2-0.4-1.7
		l-3.6-6.8l3.6-6.7c0.3-0.5,0.4-1.1,0.4-1.7V38.1C130.5,34,127.2,30.7,123.2,30.7z"/>
</g>
<g>
	<path class="st4" d="M108.9,59.3H91.3v7.3h17.6c2,0,3.6-1.6,3.6-3.6C112.6,60.9,111,59.3,108.9,59.3z"/>
	<path class="st4" d="M108.9,87.9H91.3v7.3h17.6c2,0,3.6-1.6,3.6-3.6C112.6,89.5,111,87.9,108.9,87.9z"/>
	<path class="st4" d="M108.9,116.6H91.3v7.3h17.6c2,0,3.6-1.6,3.6-3.6S111,116.6,108.9,116.6z"/>
</g>
<path class="st5" d="M112.3,341.2H72.8c-10,0-18.1-8.1-18.1-18.1v-8.4c0-3.3,1-6.6,2.9-9.3l0,0c1.9-2.7,2.9-6,2.9-9.3v-13.9
	c0-3.3-1-6.6-2.9-9.3l0,0c-1.9-2.7-2.9-6-2.9-9.3v-18.8c0-4.2,3.4-7.7,7.7-7.7h60.3c4.2,0,7.7,3.4,7.7,7.7v18.8c0,3.3-1,6.6-2.9,9.3
	l0,0c-1.9,2.7-2.9,6-2.9,9.3v13.9c0,3.3,1,6.6,2.9,9.3l0,0c1.9,2.7,2.9,6,2.9,9.3v8.4C130.4,333.1,122.3,341.2,112.3,341.2z"/>
<path class="st6" d="M106.4,358.9H78.7c-2.7,0-4.8-2.2-4.8-4.8v-12.9h37.4v12.9C111.3,356.8,109.1,358.9,106.4,358.9z"/>
<path class="st7" d="M73.8,341.2v9.7h11.1c0.7,0,1.5-0.4,1.8-1.1c0.7-1.6,3.1-2.7,5.8-2.7s5.1,1.1,5.8,2.7c0.3,0.7,1,1.1,1.8,1.1
	h11.1v-9.7H73.8z"/>
<path class="st8" d="M107,263.7c-1.2,0-2.1-0.9-2.3-2c-1-5.9-6-10.3-12.2-10.3s-11.2,4.5-12.2,10.3c-0.2,1.1-1.1,2-2.3,2h-3.8
	c-1.7,0-3,1.4-2.8,3.1l4.8,53.6c0.2,2.3,2.2,4.1,4.5,4.1h23.4c2.3,0,4.3-1.8,4.5-4.1l4.8-53.6c0.1-1.7-1.2-3.1-2.8-3.1H107z"/>
<path class="st9" d="M92.5,293.1c-0.3,0-0.7-0.1-1-0.3c-0.8-0.5-1.1-1.6-0.6-2.5c0.7-1.2,1.2-3,1.2-4.5c0-1,0.8-1.8,1.8-1.8
	s1.8,0.8,1.8,1.8c0,2.2-0.7,4.7-1.8,6.4C93.7,292.8,93.1,293.1,92.5,293.1z"/>
<path class="st5" d="M95.5,289.7c-0.5,0-1,0-1.5,0.1c-0.9,0.2-1.9,0.2-2.8,0c-0.5-0.1-1-0.1-1.5-0.1c-4.4,0-8,3.6-8,8
	c0,4.4,3.6,8,8,8c0.5,0,0.9,0,1.3-0.1c1-0.2,2.1-0.2,3.1,0c0.4,0.1,0.9,0.1,1.3,0.1c4.4,0,8-3.6,8-8
	C103.5,293.3,99.9,289.8,95.5,289.7z"/>
<path class="st10" d="M91.2,289.9c-0.5-0.1-1-0.1-1.5-0.1c-4.4,0-8,3.7-8,8.1c0,4.4,3.6,7.9,8,7.9c0.5,0,0.9,0,1.3-0.1
	c1-0.2,2.1-0.2,3.1,0c0.4,0.1,0.9,0.1,1.3,0.1c1.9,0,3.6-0.7,5-1.8C81.1,304.6,87.2,291.7,91.2,289.9z"/>
<path class="st7" d="M102.3,270.1H82.8c-0.9,0-1.6,0.7-1.6,1.6v4.4c0,0.9,0.7,1.6,1.6,1.6h19.4c0.9,0,1.6-0.7,1.6-1.6v-4.4
	C103.9,270.9,103.2,270.1,102.3,270.1z"/>
<path class="st11" d="M98.6,265.9c-1,0-1.8-0.8-1.8-1.8c0-2.4-1.9-4.3-4.3-4.3s-4.3,1.9-4.3,4.3c0,1-0.8,1.8-1.8,1.8
	c-1,0-1.8-0.8-1.8-1.8c0-4.3,3.5-7.8,7.8-7.8s7.8,3.5,7.8,7.8C100.4,265.1,99.6,265.9,98.6,265.9z"/>
<path class="st12" d="M96.4,316.6h-7.6c-1,0-1.8-0.8-1.8-1.8c0-1,0.8-1.8,1.8-1.8h7.6c1,0,1.8,0.8,1.8,1.8
	C98.1,315.8,97.3,316.6,96.4,316.6z"/>
<path class="st10" d="M62.4,237.3c-4.2,0-7.7,3.4-7.7,7.7v18.8c0,3.3,1,6.6,2.9,9.3l0,0c1.9,2.7,2.9,6,2.9,9.3v13.9
	c0,3.3-1,6.6-2.9,9.3c-1.9,2.7-2.9,6-2.9,9.3v8.4c0,10,8.1,18.1,18.1,18.1H85c-15.5-9.6-11.5-32.3-10-36c1.6-4.1,2.2-24.2-1.1-33.3
	c-3.1-8.4-2.6-25.9-2.4-34.6H62.4z"/>
<g class="st13">
	<path class="st14" d="M117.3,284.3c0,1,0.8,1.8,1.8,1.8h5.4v-3.6h-5.4C118.1,282.5,117.3,283.3,117.3,284.3z"/>
	<path class="st14" d="M119.1,294.1h5.4v-3.6h-5.4c-1,0-1.8,0.8-1.8,1.8C117.3,293.3,118.1,294.1,119.1,294.1z"/>
</g>
<g class="st13">
	<path class="st14" d="M67.8,284.3c0,1-0.8,1.8-1.8,1.8h-5.4v-3.6H66C67,282.5,67.8,283.3,67.8,284.3z"/>
	<path class="st14" d="M66,294.1h-5.4v-3.6H66c1,0,1.8,0.8,1.8,1.8C67.8,293.3,67,294.1,66,294.1z"/>
</g>
<path class="st10" d="M111.3,341.2H73.8v12.9c0,2.7,2.2,4.8,4.8,4.8h9.2c-3.5-2.1-6.2-7.2-7.3-11.1c-0.5-1.6,0.8-3.2,2.4-3.2h28.3
	L111.3,341.2L111.3,341.2z"/>
<path class="st15" d="M259.6,348.5c0,0-10.9,0.7-20.9-5.6c-10-6.3-18.6-29.8,1.7-45.6c20.3-15.9,25-24.8,25-24.8h6.7v76H259.6z"/>
<path class="st16" d="M262.6,336.1H250c0,0-10.3,0.7-20.1-5.1c2,5.4,5.3,9.7,8.8,11.9c10,6.3,20.9,5.6,20.9,5.6h12.5L262.6,336.1z"
	/>
<path class="st15" d="M296.4,348.5c0,0,10.9,0.7,20.9-5.6c10-6.3,18.6-29.8-1.7-45.6c-20.3-15.9-25.1-24.8-25.1-24.8h-6.7v76H296.4z
	"/>
<path class="st16" d="M321.3,302.8c4.2,13-2.2,26.2-9.3,30.7c-10,6.3-20.9,5.6-20.9,5.6h-7.2v9.5h12.5c0,0,10.9,0.7,20.9-5.6
	C326.1,337.4,334,318.1,321.3,302.8z"/>
<path class="st15" d="M278,352.7c24.5,0,34.1-17.4,30.9-36.5c-1.8-10.7-8.2-19.8-13.6-31.2c-7.6-15.9-10-32.4-10.8-40.3
	c-0.3-2.7-2.5-4.8-5.3-4.8h-2.4c-2.7,0-5,2.1-5.3,4.8c-0.8,7.9-3.2,24.4-10.8,40.3c-5.4,11.4-11.8,20.4-13.6,31.2
	C243.9,335.3,253.5,352.7,278,352.7z"/>
<path class="st16" d="M308.9,316.2c-1.1-6.4-3.7-12.1-6.9-18.1c0.3,1.2,0.6,2.4,0.8,3.6c3.2,19-6.4,36.5-30.9,36.5
	c-11.7,0-20-4-25.1-10.2c1.9,13.9,11.9,24.6,31.2,24.6C302.5,352.7,312.1,335.3,308.9,316.2z"/>
<path class="st15" d="M303.4,337.6c-3.5,2.5-3.3,7.7,0.4,9.9c13.8,8.4,32.1,6.6,44-5.4c11.9-11.9,13.7-30.2,5.4-44
	c-2.2-3.7-7.5-3.9-9.9-0.3L332.7,313c-3.6,5.2-8.1,9.7-13.3,13.4L303.4,337.6z"/>
<g>
	<path class="st16" d="M357,306.9c-0.7,8.2-4.1,16.2-10.4,22.5c-11.2,11.2-27.8,13.4-41.3,6.9l-1.9,1.3c-3.5,2.5-3.3,7.7,0.4,9.9
		c13.8,8.4,32.1,6.6,44-5.4C357.4,332.6,360.4,319,357,306.9z"/>
	<path class="st16" d="M261.3,359.1c-1.1,0-2-0.9-2-2c0-4.1,2.8-7.7,2.9-7.9c0.7-0.9,1.9-1,2.8-0.4c0.9,0.7,1,1.9,0.4,2.8
		c0,0-2.1,2.8-2.1,5.5C263.3,358.2,262.4,359.1,261.3,359.1z"/>
	<path class="st16" d="M294.7,359.1c-1.1,0-2-0.9-2-2c0-2.7-2.1-5.4-2.1-5.5c-0.7-0.9-0.5-2.1,0.4-2.8c0.9-0.7,2.1-0.5,2.8,0.4
		c0.1,0.2,2.9,3.8,2.9,7.9C296.7,358.2,295.8,359.1,294.7,359.1z"/>
	<path class="st16" d="M278,360.5c-1.1,0-2-0.9-2-2v-5.8c0-1.1,0.9-2,2-2c1.1,0,2,0.9,2,2v5.8C280,359.6,279.1,360.5,278,360.5z"/>
	<path class="st16" d="M285.8,358.6c-1.1,0-2-0.9-2-2c0-1.6-0.8-3.2-0.9-3.2c-0.5-1-0.2-2.2,0.7-2.7c0.9-0.5,2.2-0.2,2.7,0.7
		c0.1,0.2,1.4,2.5,1.4,5.2C287.8,357.7,286.9,358.6,285.8,358.6z"/>
	<path class="st16" d="M270.2,358.6c-1.1,0-2-0.9-2-2c0-2.7,1.2-4.9,1.4-5.2c0.5-1,1.8-1.3,2.7-0.7c0.9,0.5,1.3,1.7,0.7,2.7
		c0,0.1-0.9,1.6-0.9,3.2C272.2,357.7,271.3,358.6,270.2,358.6z"/>
</g>
<g id="XMLID_1753_">
	<circle id="XMLID_1754_" class="st17" cx="310.6" cy="85.6" r="23.1"/>
	<circle id="XMLID_1755_" class="st8" cx="310.6" cy="85.6" r="11.6"/>
	<polygon id="XMLID_1756_" class="st18" points="310.6,74.1 310.6,62.5 310.6,47.1 275.9,47.1 287.4,66.4 287.4,74.1 299,77.9 	"/>
	<polygon id="XMLID_1757_" class="st19" points="310.6,47.1 299,50.9 287.4,47.1 287.4,31.7 310.6,31.7 	"/>
	<rect id="XMLID_1758_" x="287.4" y="31.7" class="st20" width="11.6" height="15.4"/>
	<polygon id="XMLID_1759_" class="st21" points="306.7,58.7 291.3,58.7 287.4,47.1 310.6,47.1 	"/>
	<polygon id="XMLID_1760_" class="st19" points="299,58.7 291.3,58.7 287.4,47.1 299,47.1 	"/>
	<path id="XMLID_1761_" class="st22" d="M318.3,108.7c-4.3-3.9-7.7-5.7-7.7-14.8V74.1H299h-11.6v19.8c0,9.1-3.4,11-7.7,14.8
		c-6.1,5.4-11.6,13.6-11.6,21.3c0,15.4,11.6,23.1,30.8,23.1c19.3,0,30.8-7.7,30.8-23.1C329.8,122.3,324.3,114.1,318.3,108.7z"/>
	<path id="XMLID_1762_" class="st23" d="M299,74.1h-11.6v19.8c0,9.1-3.4,11-7.7,14.8c-6.1,5.4-11.6,13.6-11.6,21.3
		c0,15.4,11.6,23.1,30.8,23.1C299,136.5,299,74.1,299,74.1z"/>
	<path id="XMLID_1763_" class="st24" d="M322.1,153.1c0,3.2-2.6,5.8-5.8,5.8h-34.7c-3.2,0-5.8-2.6-5.8-5.8l0,0
		c0-3.2,2.6-5.8,5.8-5.8h34.7C319.5,147.3,322.1,149.9,322.1,153.1L322.1,153.1z"/>
	<path id="XMLID_1764_" class="st22" d="M299,147.3h-17.4c-3.2,0-5.8,2.6-5.8,5.8c0,3.2,2.6,5.8,5.8,5.8H299V147.3z"/>
</g>
</svg>
