<svg height="472pt" viewBox="0 -76 472 472" width="472pt" xmlns="http://www.w3.org/2000/svg"><path d="m464 200c-4.417969 0-8-3.582031-8-8v-88c0-4.417969-3.582031-8-8-8h-24v-16h24c13.253906 0 24 10.746094 24 24v88c0 4.417969-3.582031 8-8 8zm0 0" fill="#6b3617"/><path d="m438.398438 212.800781c-4.027344-3.023437-6.398438-7.765625-6.398438-12.800781v-88c0-35.347656-28.652344-64-64-64h-118.59375c-11.507812 0-22.925781-2.070312-33.703125-6.113281l-31.40625-11.773438c-10.777344-4.042969-22.195313-6.113281-33.703125-6.113281h-62.59375v24h-65.441406c-3.804688-.003906-7.085938 2.671875-7.847656 6.398438l-13.109376 65.761718c-.886718 4.328125 1.90625 8.558594 6.238282 9.441406l21.191406 4.238282c6.957031 1.390625 14.167969-.367188 19.703125-4.800782l31.265625-25.039062 16 128v88h32l16-88h99.558594c14.355468-.273438 28.363281-4.4375 40.53125-12.054688 13.0625-7.816406 28.003906-11.945312 43.230468-11.945312h28.0625c5.148438 7.554688 11.863282 13.910156 19.6875 18.640625l48.929688 29.359375-16 64h32l24-88zm0 0" fill="#995023"/><path d="m432 200v-88c-.011719-7.507812-1.355469-14.953125-3.960938-21.992188-94.152343 65.367188-244.589843 78.886719-339.757812 80.222657l7.71875 61.769531v88h32l16-88h99.558594c14.355468-.273438 28.363281-4.4375 40.53125-12.054688 13.0625-7.816406 28.003906-11.945312 43.230468-11.945312h28.0625c5.148438 7.554688 11.863282 13.910156 19.6875 18.640625l48.929688 29.359375-16 64h32l24-88-25.601562-19.199219c-4.027344-3.023437-6.398438-7.765625-6.398438-12.800781zm0 0" fill="#8a461c"/><path d="m64 48v-8c0-13.253906-10.746094-24-24-24h-24l-16-16v24c0 13.253906 10.746094 24 24 24zm0 0" fill="#6b3617"/><path d="m96 40c0-13.253906-10.746094-24-24-24h-24l-16-16v24c0 13.253906 10.746094 24 24 24h40zm0 0" fill="#8a461c"/><g fill="#6b3617"><path d="m144 240c-4.417969 0-8-3.582031-8-8v-40h16v40c0 4.417969-3.582031 8-8 8zm0 0"/><path d="m354.894531 208.238281c-1.691406 1.148438-3.792969 1.519531-5.777343 1.023438-1.984376-.496094-3.664063-1.8125-4.621094-3.621094-5.585938-10.417969-8.503906-22.054687-8.496094-33.871094v-27.769531h16v27.769531c-.011719 9.253907 2.28125 18.367188 6.671875 26.519531 1.597656 3.164063.566406 7.027344-2.398437 8.976563zm0 0"/></g></svg>