<?xml version="1.0" encoding="iso-8859-1"?>
<!-- Generator: Adobe Illustrator 19.0.0, SVG Export Plug-In . SVG Version: 6.00 Build 0)  -->
<svg version="1.1" id="Capa_1" xmlns="http://www.w3.org/2000/svg" xmlns:xlink="http://www.w3.org/1999/xlink" x="0px" y="0px"
	 viewBox="0 0 512 512" style="enable-background:new 0 0 512 512;" xml:space="preserve">
<path style="fill:#3D9AE2;" d="M512,133.892v244.217c0,5.975-4.849,10.824-10.824,10.824H133.475V123.068h367.702
	c2.982,0,5.694,1.21,7.654,3.17C510.79,128.198,512,130.909,512,133.892z"/>
<path style="fill:#78B9EB;" d="M378.525,135.581v240.838c0,6.914-5.6,12.513-12.513,12.513H12.524C5.61,388.932,0,383.333,0,376.419
	V135.581c0-6.914,5.61-12.513,12.524-12.513h353.489C372.926,123.068,378.525,128.667,378.525,135.581z"/>
<path style="fill:#3D9AE2;" d="M512,356.919v21.189c0,5.975-4.849,10.824-10.824,10.824H12.513C5.6,388.932,0,383.333,0,376.419
	V135.591c0-6.914,5.61-12.524,12.524-12.524h42.754c-6.914,0-12.524,5.6-12.524,12.513v200.337c0,11.596,9.406,21.001,21.001,21.001
	L512,356.919L512,356.919z"/>
<path style="fill:#1E81CE;" d="M378.525,356.919v19.5c0,6.914-5.6,12.513-12.513,12.513h135.164c5.975,0,10.824-4.849,10.824-10.824
	v-21.189H378.525z"/>
<path style="fill:#FFD422;" d="M378.525,204.685v102.629h-94.264c-4.914,0-9.59,2.272-12.497,6.234
	c-18.293,24.935-47.797,41.129-81.085,41.129c-33.297,0-62.802-16.194-81.087-41.129c-2.905-3.961-7.581-6.234-12.493-6.234H0
	V204.685h94.562c5.095,0,9.921-2.459,12.771-6.682c18.052-26.746,48.644-44.341,83.349-44.341c34.695,0,65.287,17.595,83.346,44.341
	c2.852,4.223,7.678,6.682,12.774,6.682H378.525z"/>
<g>
	<path style="fill:#FF9811;" d="M54.572,229.986c0-2.648,2.812-3.972,5.626-3.972h16.963c8.274,0,16.548,2.978,16.548,14.727
		c0,6.702-2.648,11.088-7.033,12.991c5.048,1.903,8.523,4.965,8.523,13.238v1.738c0,13.072-7.281,17.789-16.63,17.789H60.198
		c-3.475,0-5.626-1.821-5.626-3.888V229.986z M67.396,248.767h8.687c3.145,0,4.716-2.896,4.716-5.709
		c0-2.896-1.573-5.792-4.716-5.792h-8.687V248.767z M75.67,275.244c4.138,0,6.62-2.317,6.62-7.612v-1.324
		c0-5.627-2.482-7.612-6.62-7.612h-8.274v16.548h8.274V275.244z"/>
	<path style="fill:#FF9811;" d="M130.444,229.904c0-2.731,3.144-3.888,6.453-3.888c3.145,0,6.454,1.157,6.454,3.888v37.564
		c0,14.231-9.185,19.527-20.85,19.527c-11.75,0-20.85-5.295-20.85-19.527v-37.564c0-2.731,3.144-3.889,6.453-3.889
		c3.145,0,6.454,1.157,6.454,3.889v37.564c0,5.627,2.978,8.274,7.943,8.274c4.965,0,7.943-2.648,7.943-8.274v-37.564H130.444z"/>
	<path style="fill:#FF9811;" d="M187.864,226.015c2.73,0,3.888,2.978,3.888,5.709c0,3.144-1.408,5.875-3.888,5.875h-11.418v44.927
		c0,2.648-3.226,3.972-6.453,3.972c-3.226,0-6.454-1.324-6.454-3.972v-44.927h-11.417c-2.483,0-3.888-2.731-3.888-5.875
		c0-2.73,1.159-5.709,3.888-5.709L187.864,226.015L187.864,226.015z"/>
	<path style="fill:#FF9811;" d="M232.709,226.015c2.73,0,3.888,2.978,3.888,5.709c0,3.144-1.407,5.875-3.888,5.875H221.29v44.927
		c0,2.648-3.227,3.972-6.453,3.972c-3.227,0-6.454-1.324-6.454-3.972v-44.927h-11.417c-2.483,0-3.888-2.731-3.888-5.875
		c0-2.73,1.157-5.709,3.888-5.709L232.709,226.015L232.709,226.015z"/>
	<path style="fill:#FF9811;" d="M254.633,251.25h12.411c2.483,0,3.888,2.399,3.888,5.047c0,2.235-1.159,4.882-3.888,4.882h-12.411
		v14.066h22.176c2.482,0,3.888,2.648,3.888,5.709c0,2.648-1.157,5.543-3.888,5.543h-29.456c-2.812,0-5.626-1.324-5.626-3.972
		v-52.539c0-2.648,2.812-3.972,5.626-3.972h29.456c2.73,0,3.888,2.896,3.888,5.543c0,3.062-1.407,5.709-3.888,5.709h-22.176
		L254.633,251.25L254.633,251.25z"/>
	<path style="fill:#FF9811;" d="M286.324,229.904c0-2.069,1.571-3.888,3.972-3.888h17.126c11.336,0,20.355,4.219,20.355,17.705
		c0,9.267-4.22,14.562-10.013,16.796l10.095,18.285c0.331,0.497,0.413,1.076,0.413,1.49c0,3.226-4.302,6.702-8.108,6.702
		c-1.655,0-3.227-0.662-4.138-2.399l-11.335-22.009h-5.461v19.941c0,2.648-3.226,3.972-6.453,3.972s-6.453-1.324-6.453-3.972
		v-52.622H286.324z M299.23,237.268v15.389h8.191c4.633,0,7.447-1.903,7.447-7.695s-2.813-7.695-7.447-7.695H299.23z"/>
</g>
<rect y="204.685" style="fill:#EEBF00;" width="42.754" height="102.629"/>
<path style="fill:#1A6FB0;" d="M512,133.892v0.49l-58.916,61.68v192.871h-15.642V196.062l-58.969-61.638
	c-0.532-5.808-5.026-10.459-10.751-11.241l-0.115-0.115h21.742l55.913,58.541l55.913-58.541c2.982,0,5.694,1.21,7.654,3.17
	C510.79,128.198,512,130.909,512,133.892z"/>
<rect x="437.442" y="356.919" style="fill:#165C92;" width="15.642" height="32.013"/>
<g>
</g>
<g>
</g>
<g>
</g>
<g>
</g>
<g>
</g>
<g>
</g>
<g>
</g>
<g>
</g>
<g>
</g>
<g>
</g>
<g>
</g>
<g>
</g>
<g>
</g>
<g>
</g>
<g>
</g>
</svg>
