<?xml version="1.0" encoding="utf-8"?>
<!-- Generator: Adobe Illustrator 24.1.3, SVG Export Plug-In . SVG Version: 6.00 Build 0)  -->
<svg version="1.1" id="Layer_1" xmlns="http://www.w3.org/2000/svg" xmlns:xlink="http://www.w3.org/1999/xlink" x="0px" y="0px"
	 viewBox="0 0 400.5 400" style="enable-background:new 0 0 400.5 400;" xml:space="preserve">
<style type="text/css">
	.st0{fill:#F05446;}
	.st1{fill:#F2685C;}
	.st2{fill:#7AAE53;}
	.st3{fill:#6A9C45;}
	.st4{fill:#E54D3E;}
	.st5{fill:#E04738;}
	.st6{fill:#F5F1F0;}
	.st7{fill:#EAE0DE;}
	.st8{fill:#776F6F;}
	.st9{fill:#5C5656;}
	.st10{fill:#F8F2F1;}
	.st11{fill:#F3EAE5;}
	.st12{fill:#F04A58;}
	.st13{fill-rule:evenodd;clip-rule:evenodd;fill:#25AE5F;}
	.st14{fill-rule:evenodd;clip-rule:evenodd;fill:#4E8157;}
	.st15{fill-rule:evenodd;clip-rule:evenodd;fill:#50BA6F;}
	.st16{fill-rule:evenodd;clip-rule:evenodd;fill:#71C386;}
</style>
<g id="Flat_1_">
	<path class="st0" d="M317.8,90.9c0,18.2-14.8,33-33,33h-17.6c-18.2,0-33-14.8-33-33s14.8-33,33-33h17.6
		C303.1,57.9,317.8,72.6,317.8,90.9z"/>
	<path class="st1" d="M247.6,80.9l-3.9-2c0.9-1.7,1.9-3.3,3.2-4.8l3.4,2.8C249.3,78.1,248.4,79.4,247.6,80.9L247.6,80.9z"/>
	<path class="st1" d="M245.1,105.3c-4.2-6.4-5.4-14.3-3.3-21.6l4.2,1.2c-1.7,6.1-0.7,12.7,2.7,18L245.1,105.3z"/>
	<path class="st2" d="M280.4,53.5l13.2-6.6l-8.8,15.4l11,11l-15.4-2.2L276,84.3l-4.4-13.2l-15.4,2.2l11-11l-8.8-15.4l13.2,6.6v-5.9
		c0-8.3,5.3-15.7,13.2-18.3l2.2,6.6c-4.1,2.7-6.6,7.4-6.6,12.3V53.5z"/>
	<path class="st3" d="M280.4,60.1c-1.2,0-2.2-1-2.2-2.2v-4.4c0-1.2,1-2.2,2.2-2.2s2.2,1,2.2,2.2v4.4
		C282.6,59.1,281.7,60.1,280.4,60.1z"/>
	<path class="st3" d="M271.6,60.1c-1.2,0-2.2-1-2.2-2.2v-4.4c0-1.2,1-2.2,2.2-2.2s2.2,1,2.2,2.2v4.4
		C273.8,59.1,272.9,60.1,271.6,60.1z"/>
	<path class="st4" d="M317.8,90.9c0,18.2-14.8,33-33,33h-17.6c-11.6,0-22.3-6-28.2-15.9c33.4-1.4,56.9-12.8,71-38.4
		C315.1,75.5,317.8,83,317.8,90.9L317.8,90.9z"/>
	<path class="st1" d="M361.8,123.9c0,18.2-14.8,33-33,33h-17.6c-18.2,0-33-14.8-33-33s14.8-33,33-33h17.6
		C347.1,90.9,361.8,105.6,361.8,123.9z"/>
	<g>
		<path class="st5" d="M310.1,108.5c3,0,5.5,2.5,5.5,5.5v-10.2c0-2.3-1.8-4.1-4.1-4.1h-0.3c-13.4,0-24.2,10.9-24.2,24.3
			c0,0.1,0,0.1,0,0.2c0.1,13.3,11.2,24,24.5,24c2.3,0,4.1-1.8,4.1-4.1c0,0,0,0,0,0v-12.4c0,3-2.5,5.5-5.5,5.5c-3,0-5.5-2.5-5.5-5.5
			c0-1.2,0.4-2.4,1.1-3.3h0c-3,0-5.5-2.5-5.5-5.5s2.5-5.5,5.5-5.5h0c-1.8-2.4-1.3-5.9,1.1-7.7C307.8,108.8,308.9,108.5,310.1,108.5
			L310.1,108.5z"/>
		<path class="st5" d="M328.5,99.7c-2.3,0-4.1,1.8-4.1,4.1V114c0-3,2.5-5.5,5.5-5.5c3,0,5.5,2.5,5.5,5.5c0,1.2-0.4,2.4-1.1,3.3h0
			c3,0,5.5,2.5,5.5,5.5s-2.5,5.5-5.5,5.5h0c1.8,2.4,1.3,5.9-1.1,7.7c-2.4,1.8-5.9,1.3-7.7-1.1c-0.7-1-1.1-2.1-1.1-3.3V144
			c0,2.3,1.8,4.1,4.1,4.1h0.3c13.4,0,24.2-10.9,24.2-24.3c0-0.1,0-0.1,0-0.2C352.9,110.3,341.9,99.7,328.5,99.7z"/>
	</g>
</g>
<g>
	<g>
		<path class="st6" d="M19.7,326.7c0,33.2,37.8,42.2,84.4,42.2l9.3-60.2l-9.3-59.9C57.5,248.9,19.7,293.6,19.7,326.7z"/>
		<path class="st7" d="M104,248.9v120.1c46.6,0,84.4-9,84.4-42.2S150.6,248.9,104,248.9L104,248.9z"/>
	</g>
	<g>
		<g>
			<g>
				<path class="st6" d="M110,337.9c0,24.4,27.8,31,62.1,31l16.3-41.5l-16.3-46.8C137.8,280.6,110,313.5,110,337.9L110,337.9z"/>
				<path class="st7" d="M172.1,280.6v88.4c34.3,0,62.1-6.6,62.1-31C234.2,313.5,206.4,280.6,172.1,280.6L172.1,280.6z"/>
			</g>
		</g>
		<g>
			<path class="st7" d="M65.1,280.4h12.6V293H65.1L65.1,280.4z"/>
		</g>
		<g>
			<path class="st7" d="M45.1,302.4h12.6V315H45.1V302.4z"/>
		</g>
	</g>
</g>
<g>
	<path class="st8" d="M355.7,362.8c6.8-5.8,11.1-14.1,11.1-23.2c0-14-9.9-25.9-23.8-30.2c1.3-0.4,2.1-1.6,2.1-3.1
		c0-1.8-1.4-3.2-3.2-3.2h-1.5v-19.9h-18v19.9h-1.5c-1.8,0-3.2,1.4-3.2,3.2c0,1.5,0.7,2.7,2.1,3.1c-13.8,4.4-23.8,16.2-23.8,30.2
		c0,9.1,4.2,17.4,11.1,23.2c-1.3,0.3-2.3,1.6-2.3,3c0,1.7,1.4,3.1,3.1,3.1h47.2c1.7,0,3.1-1.4,3.1-3.1
		C358,364.4,357,363.2,355.7,362.8z"/>
	<path class="st9" d="M355.7,362.8c6.8-5.8,11.1-14.1,11.1-23.2c0-14-9.9-25.9-23.8-30.2c1.3-0.4,2.1-1.6,2.1-3.1
		c0-1.8-1.4-3.2-3.2-3.2h-1.5v-19.9l-9.8,0.4v19.5h1.5c1.8,0,3.2,1.4,3.2,3.2c0,1.5-0.7,2.7-2.1,3.1c13.8,4.4,23.8,16.2,23.8,30.2
		c0,9.1-4.2,17.4-11.1,23.2c1.3,0.3,2.3,1.6,2.3,3c0,1.7-1.4,3.1-3.1,3.1h9.8c1.7,0,3.1-1.4,3.1-3.1
		C358,364.4,357,363.2,355.7,362.8L355.7,362.8z"/>
	<g>
		<path class="st10" d="M322.3,252.6h18v30.6h-18V252.6z"/>
	</g>
	<path class="st11" d="M330.5,252.6h9.8v30.6h-9.8V252.6z"/>
	<path class="st12" d="M340.5,262.4H322c-1.4,0-2.4-1.1-2.4-2.4v-6.3c0-3.3,2.6-5.9,5.9-5.9h11.6c3.3,0,5.9,2.6,5.9,5.9v6.3
		C343,261.3,341.9,262.4,340.5,262.4z"/>
	<ellipse class="st10" cx="331.3" cy="339" rx="19.9" ry="19.9"/>
	<g>
		<path class="st12" d="M341.7,339.6h-20.9c-1,0-1.8,0.8-1.8,1.8c0,1,0.8,1.8,1.8,1.8h20.9c1,0,1.8-0.8,1.8-1.8
			C343.6,340.5,342.8,339.6,341.7,339.6z"/>
		<path class="st12" d="M326.1,334.8h10.4c1,0,1.8-0.8,1.8-1.8c0-1-0.8-1.8-1.8-1.8h-10.4c-1,0-1.8,0.8-1.8,1.8
			C324.2,334,325.1,334.8,326.1,334.8z"/>
	</g>
</g>
<g id="Page-1">
	<g id="_x30_57---Basil" transform="translate(-1)">
		<path id="Path" class="st13" d="M108.4,73.4c0.1,0,0.1,0,0.2-0.1l0,0.1c7.7,0.1,24.6,3,31.9,26.4c4.7,15.2,2.5,33.2-1,47.6
			c-0.3,1.2-1.4,1.9-2.6,1.8c-15.5-1.7-47.9-9.8-56.9-47.2l5.9-26.7c0,0,0.1,0,0.1,0L108.4,73.4z"/>
		<path id="Path_1_" class="st14" d="M135.3,117.6l-10.7-3.1c-0.2-0.5-0.5-0.9-0.7-1.4c-1.5-2.7-3.1-5.4-4.8-8.1l11.2,1.9
			c0.7,0.1,1.5-0.1,2-0.7c0.5-0.6,0.6-1.4,0.4-2.1c-0.3-0.7-0.9-1.2-1.7-1.3l-15.2-2.5c-2.4-3.3-4.9-6.5-7.7-9.6l15.2,1.7
			c0.7,0.1,1.5-0.2,1.9-0.8c0.4-0.6,0.5-1.4,0.2-2.1c-0.3-0.7-0.9-1.2-1.7-1.2l-20.1-2.2c-5.8-5.8-12.4-10.6-19.7-14.2
			c-0.7-0.4-1.5-0.3-2.1,0.1c-0.6,0.4-1,1.2-0.9,1.9c0.1,0.8,0.5,1.4,1.2,1.8c6.6,3.3,12.6,7.6,17.8,12.8l-4.5,18.1
			c-0.3,1.1,0.4,2.3,1.5,2.6c0.2,0,0.3,0.1,0.5,0.1c1,0,1.8-0.7,2-1.6l3.9-15.6c3,3.3,5.9,6.7,8.5,10.3l-4.4,14.9
			c-0.3,1.1,0.3,2.3,1.4,2.6c1.1,0.3,2.3-0.3,2.6-1.4l3.4-11.6c1.9,2.9,3.7,5.8,5.3,8.7c0.2,0.3,0.4,0.7,0.6,1l-2.8,11.3
			c-0.1,0.5,0,1.1,0.2,1.6c0.3,0.5,0.8,0.8,1.3,1c0.2,0,0.3,0.1,0.5,0.1c1,0,1.8-0.7,2-1.6l1.6-6.6c1.9,3.8,3.5,7.7,4.9,11.6
			c0.4,1.1,1.6,1.7,2.7,1.3c1.1-0.4,1.7-1.6,1.3-2.7c-1.5-4.3-3.3-8.5-5.3-12.6l6.9,2c1.1,0.3,2.3-0.3,2.6-1.4
			C137.1,119.1,136.4,117.9,135.3,117.6L135.3,117.6z"/>
		<path id="Path_2_" class="st15" d="M85.9,75.2c0.7,9.3-1.3,18.6-5.9,26.7c-2.3,3.8-5.2,7.1-8.7,9.7c-8,6-23.2,8.6-38,9.7
			c-1.2,0.1-2.2-0.7-2.5-1.8c-3.1-12.3-1.3-25.3,4.9-36.3c2.6-4.7,6.1-8.8,10.2-12.2c7.3-5.8,16.8-8.1,25.9-6.3
			c0.3,0,0.7,0.1,0.9,0.2c0.9,0.2,1.9,0.4,2.8,0.7L85.9,75.2z"/>
		<path id="Path_3_" class="st16" d="M135.1,30.8c-0.8,7.8-5.1,34.2-26.5,42.5c-0.1,0-0.1,0.1-0.2,0.1c-7.2,2.5-14.9,3.2-22.3,1.8
			c-0.1,0-0.1,0-0.1,0c-3-0.4-6-1.1-9-1.9c-0.6-2.6-1.1-5.1-1.4-7.8c-0.5-3.7-0.5-7.4-0.1-11c0-0.1,0-0.1,0-0.2
			c0.2-2.1,0.7-4.3,1.4-6.3v0c8.4-25.8,46.8-21.3,56.4-19.8C134.4,28.4,135.2,29.5,135.1,30.8L135.1,30.8z"/>
		<path id="Path_4_" class="st14" d="M78.9,74c1.3-3.6,7-9.2,10.7-12.6l14.2,4.7c0.7,0.2,1.5,0.1,2.1-0.4c0.6-0.5,0.8-1.3,0.7-2
			c-0.2-0.7-0.7-1.3-1.4-1.6l-11.9-4c3.5-3,7.3-5.8,11.2-8.4l11.2,4.5c0.2,0.1,0.5,0.1,0.8,0.1c1,0,1.9-0.7,2.1-1.7
			c0.2-1-0.4-2-1.3-2.4l-8.4-3.3c4.3-2.6,8.6-4.9,13.2-7c1-0.5,1.5-1.7,1-2.7c-0.5-1-1.7-1.5-2.7-1.1c-4.7,2.1-9.2,4.6-13.7,7.2
			v-7.7c0-1.2-0.9-2.1-2.1-2.1s-2.1,0.9-2.1,2.1v10.4c-3.5,2.3-6.8,4.7-10,7.3V42.8c0-1.2-0.9-2.1-2.1-2.1s-2.1,0.9-2.1,2.1V57
			c-5.3,4.9-10.7,10.3-12.8,14.6c-3.1,1.3-6,2.9-8.9,4.6H49.9c-1.2,0-2.1,0.9-2.1,2.1s0.9,2.1,2.1,2.1h10.2c-4,2.9-7.6,6.3-10.8,10
			h-8.9c-1.2,0-2.1,0.9-2.1,2.1c0,1.2,0.9,2.1,2.1,2.1H46c-3.1,4.2-5.6,8.9-7.5,13.7c-0.2,0.5-0.2,1.1,0,1.6
			c0.2,0.5,0.6,0.9,1.2,1.1c0.2,0.1,0.5,0.2,0.8,0.2c0.9,0,1.6-0.5,2-1.3c2.1-5.2,4.8-10,8.2-14.4l1.9,11.6c0.2,1,1,1.8,2.1,1.8
			c0.1,0,0.2,0,0.3,0c1.1-0.2,1.9-1.3,1.7-2.4l-2.4-14.2c0-0.3-0.1-0.5-0.3-0.7c3.2-3.5,6.9-6.6,10.9-9.3l1.9,13
			c0.1,1,1,1.8,2.1,1.8c0.1,0,0.2,0,0.3,0c0.6-0.1,1.1-0.4,1.4-0.8c0.3-0.4,0.5-1,0.4-1.6l-2.1-14.9c2.8-1.7,5.8-3.3,8.9-4.6
			C78.3,75,78.7,74.6,78.9,74L78.9,74z"/>
	</g>
</g>
</svg>
