<svg id="Capa_1" enable-background="new 0 0 512.113 512.113" height="512" viewBox="0 0 512.113 512.113" width="512" xmlns="http://www.w3.org/2000/svg"><path d="m511.642 14.405.471-14.348-14.348.471c-2.098.069-51.766 2.063-84.499 34.796-10.486 10.486-17.814 22.71-22.938 34.551-4.208-10.402-10.494-19.955-18.668-28.129l-10.624-10.624-29.596 29.596c-16.012 16.011-24.83 37.301-24.83 59.945 0 17.55 5.318 34.274 15.156 48.37l.186.186-26.123 27.161 21.658 20.831 25.754-26.777c14.049 9.738 30.686 15.004 48.144 15.004 22.644 0 43.933-8.818 59.945-24.83l29.597-29.595-10.625-10.624c-8.248-8.248-17.788-14.433-27.973-18.562 11.831-5.123 24.041-12.447 34.517-22.923 32.733-32.734 34.727-82.402 34.796-84.499z" fill="#97de3d"/><path d="m317.487 217.211 25.754-26.777c14.049 9.738 30.686 15.004 48.144 15.004 22.644 0 43.933-8.818 59.945-24.83l29.597-29.595-10.625-10.624c-8.248-8.248-17.788-14.433-27.973-18.562 11.831-5.123 24.041-12.447 34.517-22.923 32.733-32.734 34.727-82.401 34.796-84.499l.471-14.348-206.109 206.109z" fill="#59c36a"/><path d="m16.646 512.056c-4.549 0-8.711-1.707-11.772-4.841-9.93-10.167-2.277-24.706 1.835-32.518 4.364-8.29 11.06-19.118 20.472-33.103 15.624-23.214 38.275-54.384 67.321-92.643 49.875-65.692 105.574-134.971 116.752-147.896 12.794-14.796 30.584-23.723 50.093-25.138 19.512-1.423 38.401 4.852 53.197 17.646 30.542 26.411 33.904 72.747 7.493 103.29-13.297 15.376-96.641 77.796-149.416 116.002-36.993 26.779-70.106 49.93-95.76 66.95-48.068 31.89-54.494 32.085-59.657 32.242-.189.007-.374.009-.558.009z" fill="#fd8f24"/><path d="m201.335 270.447 25.766-15.461c-9.878-16.463-24.907-23.705-38.144-26.748-6.567 8.15-14.186 17.676-22.503 28.155 4.907-.41 25.74-1.182 34.881 14.054z" fill="#fdb55d"/><path d="m167.286 311.105 25.766-15.461c-7.428-12.379-19.138-21.242-33.864-25.63-.97-.289-1.933-.545-2.891-.786-6.953 8.81-14.251 18.107-21.723 27.689 7.96-.314 24.661.768 32.712 14.188z" fill="#fdb55d"/><path d="m316.67 195.5-311.755 311.754c3.057 3.108 7.201 4.802 11.73 4.802.184 0 .37-.003.556-.009 5.163-.157 11.589-.352 59.657-32.242 25.654-17.021 58.768-40.172 95.76-66.95 52.776-38.206 136.119-100.625 149.416-116.002 25.782-29.813 23.179-74.664-5.364-101.353z" fill="#fc6533"/></svg>