<svg id="Layer_1" enable-background="new 0 0 512 512" height="512" viewBox="0 0 512 512" width="512" xmlns="http://www.w3.org/2000/svg"><path d="m303.079 70.479h-94.571c-33.256 67.827-41.188 84.007-55.122 112.423-10.241 20.886-15.59 44.085-15.59 67.627v228.035c0 18.466 14.115 33.436 31.527 33.436h173.351c17.412 0 31.527-14.97 31.527-33.436v-227.858c0-23.656-5.399-46.961-15.736-67.924-7.317-14.843-14.784-29.981-55.386-112.303z" fill="#cde2ff"/><path d="m205.377 512h-36.056c-17.41 0-31.524-14.969-31.524-33.44v-228.03c0-23.54 5.347-46.739 15.587-67.631 13.938-28.412 21.871-44.597 55.125-112.424h36.056c-33.254 67.827-41.187 84.011-55.125 112.424-10.24 20.892-15.587 44.092-15.587 67.631v228.03c0 18.471 14.114 33.44 31.524 33.44z" fill="#c0dbff"/><path d="m343.298 250.705v227.907c-.01 1.391-1.216 2.483-2.606 2.483h-169.383c-1.391 0-2.596-1.092-2.606-2.483v-228.082c0-18.749 4.296-37.426 12.434-54.023l28.626-58.386c1.096-2.235 3.364-3.66 5.853-3.689 15.432-.178 28.067-.841 41.074 10.679 7.49 6.651 17.448 10.642 28.072 10.642h21.829c2.502 0 4.791 1.423 5.905 3.663 19.199 38.604 30.802 57.255 30.802 91.289z" fill="#fff5f4"/><path d="m305.542 71.508h-99.085c-10.249 0-18.557-8.308-18.557-18.557v-34.394c.001-10.249 8.309-18.557 18.558-18.557h99.085c10.249 0 18.557 8.308 18.557 18.557v34.394c-.001 10.249-8.309 18.557-18.558 18.557z" fill="#62a6fd"/><path d="m242.515 71.505h-36.056c-10.25 0-18.553-8.303-18.553-18.554v-34.397c-.001-10.251 8.302-18.554 18.552-18.554h36.056c-10.25 0-18.553 8.303-18.553 18.554v34.398c0 10.25 8.304 18.553 18.554 18.553z" fill="#4394fb"/><path d="m343.298 250.705v227.907c-.01 1.391-1.216 2.483-2.606 2.483h-169.383c-1.391 0-2.596-1.092-2.606-2.483v-228.082c0-18.749 4.296-37.426 12.434-54.023l28.629-58.391c1.092-2.235 3.358-3.657 5.851-3.688 11.136-.124 20.82-.505 30.236 3.637 3.626 1.576 7.221 3.843 10.837 7.046 7.489 6.655 17.451 10.642 28.072 10.642h21.829c2.504 0 4.79 1.422 5.903 3.667 19.204 38.601 30.804 57.248 30.804 91.285z" fill="#ebe0da"/><path d="m343.298 250.705v227.907c-.01 1.391-1.216 2.483-2.606 2.483h-133.327c-1.391 0-2.596-1.092-2.606-2.483v-228.082c0-18.749 4.296-37.426 12.434-54.023l28.629-58.391c.01-.021.021-.031.031-.051 3.626 1.576 7.221 3.843 10.837 7.046 7.489 6.655 17.451 10.642 28.072 10.642h21.829c2.504 0 4.79 1.422 5.903 3.667 19.204 38.601 30.804 57.248 30.804 91.285z" fill="#fff5f4"/></svg>