<?xml version="1.0" encoding="iso-8859-1"?>
<!-- Generator: Adobe Illustrator 19.0.0, SVG Export Plug-In . SVG Version: 6.00 Build 0)  -->
<svg version="1.1" id="Capa_1" xmlns="http://www.w3.org/2000/svg" xmlns:xlink="http://www.w3.org/1999/xlink" x="0px" y="0px"
	 viewBox="0 0 512 512" style="enable-background:new 0 0 512 512;" xml:space="preserve">
<path style="fill:#EA5E57;" d="M339.112,437.159H172.888c-41.961,0-75.976-34.016-75.976-75.976v-35.325
	c0-13.953,4.29-27.569,12.288-39.003l0,0c7.998-11.434,12.288-25.049,12.288-39.003v-58.545c0-13.953-4.29-27.569-12.288-39.003l0,0
	c-7.998-11.434-12.288-25.05-12.288-39.003v-79.08C96.912,14.426,111.338,0,129.133,0h253.734c17.795,0,32.221,14.426,32.221,32.221
	v79.08c0,13.953-4.29,27.569-12.288,39.003l0,0c-7.998,11.434-12.288,25.049-12.288,39.003v58.545
	c0,13.953,4.29,27.569,12.288,39.003l0,0c7.998,11.434,12.288,25.049,12.288,39.003v35.325
	C415.088,403.143,381.073,437.159,339.112,437.159z"/>
<path style="fill:#DCDEDF;" d="M314.404,512H197.596c-11.262,0-20.391-9.129-20.391-20.391V437.16h157.591v54.449
	C334.795,502.871,325.666,512,314.404,512z"/>
<path style="fill:#BDC0C3;" d="M177.205,437.159v40.683h46.732c3.148,0,6.148-1.692,7.496-4.537
	c3.134-6.616,12.947-11.443,24.568-11.443s21.433,4.827,24.568,11.443c1.348,2.845,4.348,4.537,7.496,4.537h46.732v-40.683H177.205z
	"/>
<path style="fill:#FFFFFF;" d="M316.84,111.115c-4.872,0-8.905-3.598-9.69-8.407c-4.017-24.626-25.389-43.422-51.15-43.422
	s-47.134,18.796-51.15,43.422c-0.784,4.809-4.817,8.407-9.69,8.407h-15.802c-7.017,0-12.522,6.021-11.895,13.009l20.23,225.632
	c0.882,9.837,9.126,17.375,19.002,17.375h98.61c9.877,0,18.12-7.538,19.003-17.375l20.23-225.632
	c0.627-6.989-4.878-13.009-11.895-13.009C332.643,111.115,316.84,111.115,316.84,111.115z"/>
<path style="fill:#6BB48C;" d="M255.993,234.802c-1.374,0-2.765-0.377-4.011-1.168c-3.498-2.219-4.534-6.854-2.315-10.351
	c3.102-4.89,5.185-12.468,5.185-18.859c0-4.143,3.357-7.5,7.5-7.5s7.5,3.357,7.5,7.5c0,9.278-2.881,19.584-7.52,26.895
	C260.905,233.57,258.476,234.802,255.993,234.802z"/>
<path style="fill:#EA5E57;" d="M268.251,220.812c-2.187-0.007-4.325,0.193-6.397,0.584c-3.871,0.729-7.837,0.729-11.708,0
	c-2.072-0.39-4.211-0.591-6.399-0.584c-18.658,0.065-33.676,15.169-33.639,33.827c0.037,18.613,15.137,33.69,33.759,33.69
	c1.895,0,3.754-0.156,5.564-0.457c4.347-0.722,8.791-0.722,13.138,0c1.81,0.301,3.668,0.457,5.564,0.457
	c18.622,0,33.723-15.078,33.759-33.692C301.927,235.98,286.908,220.877,268.251,220.812z"/>
<path style="opacity:0.1;enable-background:new    ;" d="M250.146,221.396c-2.072-0.39-4.211-0.591-6.399-0.584
	c-18.649,0.065-33.827,15.461-33.637,34.109c0.188,18.483,15.23,33.408,33.757,33.408c1.895,0,3.754-0.156,5.564-0.457
	c4.347-0.722,8.791-0.722,13.138,0c1.81,0.301,3.668,0.457,5.564,0.457c7.969,0,15.29-2.763,21.065-7.38
	C207.735,283.372,233.641,229.13,250.146,221.396z"/>
<path style="fill:#BDC0C3;" d="M296.855,138.302h-81.71c-3.811,0-6.899,3.089-6.899,6.899v18.725c0,3.811,3.089,6.9,6.899,6.9h81.71
	c3.81,0,6.9-3.089,6.9-6.9v-18.725C303.755,141.391,300.666,138.302,296.855,138.302z"/>
<path style="fill:#F3C97F;" d="M281.483,120.465c-4.143,0-7.5-3.357-7.5-7.5c0-9.916-8.067-17.982-17.983-17.982
	c-9.916,0-17.983,8.066-17.983,17.982c0,4.143-3.357,7.5-7.5,7.5s-7.5-3.357-7.5-7.5c0-18.187,14.796-32.982,32.983-32.982
	s32.983,14.796,32.983,32.982C288.983,117.107,285.626,120.465,281.483,120.465z"/>
<path style="fill:#495059;" d="M272.065,333.998h-32.131c-4.143,0-7.5-3.357-7.5-7.5c0-4.142,3.357-7.5,7.5-7.5h32.131
	c4.143,0,7.5,3.358,7.5,7.5C279.565,330.641,276.208,333.998,272.065,333.998z"/>
<path style="opacity:0.1;enable-background:new    ;" d="M129.133,0c-17.795,0-32.221,14.426-32.221,32.221v79.08
	c0,13.953,4.29,27.569,12.288,39.003l0,0c7.998,11.433,12.288,25.049,12.288,39.003v58.545c0,13.953-4.29,27.569-12.288,39.003
	c-7.998,11.433-12.288,25.049-12.288,39.003v35.325c0,41.961,34.016,75.976,75.976,75.976h51.281
	c-65.336-40.426-48.227-135.728-42.211-151.359c6.697-17.402,9.32-101.978-4.753-140.135C164.108,110.155,166.443,36.57,167.224,0
	H129.133z"/>
<g style="opacity:0.1;">
	<path d="M360.138,198.032c0,4.143,3.357,7.5,7.5,7.5h22.875v-15h-22.875C363.495,190.532,360.138,193.89,360.138,198.032z"/>
	<path d="M367.638,239.326h22.875v-15h-22.875c-4.143,0-7.5,3.357-7.5,7.5C360.138,235.969,363.495,239.326,367.638,239.326z"/>
</g>
<g style="opacity:0.1;">
	<path d="M151.862,198.032c0,4.143-3.357,7.5-7.5,7.5h-22.875v-15h22.875C148.505,190.532,151.862,193.89,151.862,198.032z"/>
	<path d="M144.362,239.326h-22.875v-15h22.875c4.143,0,7.5,3.357,7.5,7.5C151.862,235.969,148.505,239.326,144.362,239.326z"/>
</g>
<path style="opacity:0.1;enable-background:new    ;" d="M334.795,437.159h-157.59v54.45c0,11.262,9.129,20.391,20.391,20.391
	h38.653c-14.642-8.964-26.179-30.153-30.827-46.637c-1.91-6.775,3.183-13.497,10.222-13.497h119.152v-14.707H334.795z"/>
<g>
</g>
<g>
</g>
<g>
</g>
<g>
</g>
<g>
</g>
<g>
</g>
<g>
</g>
<g>
</g>
<g>
</g>
<g>
</g>
<g>
</g>
<g>
</g>
<g>
</g>
<g>
</g>
<g>
</g>
</svg>
