<svg id="Capa_1" enable-background="new 0 0 493.244 493.244" height="512" viewBox="0 0 493.244 493.244" width="512" xmlns="http://www.w3.org/2000/svg"><g><g><g><path d="m209.718 475.917c-3.182 3.921-9.341 3.274-11.603-1.24-11.74-23.442-41.345-87.169-39.906-131.037 1.793-54.652 27.333-121.69 27.333-121.69s50.385 49.16 61.406 128.159c8.559 61.345-22.791 108.014-37.23 125.808z" fill="#95c9a6"/></g></g><g><g><path d="m246.949 350.109c-11.021-79-61.406-128.159-61.406-128.159s-3.944 10.355-8.841 26.238c15.182 22.094 34.012 57.23 40.247 101.921 6.675 47.85-10.929 86.764-25.85 110.017 2.676 5.759 5.087 10.698 7.016 14.55 2.261 4.515 8.421 5.163 11.603 1.241 14.439-17.795 45.789-64.463 37.231-125.808z" fill="#7fbd93"/></g></g><g><g><path d="m330.904 351.159c-4.75 3.558-11.586.937-12.764-4.88-5.356-26.449-16.279-91.218-4.288-130.968 15.351-50.889 56.106-107.476 56.106-107.476s35.037 58.778 25.635 135.743c-7.075 57.908-45.898 93.504-64.689 107.581z" fill="#95c9a6"/></g></g><g><g><path d="m369.958 107.836s-7.733 10.738-17.73 27.062c9.047 24.425 18.896 63.402 13.365 108.681-5.438 44.513-29.635 75.841-49.073 94.347.572 3.077 1.119 5.873 1.618 8.337 1.178 5.821 8.013 8.458 12.767 4.897 18.792-14.077 57.614-49.673 64.688-107.581 9.401-76.965-25.635-135.743-25.635-135.743z" fill="#7fbd93"/></g></g><g><g><path d="m7.158 87.545c-4.045 2.113-4.593 7.681-1.025 10.526 19.861 15.838 77.034 58.883 120.813 66.582 53.855 9.471 124.71-1.755 124.71-1.755s-37.762-59.409-112.813-86.422c-59.169-21.296-111.983.775-131.685 11.069z" fill="#95c9a6"/></g></g><g><g><path d="m138.844 76.477c-23.825-8.575-46.615-10.114-66.633-8.227 11.753 1.136 24.047 3.697 36.633 8.227 29.899 10.761 53.879 26.664 71.912 41.904 19.69 16.64 8.515 48.845-17.248 49.768-.326.012-.654.023-.981.034 45.05 1.697 89.131-5.284 89.131-5.284s-37.763-59.409-112.814-86.422z" fill="#7fbd93"/></g></g><g><g><path d="m1.61 218.023c-2.702 2.531-1.88 7.002 1.543 8.41 17.38 7.15 63.689 24.599 94.49 21.321 38.554-4.104 84.636-25.643 84.636-25.643s-37.378-33.08-93.815-36.775c-43.604-2.854-74.884 21.476-86.854 32.687z" fill="#95c9a6"/></g></g><g><g><path d="m88.465 185.337c-7.622-.499-14.863-.162-21.695.785 14.925 1.774 28.352 5.517 39.905 9.947 20.613 7.903 19.626 37.396-1.534 43.687-10.162 3.021-21.013 5.683-31.521 7.234 8.487 1.149 16.695 1.545 24.024.765 38.554-4.104 84.636-25.643 84.636-25.643s-37.378-33.081-93.815-36.775z" fill="#7fbd93"/></g></g><g><g><path d="m369.372 102.272s-27.675-48.111-70.265-55.983c-34.084-6.299-70.111-15.582-87.704-30.453-3.303-2.792-8.284.166-7.467 4.413 6.639 34.52 35.961 108.599 165.436 82.023z" fill="#95c9a6"/></g></g><g><g><path d="m299.106 46.289c-33.373-6.168-68.608-15.196-86.578-29.53 15.693 15.808 36.544 23.129 59.015 32.534 28.431 11.9 45.157 42.106 52.442 58.543 13.565-.373 28.638-2.126 45.387-5.564 0 0-27.675-48.111-70.266-55.983z" fill="#7fbd93"/></g></g><path d="m491.847 36.89c-2.407-3.37-7.089-4.153-10.461-1.747-.341.244-18.334 12.968-52.187 31.972-14.661-7.873-27.54-20.603-27.81-20.871-2.929-2.93-7.677-2.931-10.607-.002s-2.93 7.677-.002 10.606c.518.519 10.283 10.22 23.194 18.641-30.505 16.454-70.914 36.341-120.34 56.528-64.927 26.518-110.218 75.464-136.778 111.854-9.977 13.669-18.087 26.534-24.453 37.567-13.04-1.674-23.875-1.267-24.356-1.248-4.137.167-7.354 3.653-7.191 7.79.164 4.136 3.646 7.356 7.788 7.198.087-.004 6.924-.252 15.923.509-6.67 12.76-9.993 20.933-10.263 21.604-1.544 3.844.32 8.211 4.163 9.756.917.368 1.863.543 2.794.543 2.972 0 5.786-1.779 6.962-4.706.128-.319 13.137-32.339 40.749-70.171 15.788-21.631 38.461-47.881 68.15-70.704-.785 21.012 7.785 44.017 9.038 47.252 1.151 2.972 3.987 4.792 6.994 4.792.899 0 1.814-.163 2.704-.506 3.862-1.493 5.783-5.835 4.293-9.697-3.789-9.82-12.192-38.569-5.671-53.475.135-.31.24-.624.331-.94 13.59-8.915 28.41-16.963 44.496-23.533 48.825-19.941 89.022-39.634 119.727-56.114-.931 16.074 1.415 30.633 1.538 31.382.605 3.675 3.785 6.282 7.391 6.282.405 0 .815-.033 1.228-.101 4.087-.673 6.854-4.532 6.182-8.619-.033-.201-3.278-20.32-.302-37.728 35.661-19.943 54.678-33.403 55.032-33.657 3.37-2.404 4.15-7.086 1.744-10.457z" fill="#c39f8e"/><g><g><circle cx="257.253" cy="236.95" fill="#68b181" r="15"/></g></g><g><g><path d="m93.574 300.787c-7.839-2.679-12.022-11.205-9.344-19.045 2.679-7.839 11.205-12.022 19.045-9.344 7.839 2.679 12.022 11.205 9.344 19.044-2.679 7.84-11.205 12.024-19.045 9.345z" fill="#68b181"/></g></g><g><g><path d="m442.884 130.808c-1.696 8.109-9.645 13.307-17.754 11.611s-13.307-9.645-11.611-17.754 9.645-13.307 17.754-11.61c8.109 1.696 13.307 9.645 11.611 17.753z" fill="#68b181"/></g></g><g><g><ellipse cx="392.611" cy="44.514" fill="#68b181" rx="15" ry="15" transform="matrix(.934 -.356 .356 .934 9.906 142.807)"/></g></g><g><g><path d="m71.894 456.496c1.484 3.395 5.975 4.114 8.428 1.337 11.781-13.339 40.581-48.08 47.015-75.717 5.308-22.8 5.106-50.655 4.323-67.272-.313-6.637-7.973-10.172-13.218-6.094-13.54 10.527-35.209 31.056-48.47 62.406-15.558 36.78-4.297 71.117 1.922 85.34z" fill="#7fbd93"/></g></g></g></svg>