<?xml version="1.0" encoding="utf-8"?>
<!-- Generator: Adobe Illustrator 24.1.3, SVG Export Plug-In . SVG Version: 6.00 Build 0)  -->
<svg version="1.1" id="Layer_1" xmlns="http://www.w3.org/2000/svg" xmlns:xlink="http://www.w3.org/1999/xlink" x="0px" y="0px"
	 viewBox="0 0 400.5 400" style="enable-background:new 0 0 400.5 400;" xml:space="preserve">
<style type="text/css">
	.st0{fill:#763D19;}
	.st1{fill:#FCC88A;}
	.st2{fill:#3FB549;}
	.st3{fill:#128240;}
	.st4{fill:#F9DAB7;}
	.st5{fill:#FBE8CC;}
	.st6{fill:#FFF4D8;}
	.st7{fill:#F8DBAA;}
	.st8{fill:#F7F6E8;}
	.st9{fill:#E6E5DC;}
	.st10{fill:#FEF0AF;}
	.st11{fill:#FDE97E;}
	.st12{fill:#5A6D76;}
	.st13{fill:#4F6168;}
	.st14{fill:#FAA61C;}
	.st15{fill:#F8991D;}
	.st16{fill:#C97D5D;}
	.st17{fill:#C0E6ED;}
	.st18{fill:#CCEBF4;}
	.st19{fill:#FBBF9A;}
	.st20{fill:#FFD574;}
	.st21{fill:#FBB35C;}
</style>
<path class="st0" d="M307.7,158h-10.1c-7,0-12.6,5.7-12.6,12.6h5c0-3.3,2.2-6.3,5.4-7.2c-0.2,0.7-0.3,1.4-0.4,2.2v5h5v-5
	c0-1.4,1.1-2.5,2.5-2.5s2.5,1.1,2.5,2.5v5h5v-5c0-0.7-0.1-1.5-0.4-2.2c3.2,1,5.4,3.9,5.4,7.2h5C320.3,163.7,314.6,158,307.7,158z"/>
<path class="st1" d="M290,62c0,6.4-3,12.3-8.1,16.2l-16.8,12.6c-9.7,7.3-15.5,18.8-15.5,31c0,21.4,17.3,38.7,38.7,38.7l0,0h28.6
	c21.4,0,38.7-17.3,38.7-38.7l0,0c0-12.2-5.7-23.7-15.5-31l-16.8-12.6c-5.1-3.8-8.1-9.8-8.1-16.2H290z"/>
<path class="st2" d="M295,62v-9.9c0-6.6-2.6-12.9-7.3-17.5c-3.4-3.4-5.4-8.1-5.4-12.9c4.8,0,9.5,1.9,12.9,5.4
	c6.3,6.3,9.8,14.8,9.8,23.6V62H295z"/>
<path class="st3" d="M310.2,67.1v-9.9c0-6.6,2.6-12.9,7.3-17.5c3.4-3.4,5.4-8.1,5.4-12.9c-4.8,0-9.5,1.9-12.9,5.4
	c-6.3,6.3-9.8,14.8-9.8,23.6v11.4H310.2z"/>
<path class="st4" d="M343,124.8c0,19.7-16,35.7-35.7,35.7h-9.4c-19.7,0-35.7-16-35.7-35.7c0-9.5,3.8-18.6,10.5-25.2l11.7-11.7
	C291.2,81.1,295,71.7,295,62h15.1c0,9.7,3.9,19,10.7,25.9l11.7,11.7C339.2,106.3,343,115.3,343,124.8z"/>
<path class="st5" d="M278.4,140.7c2.3,11.5,12.4,19.8,24.2,19.8c11.7,0,21.9-8.3,24.2-19.8c2.3-11.6,0.1-23.7-6.2-33.7l-4.8-7.6
	c-7-11.2-10.7-24.1-10.7-37.3h-5c0,13.2-3.7,26.1-10.7,37.3l-4.8,7.6C278.3,117.1,276.1,129.1,278.4,140.7z"/>
<path class="st6" d="M60.4,365.7c0,0-13.6,0.9-26.1-7c-12.5-7.8-23.3-37.3,2.1-57.1c25.4-19.8,31.3-31,31.3-31H76v95.1H60.4z"/>
<path class="st7" d="M64,350.2H48.4c0,0-12.9,0.9-25.2-6.4c2.5,6.8,6.7,12.2,11,14.9c12.5,7.9,26.1,7,26.1,7H76L64,350.2z"/>
<path class="st6" d="M106.3,365.7c0,0,13.6,0.9,26.1-7c12.5-7.8,23.3-37.3-2.1-57.1c-25.4-19.8-31.3-31-31.3-31h-8.4v95.1H106.3z"/>
<path class="st7" d="M137.5,308.5c5.3,16.2-2.8,32.8-11.6,38.4c-12.5,7.9-26.1,7-26.1,7h-9.1v11.9h15.7c0,0,13.6,0.9,26.1-7
	C143.5,351.8,153.4,327.7,137.5,308.5z"/>
<path class="st6" d="M83.4,371c30.6,0,42.7-21.8,38.7-45.6c-2.3-13.4-10.3-24.7-17.1-39c-9.5-19.9-12.5-40.6-13.5-50.4
	c-0.3-3.4-3.2-6-6.6-6h-3c-3.4,0-6.2,2.6-6.6,6c-1,9.9-4,30.5-13.5,50.4c-6.8,14.3-14.8,25.6-17.1,39C40.7,349.2,52.7,371,83.4,371z
	"/>
<path class="st7" d="M122,325.3c-1.3-7.9-4.7-15.1-8.6-22.7c0.4,1.5,0.7,3,1,4.6c4,23.8-8,45.6-38.7,45.6c-14.6,0-25-4.9-31.4-12.7
	c2.3,17.3,14.9,30.8,39,30.8C114,371,126,349.2,122,325.3z"/>
<path class="st6" d="M115.1,352.1c-4.4,3.1-4.1,9.6,0.5,12.4c17.3,10.5,40.1,8.2,55.1-6.7c14.9-14.9,17.2-37.7,6.7-55
	c-2.8-4.6-9.3-4.8-12.4-0.4l-13.3,19c-4.5,6.5-10.2,12.2-16.7,16.8L115.1,352.1z"/>
<g>
	<path class="st7" d="M182.1,313.6c-0.8,10.3-5.2,20.3-13,28.2c-14,14-34.8,16.8-51.6,8.6l-2.3,1.7c-4.4,3.1-4.1,9.6,0.5,12.4
		c17.3,10.5,40.1,8.2,55.1-6.7C182.6,345.8,186.4,328.8,182.1,313.6z"/>
	<path class="st7" d="M62.5,379c-1.4,0-2.5-1.1-2.5-2.5c0-5.1,3.5-9.7,3.6-9.9c0.8-1.1,2.4-1.3,3.5-0.4c1.1,0.8,1.3,2.4,0.5,3.5
		c0,0-2.6,3.5-2.6,6.8C64.9,377.9,63.8,379,62.5,379z"/>
	<path class="st7" d="M104.2,379c-1.4,0-2.5-1.1-2.5-2.5c0-3.4-2.6-6.8-2.6-6.8c-0.8-1.1-0.6-2.6,0.4-3.5c1.1-0.8,2.6-0.6,3.5,0.4
		c0.1,0.2,3.6,4.8,3.6,9.9C106.7,377.9,105.6,379,104.2,379z"/>
	<path class="st7" d="M83.4,380.7c-1.4,0-2.5-1.1-2.5-2.5V371c0-1.4,1.1-2.5,2.5-2.5c1.4,0,2.5,1.1,2.5,2.5v7.3
		C85.8,379.6,84.7,380.7,83.4,380.7z"/>
	<path class="st7" d="M93.1,378.3c-1.4,0-2.5-1.1-2.5-2.5c0-2-1.1-4-1.1-4c-0.7-1.2-0.3-2.7,0.9-3.4c1.2-0.7,2.7-0.3,3.4,0.9
		c0.2,0.3,1.7,3.1,1.7,6.5C95.6,377.2,94.5,378.3,93.1,378.3z"/>
	<path class="st7" d="M73.6,378.3c-1.4,0-2.5-1.1-2.5-2.5c0-3.3,1.5-6.1,1.7-6.5c0.7-1.2,2.2-1.6,3.4-0.9c1.2,0.7,1.6,2.2,0.9,3.4
		c0,0.1-1.1,2-1.1,4C76.1,377.2,75,378.3,73.6,378.3z"/>
</g>
<path class="st8" d="M55.3,168c1.9,0,2.7-2.4,1.1-3.5l-5.9-4.2c-2.1-1.5-3.4-3.9-3.4-6.5V135c0-1.1-0.9-1.9-1.9-1.9h-3.6
	c-1.1,0-1.9,0.9-1.9,1.9v18.8c0,2.6-1.2,5-3.4,6.5l-5.9,4.2c-1.5,1.1-0.8,3.5,1.1,3.5H55.3z"/>
<path class="st9" d="M56.5,164.5l-5.9-4.2c-2.1-1.5-3.4-3.9-3.4-6.5V135c0-1.1-0.9-1.9-1.9-1.9h-3.6c-1.1,0-1.9,0.9-1.9,1.9v18.8
	c0,1.2-0.3,2.4-0.8,3.5c0.6,1.2,1.4,2.2,2.6,3l5.9,4.2c1.5,1.1,0.8,3.5-1.1,3.5h9.1C57.2,168,58,165.6,56.5,164.5L56.5,164.5z"/>
<path class="st8" d="M43.5,138.7c-8.4,0-15.5-5.6-17.8-13.3c-0.6-2.2-0.8-4.5-0.6-6.8L30,80.4c0.1-1.5,1.4-2.6,2.9-2.6h21.3
	c1.5,0,2.7,1.1,2.9,2.6l4.9,38.3c0.2,2.3,0,4.6-0.6,6.8C59,133.1,51.9,138.7,43.5,138.7L43.5,138.7z"/>
<path class="st9" d="M61.9,118.6L57,80.4c-0.1-1.5-1.4-2.6-2.9-2.6H45c1.5,0,2.7,1.1,2.9,2.6l4.9,38.3c0.2,2.3,0,4.6-0.6,6.8
	c-1.8,6.2-6.9,11.1-13.2,12.7c1.5,0.4,3,0.6,4.6,0.6c8.4,0,15.5-5.6,17.8-13.3C61.9,123.2,62.1,120.9,61.9,118.6z"/>
<path class="st10" d="M60.3,106.3H26.6l-1.6,12.4c-0.2,2.3,0,4.6,0.6,6.8c2.3,7.7,9.4,13.3,17.8,13.3c8.4,0,15.5-5.6,17.8-13.3
	c0.6-2.2,0.8-4.5,0.6-6.8L60.3,106.3z"/>
<path class="st11" d="M61.9,118.6l-1.6-12.4h-9.1l1.6,12.4c0.2,2.3,0,4.6-0.6,6.8c-1.8,6.2-6.9,11.1-13.2,12.7
	c1.5,0.4,3,0.6,4.6,0.6c8.4,0,15.5-5.6,17.8-13.3C61.9,123.2,62.1,120.9,61.9,118.6z"/>
<path class="st12" d="M134.1,97.3c0-3.7-2.5-8-5.7-11.9c-8.1-10.1-9.4-22.7-9.4-35.6v-6.2l-10.5-5.8l-9.3,6.1v5.9
	c0,12.9-1.3,25.5-9.4,35.6c-3.2,3.9-5.7,8.2-5.7,11.9v17.8l6.1,19.5l-6.1,18.5v10.5c0,3,2.4,5.5,5.5,5.5h39c3,0,5.5-2.4,5.5-5.5
	v-10.5l-6.1-19l6.1-19L134.1,97.3L134.1,97.3z"/>
<path class="st13" d="M128.4,85.4c-8.1-10.1-9.4-22.7-9.4-35.6v-7.9H110v7.9c0,12.9,1.3,25.5,9.4,35.6c3.2,3.9,5.7,8.2,5.7,11.9
	v66.3c0,3-2.4,5.5-5.5,5.5h9.1c3,0,5.5-2.4,5.5-5.5v-10.5l-6.1-19.7l6.1-18.3V97.3C134.1,93.6,131.6,89.3,128.4,85.4L128.4,85.4z"/>
<path class="st8" d="M84.2,115.1h49.9v38H84.2V115.1z"/>
<path class="st9" d="M125,115.1h9.1v38H125V115.1z"/>
<path class="st14" d="M119.1,43.9V23.6c0-2.8-2.2-5-5-5h-9.9c-2.8,0-5,2.2-5,5v20.3H119.1z"/>
<path class="st15" d="M114.1,18.6H105c2.8,0,5,2.2,5,5v20.3h9.1V23.6C119.1,20.9,116.9,18.6,114.1,18.6z"/>
<path class="st14" d="M121.1,136.4H97.9c-1.3,0-2.3-1-2.3-2.3s1-2.3,2.3-2.3h23.2c1.3,0,2.3,1,2.3,2.3S122.4,136.4,121.1,136.4
	L121.1,136.4z"/>
<path class="st14" d="M117,93.4c0,5.8-1.7,10.5-7.5,10.5c-5.8,0-10.5-4.7-10.5-10.5s4.7-10.5,10.5-10.5
	C115.3,82.9,117,87.6,117,93.4L117,93.4z"/>
<path class="st15" d="M109.5,82.9c-1.6,0-3.2,0.4-4.6,1c3.5,1.7,6,5.3,6,9.5c0,4.2-2.4,7.8-6,9.5c1.4,0.7,2.9,1,4.6,1
	c5.8,0,10.5-4.7,10.5-10.5S115.3,82.9,109.5,82.9L109.5,82.9z"/>
<path class="st16" d="M313.5,314.6l21.8-81.7c0.4-1.6,2-2.5,3.6-2.1l2.8,0.8c1.6,0.4,2.5,2,2.1,3.6L322,316.9
	c-1.5,5.7-1.1,11.7,0.9,17.2c0.8,2.2,0.9,4.6,0.3,6.9l-2.3,8.5c-1.7,6.3-8.1,10-14.3,8.3l0,0c-6.2-1.7-9.9-8.1-8.3-14.4l2.3-8.5
	c0.6-2.4,2-4.4,3.7-5.9C308.7,325.3,312,320.3,313.5,314.6z"/>
<path class="st17" d="M361.3,290h-13.2v-15.2h-91.3v91.5c0,3.2,2.6,5.9,5.9,5.9c0,4.9,3.9,8.8,8.8,8.8h62c4.8,0,8.8-3.9,8.8-8.8
	c3.2,0,5.9-2.6,5.9-5.9v-17h5c6.7,0,12.8-4.9,15.1-11.2l6.9-19c1.5-4.1,2.3-8.5,2.3-12.9C377.4,297.2,370.2,290,361.3,290z
	 M366.9,316l-6.9,19c-1,2.9-3.8,4.8-6.9,4.8h-5v-41.1h13.2c4,0,7.3,3.3,7.3,7.3C368.7,309.5,368.1,312.8,366.9,316z"/>
<path class="st18" d="M332.6,372.1h-69.8c-3.2,0-5.9-2.6-5.9-5.9v-91.5h81.5v91.5C338.4,369.4,335.8,372.1,332.6,372.1z"/>
<path class="st19" d="M322,316.9c-1.5,5.7-1.1,11.7,0.9,17.2c0.8,2.2,0.9,4.6,0.3,6.9l-2.3,8.5c-1.7,6.3-8.1,10-14.3,8.3l0,0
	c-6.2-1.7-9.9-8.1-8.3-14.4l2.3-8.5c0.6-2.4,2-4.4,3.7-5.9c4.5-3.8,7.8-8.8,9.3-14.5l10.7-39.9h9.1L322,316.9z"/>
<g>
	<path class="st17" d="M283.7,258.1v4.1c0,1.2-1,2.2-2.2,2.2s-2.2-1-2.2-2.2v-4.1c0-1.4-0.8-2.7-2.2-3.2c-3-1.2-4.9-4.1-4.9-7.3
		v-8.8c0-1.2,1-2.2,2.2-2.2s2.2,1,2.2,2.2v8.8c0,1.4,0.8,2.7,2.2,3.2C281.8,252.1,283.7,254.9,283.7,258.1z M289.4,247
		c-1.3-0.5-2.2-1.8-2.2-3.2v-10.8c0-1.2-1-2.2-2.2-2.2s-2.2,1-2.2,2.2v10.8c0,3.2,1.9,6.1,4.9,7.3c1.3,0.5,2.2,1.8,2.2,3.2v7.9
		c0,1.2,1,2.2,2.2,2.2s2.2-1,2.2-2.2v-7.9C294.2,251.1,292.3,248.3,289.4,247z"/>
	<path class="st17" d="M352.3,273.8L352.3,273.8c0,2.4-2,4.4-4.4,4.4h-90.7c-2.4,0-4.4-2-4.4-4.4l0,0c0-2.4,2-4.4,4.4-4.4h90.7
		C350.3,269.4,352.3,271.4,352.3,273.8z"/>
</g>
<path class="st20" d="M348.2,298.7v67.4c0,3.2-2.6,5.9-5.9,5.9h-79.6c-3.2,0-5.9-2.6-5.9-5.9v-55.7h19.7c8.6,0,17.1-2,24.8-5.9l0,0
	c7.7-3.9,16.2-5.9,24.8-5.9H348.2z"/>
<path class="st21" d="M348.2,298.7v67.4c0,3.2-2.6,5.9-5.9,5.9h-9.8c3.2,0,5.9-2.6,5.9-5.9v-67.4H348.2z M326.9,298.7h-0.7
	c-2.9,0-5.7,0.2-8.5,0.7l-4.1,15.2c-1.5,5.7-4.9,10.6-9.3,14.5c-1.7,1.5-3.1,3.5-3.7,5.9l-2.3,8.5c-1.7,6.3,2,12.7,8.3,14.4
	c6.2,1.7,12.7-2,14.3-8.3l2.3-8.5c0.6-2.4,0.5-4.8-0.3-6.9c-2-5.5-2.4-11.5-0.9-17.2L326.9,298.7z M277.4,304
	c-3.2,0-5.9,2.6-5.9,5.9c0,3.2,2.6,5.9,5.9,5.9s5.9-2.6,5.9-5.9C283.2,306.7,280.6,304,277.4,304z M287.6,324.6
	c-2.4,0-4.4,2-4.4,4.4c0,2.4,2,4.4,4.4,4.4c2.4,0,4.4-2,4.4-4.4C292,326.5,290.1,324.6,287.6,324.6z"/>
</svg>
