<svg id="Capa_1" enable-background="new 0 0 512 512" height="512" viewBox="0 0 512 512" width="512" xmlns="http://www.w3.org/2000/svg"><g><g><path d="m0 298.586c0 79.111 90.132 100.658 201.316 100.658l22.247-143.646-22.247-142.841c-111.184-.001-201.316 106.718-201.316 185.829z" fill="#f5f1f0"/><path d="m201.316 112.756v286.488c111.184 0 201.316-21.546 201.316-100.658s-90.133-185.83-201.316-185.83z" fill="#eae1de"/></g><g><g><g><path d="m215.626 325.15c0 58.233 66.346 74.094 148.187 74.094l38.818-99.087-38.818-111.795c-81.842 0-148.187 78.555-148.187 136.788z" fill="#f5f1f0"/><path d="m363.813 188.362v210.882c81.841 0 148.187-15.86 148.187-74.094s-66.346-136.788-148.187-136.788z" fill="#eae1de"/></g></g><g><path d="m108.439 188.013h30v30h-30z" fill="#eae1de"/></g><g><path d="m60.57 240.598h30v30h-30z" fill="#eae1de"/></g></g></g></svg>