<svg id="Capa_1" enable-background="new 0 0 512 512" height="512" viewBox="0 0 512 512" width="512" xmlns="http://www.w3.org/2000/svg"><g><g><path clip-rule="evenodd" d="m192.529 26.166c-242.348 0-256.719 365.195-38.481 403.618 1.544-3.296 32.36 1.077 35.121-2.309 10.036-12.352 28.361-28.84 41.128-35.342-.624-.416 18.617-365.165 57.603-365.967z" fill="#c86d35" fill-rule="evenodd"/></g><g><path clip-rule="evenodd" d="m199.269 64.618c-33.226 6.622-53.891 41.838-50.893 84.863 2.108 30.554.861 51.25-9.145 59.861-23.457 20.251-18.855 73.461 21.289 100.036 29.098 19.271-10.006 53.537 31.622 81.478.653.445 1.277.861 1.9 1.277 18.43 21.44 28.069 24.814 56.128 21.162 13.569-1.752 30.366-6.556 47.587-8.219 22.744-2.197 40.085 3.268 51.338-4.66 12.797-8.997 26.438-21.674 47.52-25.386 8.403-1.485 17.298-46.737 24.217-46.054 18.736-15.678 36.492-32.247 27.258-48.311-19.478-33.88 7.809-47.242 6.384-59.297-2.375-19.865-11.58-14.698-13.807-46.945-2.702-39.076-3.266-75.272-32.572-82.725-27.643-7.037-46.29-32.039-60.127-46.529-18.201-19.033-45.637-18.796-56.653-19.004h-3.415c-38.986.802-46.26 30.02-88.631 38.453z" fill="#fed1a3" fill-rule="evenodd"/></g><g><path clip-rule="evenodd" d="m347.968 45.169c-1.158-1.188 21.2 18.291 39.817 53.833 7.364 14.075 14.133 30.673 18.617 49.469 5.79 24.17.267 59.535-1.93 87.327-1.247 15.559 7.987 31.356 2.435 46.974-9.62 27.169-39.194 53.952-68.203 78.627 5.463-2.672 10.155-5.701 14.579-8.849 12.797-8.997 23.576-18.707 44.657-22.418 8.403-1.485 15.974-1.841 22.893-1.158 18.736-15.678 36.492-32.247 27.258-48.311-19.478-33.88 7.809-47.242 6.384-59.297-2.375-19.865-11.58-14.698-13.807-46.945-2.702-39.076-3.266-75.272-32.572-82.725-27.645-7.035-46.292-32.037-60.128-46.527z" fill="#ffbc85" fill-rule="evenodd"/></g><g><path d="m256.607 192.497c-2.097 0-4.187-.85-5.709-2.525l-26.308-28.951c-2.863-3.152-2.631-8.029.521-10.893 3.152-2.862 8.029-2.631 10.893.521l26.308 28.951c2.863 3.152 2.631 8.029-.521 10.893-1.478 1.342-3.334 2.004-5.184 2.004z" fill="#ffbc85"/></g><g><path d="m302.507 167.079c-2.782 0-5.37-1.505-6.737-3.963l-28.95-52.052c-2.069-3.722-.731-8.417 2.991-10.487 3.722-2.069 8.418-.73 10.487 2.991l20.779 37.362 13.644-37.078c1.471-3.998 5.903-6.044 9.9-4.574 3.997 1.471 6.044 5.903 4.574 9.899l-19.449 52.854c-1.041 2.829-3.635 4.792-6.641 5.025-.2.016-.4.023-.598.023z" fill="#ffbc85"/></g><g><path d="m207.908 271.451c-1.908 0-3.819-.704-5.311-2.122-3.086-2.934-3.211-7.814-.277-10.901l26.726-28.122-32.737-15.089c-3.868-1.783-5.557-6.363-3.775-10.231 1.783-3.867 6.363-5.556 10.231-3.775l42.519 19.598c2.259 1.041 3.877 3.108 4.345 5.551s-.271 4.961-1.984 6.764l-34.146 35.929c-1.516 1.593-3.552 2.398-5.591 2.398z" fill="#ffbc85"/></g><g><path d="m384.404 215.926c-.685 0-1.382-.092-2.073-.285l-49.022-13.658c-2.546-.709-4.551-2.673-5.313-5.203-.763-2.53-.177-5.275 1.554-7.273l35.334-40.799c2.787-3.219 7.657-3.568 10.877-.781 3.219 2.788 3.568 7.658.78 10.877l-27.36 31.591 37.289 10.39c4.102 1.143 6.502 5.395 5.358 9.498-.95 3.41-4.048 5.643-7.424 5.643z" fill="#ffbc85"/></g><g><path d="m260.474 382.741c-.403 0-.81-.032-1.221-.097-4.206-.669-7.072-4.621-6.404-8.827l16.716-105.054c.67-4.205 4.619-7.073 8.827-6.403 4.206.669 7.072 4.621 6.404 8.827l-16.716 105.054c-.604 3.795-3.881 6.5-7.606 6.5z" fill="#ffbc85"/></g><g><path d="m353.762 302.244c-2.892 0-5.663-1.634-6.979-4.422l-16.687-35.364c-1.817-3.851-.168-8.447 3.684-10.264 3.847-1.817 8.446-.169 10.264 3.683l16.687 35.364c1.817 3.851.168 8.447-3.684 10.264-1.062.501-2.182.739-3.285.739z" fill="#ffbc85"/></g><g><path clip-rule="evenodd" d="m90.061 218.844-20.191-9.354c-10.749-4.988-12.886-5.701-24.259-1.633l-45.518 16.272c-.148 6.443-.059 12.887.297 19.33l24.793 6.74c14.43 3.919 17.726 2.583 32.572 1.307 15.084-1.307 14.49 1.128 27.792 8.581 8.017 4.484 7.126 4.335 16.271 4.84l26.456 1.514c-6.057-19.776-3.504-40.026 6.621-52.586l-24.348 5.048c-9.292 1.901-11.964 3.86-20.486-.059z" fill="#ac5d2c" fill-rule="evenodd"/></g><g><path clip-rule="evenodd" d="m145.378 363.776h26.901c-3.029-15.114 2.91-30.198-1.692-42.402h-29.395c-7.334 0-7.779-.208-14.519 3.266-5.968 3.118-9.62 5.523-18.706 3.949l-39.134-10.155c-8.7-2.554-15.618-.683-23.724 4.335l-20.25 12.144c4.365 8.373 9.294 16.391 14.816 24.022l28.801-.683c14.965-1.217 25.238 10.838 35.542 13.689 4.424 1.217 15.024-4.632 17.756-5.879 5.966-2.762 17.606-2.405 23.604-2.286z" fill="#ac5d2c" fill-rule="evenodd"/></g><g><path clip-rule="evenodd" d="m22.778 129.171c9.353 1.277 23.843 2.138 34.621 2.257 5.434.059 9.947-.089 12.352-.475l28.861-6.77c8.789-1.871 12.471-2.405 22.744 2.91l26.723 13.837c.059-16.509 3.682-31.564 10.155-43.946l-52.05-9.65c-8.254-.534-9.175-.772-17.162 1.396l-50.299 13.54c-6.028 8.491-11.342 17.518-15.945 26.901z" fill="#ac5d2c" fill-rule="evenodd"/></g><g><path clip-rule="evenodd" d="m182.344 473.402c-32.097-7.037-40.56-30.643-21.854-53.655 30.227-37.176 66.956-42.016 145.967-49.676 48.577-4.721 51.843-32.93 91.482-39.937 44.568-7.898 65.917 16.153 89.463 59.772 9.383 17.37 58.315 69.6-15.41 83.497-67.342 12.708-198.433 20.042-289.648-.001z" fill="#ffe5c1" fill-rule="evenodd"/></g><g><path clip-rule="evenodd" d="m382.975 334.261c27.94 4.246 45.043 26.397 63.482 60.514 9.383 17.4 58.316 69.63-15.381 83.527-5.938 1.128-12.382 2.197-19.241 3.207 22.922-2.138 43.499-4.959 60.156-8.106 73.726-13.896 24.793-66.126 15.41-83.497-19.122-35.394-36.789-57.901-66.57-60.93-6.918-.683-14.49-.327-22.893 1.158-5.64.979-10.539 2.404-14.963 4.127z" fill="#fed1a3" fill-rule="evenodd"/></g><g><path d="m349.096 415.64c-4.259 0-7.711-3.452-7.711-7.711v-.683c0-4.259 3.452-7.711 7.711-7.711s7.711 3.452 7.711 7.711v.683c-.001 4.259-3.452 7.711-7.711 7.711z" fill="#ffbc85"/></g><g><path d="m261.028 435.92c-4.259 0-7.711-3.452-7.711-7.711v-.713c0-4.259 3.452-7.711 7.711-7.711s7.711 3.452 7.711 7.711v.713c0 4.259-3.452 7.711-7.711 7.711z" fill="#ffbc85"/></g><g><path d="m408.243 453.41c-4.259 0-7.711-3.452-7.711-7.711v-.683c0-4.259 3.452-7.711 7.711-7.711s7.711 3.452 7.711 7.711v.683c0 4.258-3.452 7.711-7.711 7.711z" fill="#ffbc85"/></g></g></svg>