<svg height="512" viewBox="0 0 128 128" width="512" xmlns="http://www.w3.org/2000/svg"><g><path d="m63.694 14.55a121.875 121.875 0 0 0 -4.524 17.95l2.08 4.417h5.5l2.08-4.417s-.58-14.083 3.337-26c-4.253.593-7.061 4-8.473 8.05z" fill="#a5cc2a"/><path d="m64.306 14.55a121.875 121.875 0 0 1 4.524 17.95l-2.08 4.417h-5.5l-2.08-4.417s.58-14.083-3.337-26c4.253.593 7.061 4 8.473 8.05z" fill="#bae543"/><g fill="#954acd"><path d="m64 123.25a1.75 1.75 0 0 1 -1.75-1.75v-9.312a1.75 1.75 0 1 1 3.5 0v9.312a1.75 1.75 0 0 1 -1.75 1.75z"/><path d="m68.523 123.25a1.742 1.742 0 0 1 -1.384-.679c-.423-.547-4.128-5.459-4.128-9.714a1.75 1.75 0 1 1 3.5 0c0 2.6 2.452 6.348 3.4 7.574a1.75 1.75 0 0 1 -1.385 2.819z"/><path d="m59.477 123.25a1.75 1.75 0 0 1 -1.385-2.819c.945-1.226 3.4-4.976 3.4-7.574a1.75 1.75 0 0 1 3.5 0c0 4.255-3.705 9.167-4.128 9.714a1.742 1.742 0 0 1 -1.387.679z"/></g><path d="m68.83 32.5h-9.66c-2 18.851-34.98 26.279-34.98 46.644s17.14 34.981 39.81 34.981 39.81-14.615 39.81-34.981-32.98-27.793-34.98-46.644z" fill="#b560e8"/><path d="m96.628 89a1.749 1.749 0 0 1 -1.675-2.259 26.111 26.111 0 0 0 1.107-7.6 1.75 1.75 0 1 1 3.5 0 29.592 29.592 0 0 1 -1.26 8.619 1.751 1.751 0 0 1 -1.672 1.24z" fill="#954acd"/><path d="m67.033 32.5h-6.066c-1.256 18.851-21.967 26.279-21.967 46.644s10.764 34.981 25 34.981 25-14.615 25-34.981-20.711-27.793-21.967-46.644z" fill="#954acd"/><path d="m65.183 32.5h-2.366c-.49 18.851-8.567 26.279-8.567 46.644s4.2 34.981 9.75 34.981 9.75-14.615 9.75-34.981-8.077-27.793-8.567-46.644z" fill="#b560e8"/></g></svg>