<svg id="Capa_1" enable-background="new 0 0 512 512" height="512" viewBox="0 0 512 512" width="512" xmlns="http://www.w3.org/2000/svg"><g><g><path d="m330.927 66.602h-149.854c-5.747 0-10.406-4.659-10.406-10.407v-14.569c0-22.989 18.636-41.626 41.626-41.626h87.415c22.989 0 41.626 18.637 41.626 41.626v14.569c-.001 5.747-4.66 10.407-10.407 10.407z" fill="#c27e4e"/></g><g><path d="m341.33 41.63v14.567c0 5.748-4.656 10.405-10.405 10.405h-149.85c-5.748 0-10.405-4.656-10.405-10.405v-14.567c0-22.994 18.636-41.63 41.619-41.63h87.421c22.984 0 41.62 18.636 41.62 41.63z" fill="#c27e4e"/></g><g><path d="m324.683 133.203h-137.366c-9.196 0-16.65-7.455-16.65-16.65 0-9.196 7.455-16.65 16.65-16.65h137.366c9.196 0 16.65 7.455 16.65 16.65 0 9.196-7.454 16.65-16.65 16.65z" fill="#c27e4e"/></g><g><path d="m324.683 99.902h-33.301c9.196 0 16.65 7.455 16.65 16.65s-7.455 16.65-16.65 16.65h33.301c9.196 0 16.65-7.455 16.65-16.65s-7.454-16.65-16.65-16.65z" fill="#b36d3c"/></g><g><path d="m189.398 66.602h133.203v33.301h-133.203z" fill="#8d562f"/></g><g><path d="m313.639 512h-115.278c-12.395 0-22.042-10.766-20.688-23.086l37.052-337.171c1.159-10.551 10.074-18.54 20.688-18.54h41.174c10.615 0 19.529 7.988 20.688 18.54l37.052 337.171c1.354 12.32-8.294 23.086-20.688 23.086z" fill="#d3effd"/></g><g><g><path d="m177.673 488.914 37.052-337.171c1.159-10.551 10.074-18.54 20.688-18.54h-50.69c-12.738 0-23.435 9.586-24.826 22.247l-35.122 319.611c-2.167 19.714 13.27 36.939 33.101 36.939h40.485c-12.395 0-22.042-10.766-20.688-23.086z" fill="#e6f7fe"/></g><g><path d="m387.225 475.062-35.122-319.611c-1.392-12.662-12.088-22.247-24.826-22.247h-50.69c10.615 0 19.529 7.988 20.688 18.54l37.052 337.171c1.354 12.321-8.294 23.086-20.689 23.086h40.485c19.832-.001 35.269-17.226 33.102-36.939z" fill="#b2e5fb"/></g><g><path d="m177.673 488.914 21.935-199.613h-54.42l-20.413 185.761c-2.167 19.713 13.27 36.938 33.101 36.938h40.485c-12.395 0-22.042-10.766-20.688-23.086z" fill="#8d9ca8"/></g><g><path d="m334.327 488.914-21.935-199.613h-112.784l-21.935 199.613c-1.354 12.32 8.293 23.086 20.688 23.086h115.277c12.396 0 22.043-10.766 20.689-23.086z" fill="#7a8c98"/></g><g><path d="m387.225 475.062-20.413-185.761h-54.42l21.935 199.613c1.354 12.321-8.294 23.086-20.689 23.086h40.485c19.832 0 35.269-17.225 33.102-36.938z" fill="#596c76"/></g></g><g><path d="m299.707 0h-33.301c22.989 0 41.626 18.637 41.626 41.626v14.569c0 5.747-4.659 10.407-10.407 10.407h33.301c5.747 0 10.407-4.659 10.407-10.407v-14.569c0-22.989-18.636-41.626-41.626-41.626z" fill="#b36d3c"/></g><g><circle cx="288.26" cy="393.366" fill="#596c76" r="8.325"/></g><g><circle cx="227.902" cy="423.545" fill="#596c76" r="8.325"/></g><g><circle cx="286.179" cy="461.008" fill="#596c76" r="8.325"/></g><g><circle cx="243.512" cy="472.455" fill="#596c76" r="8.325"/></g><g><circle cx="270.569" cy="335.089" fill="#596c76" r="8.325"/></g><g><circle cx="232.065" cy="369.431" fill="#596c76" r="8.325"/></g><g><path d="m263.726 0v20.81c0 4.275-3.461 7.726-7.726 7.726s-7.726-3.451-7.726-7.726v-20.81z" fill="#8d562f"/></g><g><path d="m297.032 0v20.81c0 4.275-3.462 7.726-7.726 7.726-4.275 0-7.726-3.451-7.726-7.726v-20.81z" fill="#8d562f"/></g><g><path d="m230.421 0v20.81c0 4.275-3.451 7.726-7.726 7.726-4.265 0-7.726-3.451-7.726-7.726v-20.81z" fill="#8d562f"/></g></g></svg>