<?xml version="1.0" encoding="utf-8"?>
<!-- Generator: Adobe Illustrator 24.1.3, SVG Export Plug-In . SVG Version: 6.00 Build 0)  -->
<svg version="1.1" id="Layer_1" xmlns="http://www.w3.org/2000/svg" xmlns:xlink="http://www.w3.org/1999/xlink" x="0px" y="0px"
	 viewBox="0 0 400.5 400" style="enable-background:new 0 0 400.5 400;" xml:space="preserve">
<style type="text/css">
	.st0{fill:#CFE1F4;}
	.st1{fill:#C3DAF1;}
	.st2{fill:#FEF5F4;}
	.st3{fill:#72A0D5;}
	.st4{fill:#5B8CC9;}
	.st5{fill:#EBE0DA;}
	.st6{fill:#4899D3;}
	.st7{fill:#7CB8E5;}
	.st8{fill:#2C80C3;}
	.st9{fill:#FFD423;}
	.st10{fill:#F8981E;}
	.st11{fill:#EDBF1C;}
	.st12{fill:#1D70B1;}
	.st13{fill:#195D92;}
	.st14{fill:#F0A760;}
	.st15{fill:#E2853E;}
	.st16{fill:#FFDBAA;}
	.st17{fill:#FEC574;}
	.st18{fill:#119988;}
	.st19{fill:#11A993;}
	.st20{fill:#42B97B;}
	.st21{fill:#55BC76;}
</style>
<path class="st0" d="M97,36.1H69.5c-9.7,19.7-12,24.4-16,32.7c-3,6.1-4.5,12.8-4.5,19.7v66.3c0,5.4,4.1,9.7,9.2,9.7h50.4
	c5.1,0,9.2-4.4,9.2-9.7V88.5c0-6.9-1.6-13.7-4.6-19.8C111,64.5,108.9,60.1,97,36.1L97,36.1z"/>
<path class="st1" d="M68.6,164.5H58.1c-5.1,0-9.2-4.4-9.2-9.7V88.5c0-6.8,1.6-13.6,4.5-19.7c4.1-8.3,6.4-13,16-32.7H80
	c-9.7,19.7-12,24.4-16,32.7c-3,6.1-4.5,12.8-4.5,19.7v66.3C59.5,160.2,63.6,164.5,68.6,164.5z"/>
<path class="st2" d="M108.7,88.5v66.3c0,0.4-0.4,0.7-0.8,0.7H58.7c-0.4,0-0.8-0.3-0.8-0.7V88.5c0-5.5,1.2-10.9,3.6-15.7l8.3-17
	c0.3-0.7,1-1.1,1.7-1.1c4.5-0.1,8.2-0.2,11.9,3.1c2.2,1.9,5.1,3.1,8.2,3.1h6.3c0.7,0,1.4,0.4,1.7,1.1
	C105.4,73.2,108.7,78.6,108.7,88.5L108.7,88.5z"/>
<path class="st3" d="M97.8,36.4H68.9c-3,0-5.4-2.4-5.4-5.4V21c0-3,2.4-5.4,5.4-5.4h28.8c3,0,5.4,2.4,5.4,5.4v10
	C103.2,34,100.7,36.4,97.8,36.4z"/>
<path class="st4" d="M79.4,36.4H68.9c-3,0-5.4-2.4-5.4-5.4V21c0-3,2.4-5.4,5.4-5.4h10.5c-3,0-5.4,2.4-5.4,5.4v10
	C74,34,76.4,36.4,79.4,36.4L79.4,36.4z"/>
<path class="st5" d="M108.7,88.5v66.3c0,0.4-0.4,0.7-0.8,0.7H58.7c-0.4,0-0.8-0.3-0.8-0.7V88.5c0-5.5,1.2-10.9,3.6-15.7l8.3-17
	c0.3-0.7,1-1.1,1.7-1.1c3.2,0,6.1-0.1,8.8,1.1c1.1,0.5,2.1,1.1,3.2,2c2.2,1.9,5.1,3.1,8.2,3.1h6.3c0.7,0,1.4,0.4,1.7,1.1
	C105.4,73.2,108.7,78.6,108.7,88.5L108.7,88.5z"/>
<path class="st2" d="M108.7,88.5v66.3c0,0.4-0.4,0.7-0.8,0.7H69.2c-0.4,0-0.8-0.3-0.8-0.7V88.5c0-5.5,1.2-10.9,3.6-15.7l8.3-17
	c0,0,0,0,0,0c1.1,0.5,2.1,1.1,3.2,2c2.2,1.9,5.1,3.1,8.2,3.1h6.3c0.7,0,1.4,0.4,1.7,1.1C105.4,73.2,108.7,78.6,108.7,88.5
	L108.7,88.5z"/>
<path class="st6" d="M383.9,45v99.8c0,2.4-2,4.4-4.4,4.4H229.1V40.6h150.3c1.2,0,2.3,0.5,3.1,1.3C383.4,42.7,383.9,43.8,383.9,45z"
	/>
<path class="st7" d="M329.3,45.7v98.5c0,2.8-2.3,5.1-5.1,5.1H179.7c-2.8,0-5.1-2.3-5.1-5.1V45.7c0-2.8,2.3-5.1,5.1-5.1h144.5
	C327,40.6,329.3,42.9,329.3,45.7z"/>
<path class="st6" d="M383.9,136.2v8.7c0,2.4-2,4.4-4.4,4.4H179.7c-2.8,0-5.1-2.3-5.1-5.1V45.7c0-2.8,2.3-5.1,5.1-5.1h17.5
	c-2.8,0-5.1,2.3-5.1,5.1v81.9c0,4.7,3.8,8.6,8.6,8.6L383.9,136.2L383.9,136.2z"/>
<path class="st8" d="M329.3,136.2v8c0,2.8-2.3,5.1-5.1,5.1h55.3c2.4,0,4.4-2,4.4-4.4v-8.7H329.3z"/>
<path class="st9" d="M329.3,74v42h-38.5c-2,0-3.9,0.9-5.1,2.5c-7.5,10.2-19.5,16.8-33.1,16.8c-13.6,0-25.7-6.6-33.1-16.8
	c-1.2-1.6-3.1-2.5-5.1-2.5h-39.7V74h38.7c2.1,0,4.1-1,5.2-2.7c7.4-10.9,19.9-18.1,34.1-18.1c14.2,0,26.7,7.2,34.1,18.1
	c1.2,1.7,3.1,2.7,5.2,2.7H329.3z"/>
<g>
	<path class="st10" d="M196.9,84.3c0-1.1,1.1-1.6,2.3-1.6h6.9c3.4,0,6.8,1.2,6.8,6c0,2.7-1.1,4.5-2.9,5.3c2.1,0.8,3.5,2,3.5,5.4v0.7
		c0,5.3-3,7.3-6.8,7.3h-7.5c-1.4,0-2.3-0.7-2.3-1.6C196.9,105.8,196.9,84.3,196.9,84.3z M202.1,92h3.6c1.3,0,1.9-1.2,1.9-2.3
		c0-1.2-0.6-2.4-1.9-2.4h-3.6C202.1,87.3,202.1,92,202.1,92z M205.5,102.8c1.7,0,2.7-0.9,2.7-3.1v-0.5c0-2.3-1-3.1-2.7-3.1h-3.4v6.8
		H205.5L205.5,102.8z"/>
	<path class="st10" d="M227.9,84.3c0-1.1,1.3-1.6,2.6-1.6c1.3,0,2.6,0.5,2.6,1.6v15.4c0,5.8-3.8,8-8.5,8c-4.8,0-8.5-2.2-8.5-8V84.3
		c0-1.1,1.3-1.6,2.6-1.6c1.3,0,2.6,0.5,2.6,1.6v15.4c0,2.3,1.2,3.4,3.2,3.4c2,0,3.2-1.1,3.2-3.4V84.3L227.9,84.3L227.9,84.3z"/>
	<path class="st10" d="M251.4,82.7c1.1,0,1.6,1.2,1.6,2.3c0,1.3-0.6,2.4-1.6,2.4h-4.7v18.4c0,1.1-1.3,1.6-2.6,1.6
		c-1.3,0-2.6-0.5-2.6-1.6V87.4h-4.7c-1,0-1.6-1.1-1.6-2.4c0-1.1,0.5-2.3,1.6-2.3H251.4L251.4,82.7z"/>
	<path class="st10" d="M269.7,82.7c1.1,0,1.6,1.2,1.6,2.3c0,1.3-0.6,2.4-1.6,2.4H265v18.4c0,1.1-1.3,1.6-2.6,1.6
		c-1.3,0-2.6-0.5-2.6-1.6V87.4h-4.7c-1,0-1.6-1.1-1.6-2.4c0-1.1,0.5-2.3,1.6-2.3H269.7L269.7,82.7z"/>
	<path class="st10" d="M278.7,93h5.1c1,0,1.6,1,1.6,2.1c0,0.9-0.5,2-1.6,2h-5.1v5.8h9.1c1,0,1.6,1.1,1.6,2.3c0,1.1-0.5,2.3-1.6,2.3
		h-12c-1.1,0-2.3-0.5-2.3-1.6V84.3c0-1.1,1.1-1.6,2.3-1.6h12c1.1,0,1.6,1.2,1.6,2.3c0,1.3-0.6,2.3-1.6,2.3h-9.1V93L278.7,93z"/>
	<path class="st10" d="M291.6,84.3c0-0.8,0.6-1.6,1.6-1.6h7c4.6,0,8.3,1.7,8.3,7.2c0,3.8-1.7,6-4.1,6.9l4.1,7.5
		c0.1,0.2,0.2,0.4,0.2,0.6c0,1.3-1.8,2.7-3.3,2.7c-0.7,0-1.3-0.3-1.7-1l-4.6-9h-2.2v8.2c0,1.1-1.3,1.6-2.6,1.6s-2.6-0.5-2.6-1.6
		V84.3L291.6,84.3L291.6,84.3z M296.9,87.3v6.3h3.3c1.9,0,3-0.8,3-3.1c0-2.4-1.1-3.1-3-3.1L296.9,87.3L296.9,87.3z"/>
</g>
<rect x="174.6" y="74" class="st11" width="17.5" height="42"/>
<path class="st12" d="M383.9,45v0.2l-24.1,25.2v78.8h-6.4V70.4l-24.1-25.2c-0.2-2.4-2.1-4.3-4.4-4.6l0,0h8.9l22.9,23.9l22.9-23.9
	c1.2,0,2.3,0.5,3.1,1.3C383.4,42.7,383.9,43.8,383.9,45z"/>
<rect x="353.4" y="136.2" class="st13" width="6.4" height="13.1"/>
<path class="st14" d="M100,224.1c-18-0.1-33.6,10.1-41.3,25.1c-6.6,12.9-14.5,25.1-24.1,35.9c-8.1,9.1-15.7,22.5-16,40.9
	c0,0.4,0,0.8,0,1.2c0,24.8,20.1,45,45,45c0,0,0.1,0,0.1,0c0.3,0,0.7,0,1,0c44.8-0.6,80.9-37.1,80.9-82.1v-19.5
	C145.5,245.3,125.3,224.3,100,224.1z"/>
<path class="st15" d="M145.5,290.1v-19.5c0-15.5-7.6-29.4-19.3-37.9v0c5.6,7.7,8.9,17.3,8.9,27.5v4.7c0,8.3-6,15.4-14.2,16.9
	c-4.3,0.7-8.5,1.2-12.6,1.5c-13.5,0.8-25.8,6.1-35.5,15.5c-0.3,0.2-0.5,0.5-0.8,0.8c-7.9,7.9-12.2,18.3-12.2,29.4
	c0,6.5,1.9,12.4,4.2,17.2c3.4,7.2-1.7,15.6-9.6,15.6c-0.1,0-0.1,0-0.2,0c-12.2,0-20-3.1-27.4-8.4c8.2,11.4,21.5,18.8,36.5,18.8
	C108.2,372,145.5,335,145.5,290.1z"/>
<path class="st15" d="M121.7,291.1c-1.1,0-2.1-0.7-2.4-1.7c-0.1-0.2-2-5.3-8.1-7.4c-1.3-0.5-2.1-1.9-1.6-3.3
	c0.5-1.3,1.9-2.1,3.3-1.6c8.5,3,11.1,10.2,11.2,10.5c0.5,1.3-0.2,2.8-1.6,3.3C122.3,291,122,291.1,121.7,291.1z"/>
<path class="st14" d="M177.7,292.6c-9.8-9.9-23.9-12.9-36.2-8.9c-10.6,3.4-21.6,5.8-32.8,6.4c-9.4,0.5-20.8,3.7-31.1,13.6
	c-0.2,0.2-0.4,0.4-0.7,0.6C63.4,318,63.4,340,77,353.5c0,0,0.1,0.1,0.1,0.1c0.2,0.2,0.4,0.4,0.6,0.5c24.8,24.1,64.5,23.9,89-0.6
	l10.6-10.6C191.1,329.1,191.5,306.6,177.7,292.6z"/>
<g>
	<path class="st15" d="M177.7,292.6c-1.5-1.5-3.1-2.9-4.7-4c9.9,13.9,8.3,33.5-4.1,46l-10.6,10.6c-23.1,23.1-59.7,24.6-84.6,4.5
		c1,1.6,3.8,4.3,4,4.5c24.8,24.1,64.5,23.9,89-0.6l10.6-10.6C191.1,329.1,191.5,306.6,177.7,292.6z"/>
	<path class="st15" d="M69.3,238.4c0.1,0,5.6-0.4,11,1.6c0.3,0.1,0.6,0.2,0.9,0.2c1.1,0,2.1-0.7,2.4-1.7c0.5-1.3-0.2-2.8-1.6-3.3
		c-3.7-1.3-7.3-1.7-9.9-1.9c-1.8,1.3-3.4,2.8-5,4.3C67.7,238.1,68.4,238.4,69.3,238.4z"/>
	<path class="st15" d="M84.6,281.4c-0.8,0-1.6-0.4-2.1-1.1c-3.6-5.2-11.6-5.4-11.7-5.4c-1.4,0-2.6-1.2-2.5-2.6
		c0-1.4,1.2-2.5,2.6-2.5h0c0.4,0,10.7,0.2,15.9,7.6c0.8,1.2,0.5,2.8-0.6,3.6C85.6,281.3,85.1,281.4,84.6,281.4z"/>
	<path class="st15" d="M120,257.3c-1.2,0-2.2-0.8-2.5-2c-1.4-5.8-8.1-7.3-8.3-7.4c-1.4-0.3-2.3-1.7-2-3.1c0.3-1.4,1.6-2.3,3-2
		c0.4,0.1,10.1,2.2,12.3,11.2c0.3,1.4-0.5,2.8-1.9,3.1C120.4,257.3,120.2,257.3,120,257.3z"/>
	<path class="st15" d="M53.2,311.7c-1.1,0-2.2-0.8-2.5-1.9c-1.9-7.1-11.2-8.4-11.3-8.4c-1.4-0.2-2.4-1.5-2.2-2.9
		c0.2-1.4,1.5-2.4,2.9-2.2c0.5,0.1,12.8,1.7,15.6,12.2c0.4,1.4-0.4,2.8-1.8,3.2C53.7,311.7,53.5,311.7,53.2,311.7z"/>
	<path class="st15" d="M150.3,282.1c-2.3,0.1-4.7,0.5-7,1.1c0.2,0.8,0.7,1.4,1.5,1.8c0.1,0,8.2,3.4,9.1,10.7
		c0.2,1.3,1.3,2.3,2.6,2.3c0.1,0,0.2,0,0.3,0c1.4-0.2,2.4-1.5,2.2-2.9C158.2,288.5,153.6,284.3,150.3,282.1z"/>
	<path class="st15" d="M131.7,316.5c-1.3,0-2.5-1-2.6-2.4c-0.6-6.6-8.4-10.2-8.5-10.2c-1.3-0.6-1.9-2.1-1.3-3.4s2.1-1.9,3.4-1.3
		c0.4,0.2,10.7,4.9,11.5,14.5c0.1,1.4-0.9,2.7-2.4,2.8C131.9,316.5,131.8,316.5,131.7,316.5z"/>
	<path class="st15" d="M158.6,324.1c-1.3,0-2.4-1-2.6-2.3c-0.5-4.5-4.8-7-4.9-7c-1.2-0.7-1.7-2.3-1-3.5c0.7-1.2,2.2-1.7,3.5-1
		c0.3,0.1,6.7,3.7,7.5,10.9c0.2,1.4-0.9,2.7-2.3,2.9C158.8,324.1,158.7,324.1,158.6,324.1z"/>
	<path class="st15" d="M85.3,315.5c-1.4,0-2.5-1.1-2.6-2.5c-0.2-4.8-6.2-6-6.2-6.1c-1.4-0.3-2.3-1.6-2-3c0.3-1.4,1.6-2.3,3-2
		c3.4,0.7,10,3.8,10.4,10.9c0.1,1.4-1,2.6-2.4,2.7C85.3,315.5,85.3,315.5,85.3,315.5z"/>
	<path class="st15" d="M129.7,355.2c-0.4-1.4-1.8-2.1-3.2-1.7c-1.4,0.4-2.1,1.8-1.7,3.2c2.3,7.6-2.1,13.2-2.3,13.5
		c-0.5,0.6-0.6,1.3-0.5,2c1.9,0,3.7-0.1,5.6-0.3C129.2,369.1,132,362.9,129.7,355.2z"/>
</g>
<path class="st16" d="M323.1,344.3c0,10.1-8.1,18.4-18.2,18.5c-0.1,0-0.2,0-0.2,0c-10.2,0-18.6-8.3-18.6-18.5
	c0-4.5,1.6-8.7,4.2-11.9c3.8-4.6,5.7-10.4,5.7-16.3v-16.2h17.1v16.4c0,6,2.1,11.8,5.9,16.4C321.6,335.9,323.1,339.9,323.1,344.3z"/>
<path class="st17" d="M323.1,344.3c0,10.1-8.1,18.4-18.2,18.5c-0.1,0-0.2,0-0.2,0v-62.9h8.5v16.4c0,6,2.1,11.8,5.9,16.4
	C321.6,335.9,323.1,339.9,323.1,344.3z"/>
<path class="st18" d="M309.5,296.3c0,0,3.7-41-10.8-96.3l-17.7,4.4c0,0,10.6,40.4,11.2,86.8L309.5,296.3z"/>
<path class="st19" d="M295.4,294.9c0,0-0.8-39.8,17.5-92.2l18,6.7c0,0-14.1,36.9-18.1,81.7L295.4,294.9z"/>
<path class="st20" d="M298.5,307.2c0,0,6.1-45,41.6-88.8l13.1,11.8c0,0-30.1,35.7-40.1,81.1L298.5,307.2z"/>
<path class="st21" d="M313.1,311.3c0,0-4.3-48-39.5-89.9l-13.9,10.9c0,0,29.2,33.1,36.2,79H313.1z"/>
</svg>
