<?xml version="1.0" encoding="iso-8859-1"?>
<!-- Generator: Adobe Illustrator 19.0.0, SVG Export Plug-In . SVG Version: 6.00 Build 0)  -->
<svg version="1.1" id="Capa_1" xmlns="http://www.w3.org/2000/svg" xmlns:xlink="http://www.w3.org/1999/xlink" x="0px" y="0px"
	 viewBox="0 0 510.8 510.8" style="enable-background:new 0 0 510.8 510.8;" xml:space="preserve">
<g>
	<path style="fill:#E2A131;" d="M457.3,116.1H408c-8.5,0-15.3-6.9-15.3-15.3V51c0-8.5,6.9-15.3,15.3-15.3h49.3
		c8.5,0,15.3,6.9,15.3,15.3v49.7C472.6,109.2,465.7,116.1,457.3,116.1z"/>
	<path style="fill:#E2A131;" d="M457.3,237.2H408c-8.5,0-15.3-6.9-15.3-15.3v-49.7c0-8.5,6.9-15.3,15.3-15.3h49.3
		c8.5,0,15.3,6.9,15.3,15.3v49.7C472.6,230.3,465.7,237.2,457.3,237.2z"/>
	<path style="fill:#E2A131;" d="M457.3,358.3H408c-8.5,0-15.3-6.9-15.3-15.3v-49.7c0-8.5,6.9-15.3,15.3-15.3h49.3
		c8.5,0,15.3,6.9,15.3,15.3V343C472.6,351.5,465.7,358.3,457.3,358.3z"/>
	<path style="fill:#E2A131;" d="M457.3,479.5H408c-8.5,0-15.3-6.9-15.3-15.3v-49.8c0-8.5,6.9-15.3,15.3-15.3h49.3
		c8.5,0,15.3,6.9,15.3,15.3v49.7C472.6,472.6,465.7,479.5,457.3,479.5z"/>
</g>
<g>
	<path style="fill:#F5D66D;" d="M102.8,111.5H53.5c-8.5,0-15.3-6.9-15.3-15.3V46.4c0-8.5,6.9-15.3,15.3-15.3h49.3
		c8.5,0,15.3,6.9,15.3,15.3v49.7C118.2,104.6,111.3,111.5,102.8,111.5z"/>
	<path style="fill:#F5D66D;" d="M102.8,232.6H53.5c-8.5,0-15.3-6.9-15.3-15.3v-49.7c0-8.5,6.9-15.3,15.3-15.3h49.3
		c8.5,0,15.3,6.9,15.3,15.3v49.7C118.2,225.7,111.3,232.6,102.8,232.6z"/>
	<path style="fill:#F5D66D;" d="M102.8,353.7H53.5c-8.5,0-15.3-6.9-15.3-15.3v-49.7c0-8.5,6.9-15.3,15.3-15.3h49.3
		c8.5,0,15.3,6.9,15.3,15.3v49.7C118.2,346.9,111.3,353.7,102.8,353.7z"/>
	<path style="fill:#F5D66D;" d="M102.8,474.9H53.5c-8.5,0-15.3-6.9-15.3-15.3v-49.7c0-8.5,6.9-15.3,15.3-15.3h49.3
		c8.5,0,15.3,6.9,15.3,15.3v49.7C118.2,468,111.3,474.9,102.8,474.9z"/>
</g>
<path style="fill:#A65A3D;" d="M392.8,510.8H122.6c-16.8,0-30.5-14.1-30.5-31.4v-65c0-2.4,0.6-4.8,1.7-6.9l15.4-30.5l-15.1-26.4
	c-1.3-2.3-2-4.9-2-7.6v-49.7c0-2.5,0.6-5,1.8-7.2l15.3-28.4l-15.3-28.4c-1.2-2.2-1.8-4.7-1.8-7.3v-49.7c0-2.5,0.6-5,1.8-7.2
	l15.3-28.4l-15.3-28.4c-1.2-2.2-1.8-4.7-1.8-7.3V31.4C92.1,14.1,105.8,0,122.6,0h270.2c16.8,0,30.5,14.1,30.5,31.4v69.4
	c0,2.5-0.6,5-1.8,7.3l-15.3,28.3l15.3,28.4c1.2,2.2,1.8,4.7,1.8,7.2v49.7c0,2.5-0.6,5-1.8,7.3l-15.3,28.4l15.3,28.4
	c1.2,2.2,1.8,4.7,1.8,7.2v49.7c0,2.7-0.7,5.3-2,7.6l-15.1,26.4l15.4,30.5c1.1,2.1,1.7,4.5,1.7,6.9v65
	C423.3,496.7,409.6,510.8,392.8,510.8z"/>
<g>
	<path style="fill:#A34220;" d="M332.3,151.8H188.5c-8.5,0-15.3-6.9-15.3-15.3c0-8.5,6.9-15.3,15.3-15.3h143.8
		c8.5,0,15.3,6.9,15.3,15.3C347.7,144.9,340.8,151.8,332.3,151.8z"/>
	<path style="fill:#A34220;" d="M332.3,272.9H188.5c-8.5,0-15.3-6.9-15.3-15.3c0-8.5,6.9-15.3,15.3-15.3h143.8
		c8.5,0,15.3,6.9,15.3,15.3C347.7,266,340.8,272.9,332.3,272.9z"/>
	<path style="fill:#A34220;" d="M332.3,394H188.5c-8.5,0-15.3-6.9-15.3-15.3s6.9-15.3,15.3-15.3h143.8c8.5,0,15.3,6.9,15.3,15.3
		S340.8,394,332.3,394z"/>
	<path style="fill:#A34220;" d="M392.8,0h-135v510.8h134.9c16.8,0,30.5-14.1,30.5-31.4v-65c0-2.4-0.6-4.8-1.7-6.9L406.1,377
		l15.1-26.4c1.3-2.3,2-4.9,2-7.6v-49.7c0-2.5-0.6-5-1.8-7.2l-15.3-28.4l15.3-28.4c1.2-2.2,1.8-4.7,1.8-7.3v-49.7
		c0-2.5-0.6-5-1.8-7.2l-15.2-28.7l15.3-28.4c1.2-2.2,1.8-4.7,1.8-7.3V31.4C423.3,14.1,409.6,0,392.8,0z"/>
</g>
<g>
	<path style="fill:#812E1C;" d="M332.3,121.1h-74.5v30.7h74.5c8.5,0,15.3-6.9,15.3-15.3C347.7,128,340.8,121.1,332.3,121.1z"/>
	<path style="fill:#812E1C;" d="M332.3,242.2h-74.5v30.7h74.5c8.5,0,15.3-6.9,15.3-15.3C347.7,249.1,340.8,242.2,332.3,242.2z"/>
	<path style="fill:#812E1C;" d="M332.3,363.4h-74.5v30.7h74.5c8.5,0,15.3-6.9,15.3-15.3S340.8,363.4,332.3,363.4z"/>
</g>
<g>
</g>
<g>
</g>
<g>
</g>
<g>
</g>
<g>
</g>
<g>
</g>
<g>
</g>
<g>
</g>
<g>
</g>
<g>
</g>
<g>
</g>
<g>
</g>
<g>
</g>
<g>
</g>
<g>
</g>
</svg>
