<svg height="511pt" viewBox="0 -3 511.99996 511" width="511pt" xmlns="http://www.w3.org/2000/svg"><path d="m511.902344 203.078125c-9.621094 162.214844-140.785156 293.378906-302.996094 302.996094-34.414062 2.042969-62.019531-28.082031-57.160156-62.210938.050781-.363281.101562-.730469.15625-1.09375 3.648437-25.660156 24.84375-45.199219 50.714844-46.800781 106.511718-6.589844 192.589843-92.667969 199.179687-199.179688 1.597656-25.871093 21.136719-47.0625 46.800781-50.714843.363282-.050781.726563-.101563 1.089844-.15625 34.132812-4.855469 64.253906 22.746093 62.214844 57.160156zm0 0" fill="#f25f50"/><path d="m485.921875 311.644531c-47.347656 108.839844-153.128906 187.082031-277.015625 194.429688-34.414062 2.042969-62.015625-28.089844-57.160156-62.210938.050781-.367187.105468-.730469.15625-1.097656 2.132812-14.984375 10.246094-27.882813 21.785156-36.335937-1.550781 31.96875 24.972656 59.03125 57.648438 57.085937 107.058593-6.351563 200.597656-65.644531 254.585937-151.871094zm0 0" fill="#d8352e"/><path d="m157.015625 443.863281-37.652344-29.707031v59.414062zm0 0" fill="#d8352e"/><path d="m449.6875 151.191406-29.707031-37.652344h59.414062zm0 0" fill="#f25f50"/><g fill="#d8352e"><path d="m248.359375 440.886719c-3.164063 0-6.085937-1.964844-7.296875-4.878907-1.28125-3.085937-.445312-6.746093 2.0625-8.957031 5.246094-4.617187 13.835938-.304687 13.101562 6.703125-.417968 3.988282-3.832031 7.132813-7.867187 7.132813zm0 0"/><path d="m230.078125 456.324219c-7.089844 0-10.550781-9.011719-5.3125-13.761719 2.667969-2.414062 6.707031-2.683594 9.699219-.714844 2.660156 1.753906 4.007812 5.082032 3.347656 8.199219-.765625 3.617187-4.03125 6.277344-7.734375 6.277344zm0 0"/><path d="m218.890625 433.359375c-3.109375 0-5.964844-1.875-7.226563-4.703125-1.433593-3.207031-.503906-7.085938 2.207032-9.3125 5.523437-4.542969 14.070312.394531 12.804687 7.464844-.667969 3.734375-3.972656 6.550781-7.785156 6.550781zm0 0"/></g><path d="m392.539062 90.042969c-9.621093 162.210937-140.785156 293.375-302.996093 302.996093-34.414063 2.039063-62.019531-28.082031-57.160157-62.214843.050782-.363281.101563-.726563.15625-1.089844 3.648438-25.664063 24.84375-45.203125 50.714844-46.800781 106.507813-6.589844 192.589844-92.667969 199.179688-199.179688 1.597656-25.871094 21.136718-47.066406 46.800781-50.714844.363281-.054687.726563-.105468 1.089844-.15625 34.128906-4.859374 64.253906 22.746094 62.214843 57.160157zm0 0" fill="#f25f50"/><path d="m366.558594 198.609375c-47.347656 108.835937-153.128906 187.078125-277.015625 194.429687-34.414063 2.042969-62.015625-28.089843-57.160157-62.214843.050782-.363281.105469-.730469.15625-1.09375 2.132813-14.988281 10.246094-27.882813 21.785157-36.339844-1.550781 31.96875 24.972656 59.03125 57.648437 57.085937 107.058594-6.351562 200.597656-65.644531 254.585938-151.867187zm0 0" fill="#d8352e"/><path d="m37.652344 330.824219-37.652344-29.707031v59.414062zm0 0" fill="#d8352e"/><path d="m330.324219 38.152344-29.707031-37.652344h59.414062zm0 0" fill="#f25f50"/><path d="m323.808594 80.847656c-3.160156 0-6.097656-1.964844-7.308594-4.878906-1.34375-3.246094-.320312-7.125 2.453125-9.273438 5.644531-4.371093 14.011719.730469 12.601563 7.785157-.730469 3.652343-4.019532 6.367187-7.746094 6.367187zm0 0" fill="#d8352e"/><path d="m338.34375 99.859375c-7.257812 0-10.644531-9.410156-5.019531-14.023437 5.636719-4.625 14.273437.585937 12.757812 7.738281-.765625 3.601562-4.039062 6.285156-7.738281 6.285156zm0 0" fill="#d8352e"/><path d="m314.855469 109.914062c-7.171875 0-10.625-9.242187-5.132813-13.914062 2.515625-2.136719 6.160156-2.46875 9.027344-.859375 2.917969 1.632813 4.492188 5.054687 3.871094 8.335937-.699219 3.691407-3.996094 6.4375-7.765625 6.4375zm0 0" fill="#d8352e"/></svg>