<?xml version="1.0" encoding="utf-8"?>
<!-- Generator: Adobe Illustrator 24.1.3, SVG Export Plug-In . SVG Version: 6.00 Build 0)  -->
<svg version="1.1" id="Layer_1" xmlns="http://www.w3.org/2000/svg" xmlns:xlink="http://www.w3.org/1999/xlink" x="0px" y="0px"
	 viewBox="0 0 400.5 400" style="enable-background:new 0 0 400.5 400;" xml:space="preserve">
<style type="text/css">
	.st0{fill:#536673;}
	.st1{fill:#EEB04A;}
	.st2{fill:#F8E981;}
	.st3{fill:#F0B51D;}
	.st4{fill:#F4C34E;}
	.st5{fill:#FFF4D8;}
	.st6{fill:#F8DBAA;}
	.st7{fill:#D8303D;}
	.st8{fill:#C11F56;}
	.st9{fill:#FFDDAA;}
	.st10{fill:#E5646E;}
	.st11{fill:#D05769;}
	.st12{fill-rule:evenodd;clip-rule:evenodd;fill:#EFC41C;}
	.st13{fill-rule:evenodd;clip-rule:evenodd;fill:#F3D55B;}
	.st14{fill-rule:evenodd;clip-rule:evenodd;fill:#F4EFCA;}
	.st15{fill-rule:evenodd;clip-rule:evenodd;fill:#F19C23;}
	.st16{fill-rule:evenodd;clip-rule:evenodd;fill:#E47E26;}
</style>
<g>
	<path class="st0" d="M80.2,52.7l-1.9,3.8c-2.6,5.3-6.1,10.1-10.3,14.3l-29.4,29.4L27.8,105c-0.5,4.3,4.4,9.6,8.5,9.6
		c0.5,0,0.9,0.4,0.9,0.9c0,3.8,2.7,6.5,6.4,6.4c0.5,0,0.9,0.4,0.9,0.9c0,3.8,2.7,6.5,6.4,6.4c0.5,0,0.9,0.4,0.9,0.9
		c0,3.8,2.7,6.5,6.4,6.4c0.5,0,0.9,0.4,0.9,0.9c0,4.1,5.3,9.1,9.6,8.5l4.8-10.7l29.5-29.5c4.2-4.2,9-7.6,14.3-10.3l3.8-1.9
		L80.2,52.7z"/>
	
		<rect x="81.2" y="38.6" transform="matrix(0.7178 -0.6963 0.6963 0.7178 -0.5354 80.0285)" class="st1" width="34.5" height="4.2"/>
	
		<rect x="116.2" y="73.9" transform="matrix(0.6883 -0.7254 0.7254 0.6883 -13.7283 119.9082)" class="st1" width="33" height="4.2"/>
	<rect x="84.1" y="39.6" transform="matrix(0.7071 -0.7071 0.7071 0.7071 1.551 87.079)" class="st2" width="43.6" height="4.2"/>
	<rect x="87.6" y="41.8" transform="matrix(0.7071 -0.7071 0.7071 0.7071 1.9306 92.3939)" class="st1" width="49.8" height="4.2"/>
	<rect x="91.7" y="45.5" transform="matrix(0.7071 -0.7071 0.7071 0.7071 0.8398 97.1016)" class="st2" width="51.9" height="4.2"/>
	
		<rect x="96.1" y="49.9" transform="matrix(0.7071 -0.7071 0.7071 0.7071 -0.9839 101.5064)" class="st1" width="51.9" height="4.2"/>
	
		<rect x="100.8" y="55" transform="matrix(0.7071 -0.7071 0.7071 0.7071 -3.5433 105.6064)" class="st2" width="49.8" height="4.2"/>
	
		<rect x="105.5" y="60.1" transform="matrix(0.7071 -0.7071 0.7071 0.7071 -6.0997 109.7052)" class="st1" width="47.7" height="4.2"/>
	
		<rect x="110.6" y="66.5" transform="matrix(0.6983 -0.7158 0.7158 0.6983 -9.3895 114.8099)" class="st2" width="41.8" height="4.2"/>
	<path class="st3" d="M80.1,94.1l-4,1.1c-4.7,0.7-8.5,4.4-9.2,9.2l-1.1,4l4-1.1c4.7-0.7,8.5-4.4,9.2-9.2L80.1,94.1z"/>
	<path class="st3" d="M63.1,86.8l-2.1,3.6c-2.9,3.8-2.9,9.1,0,13l2.1,3.6l2.1-3.6c2.9-3.8,2.9-9.1,0-13L63.1,86.8z"/>
	<path class="st3" d="M87.4,111.8l-3.6-2.1c-3.8-2.9-9.1-2.9-13,0l-3.6,2.1l3.6,2.1c3.8,2.9,9.1,2.9,13,0L87.4,111.8z"/>
	<path class="st3" d="M69.9,88.5c-0.5,0-1.1-0.2-1.5-0.6c-0.8-0.8-0.8-2.1,0-2.9l7.3-7.3c0.8-0.8,2.1-0.8,2.9,0
		c0.8,0.8,0.8,2.1,0,2.9l-7.3,7.3C71,88.3,70.5,88.5,69.9,88.5z"/>
	<path class="st3" d="M76.9,90.4c-0.5,0-1.1-0.2-1.5-0.6c-0.8-0.8-0.8-2.1,0-2.9l9.1-9.1c0.8-0.8,2.1-0.8,2.9,0
		c0.8,0.8,0.8,2.1,0,2.9l-9.1,9.1C77.9,90.2,77.4,90.4,76.9,90.4z"/>
	<path class="st3" d="M86.4,98.5c-0.5,0-1.1-0.2-1.5-0.6c-0.8-0.8-0.8-2.1,0-2.9l9.1-9.1c0.8-0.8,2.1-0.8,2.9,0
		c0.8,0.8,0.8,2.1,0,2.9l-9.1,9.1C87.5,98.3,86.9,98.5,86.4,98.5z"/>
	<path class="st3" d="M86.5,89.5c-0.5,0-1.1-0.2-1.5-0.6c-0.8-0.8-0.8-2.1,0-2.9l8.2-8.2c0.8-0.8,2.1-0.8,2.9,0
		c0.8,0.8,0.8,2.1,0,2.9L88,88.9C87.6,89.3,87.1,89.5,86.5,89.5z"/>
	<path class="st3" d="M87.5,106.1c-0.5,0-1.1-0.2-1.5-0.6c-0.8-0.8-0.8-2.1,0-2.9l7.3-7.3c0.8-0.8,2.1-0.8,2.9,0s0.8,2.1,0,2.9
		l-7.3,7.3C88.6,105.9,88.1,106.1,87.5,106.1z"/>
	
		<rect x="38.7" y="101.7" transform="matrix(0.7071 -0.7071 0.7071 0.7071 -61.4521 59.2628)" class="st4" width="4.2" height="4.2"/>
	
		<rect x="43.1" y="106.1" transform="matrix(0.7071 -0.7071 0.7071 0.7071 -63.2766 63.6653)" class="st4" width="4.2" height="4.2"/>
	
		<rect x="47.5" y="110.5" transform="matrix(0.7071 -0.7071 0.7071 0.7071 -65.1017 68.0691)" class="st4" width="4.2" height="4.2"/>
	
		<rect x="51.9" y="114.9" transform="matrix(0.7071 -0.7071 0.7071 0.7071 -66.9255 72.4723)" class="st4" width="4.2" height="4.2"/>
	
		<rect x="56.3" y="119.4" transform="matrix(0.7071 -0.7071 0.7071 0.7071 -68.7498 76.877)" class="st4" width="4.2" height="4.2"/>
	
		<rect x="60.8" y="123.8" transform="matrix(0.7071 -0.7071 0.7071 0.7071 -70.5728 81.2817)" class="st4" width="4.2" height="4.2"/>
	
		<rect x="65.2" y="128.2" transform="matrix(0.7071 -0.7071 0.7071 0.7071 -72.3965 85.6854)" class="st4" width="4.2" height="4.2"/>
	
		<rect x="69.6" y="132.6" transform="matrix(0.7071 -0.7071 0.7071 0.7071 -74.2215 90.0886)" class="st4" width="4.2" height="4.2"/>
</g>
<path class="st5" d="M272,345.3c0,0-10.9,0.7-21-5.6c-10-6.3-18.7-29.9,1.7-45.8c20.4-15.9,25.2-24.9,25.2-24.9h6.7v76.3H272z"/>
<path class="st6" d="M274.9,332.9h-12.6c0,0-10.4,0.7-20.2-5.1c2,5.4,5.4,9.8,8.9,12c10.1,6.3,21,5.6,21,5.6h12.6L274.9,332.9z"/>
<path class="st5" d="M308.9,345.3c0,0,10.9,0.7,21-5.6c10-6.3,18.7-29.9-1.7-45.8C307.8,278,303,269,303,269h-6.7v76.3H308.9z"/>
<path class="st6" d="M333.9,299.4c4.3,13-2.2,26.3-9.4,30.8c-10.1,6.3-21,5.6-21,5.6h-7.3v9.5h12.6c0,0,10.9,0.7,21-5.6
	C338.7,334.2,346.6,314.8,333.9,299.4z"/>
<path class="st5" d="M290.4,349.5c24.6,0,34.2-17.5,31-36.6c-1.8-10.8-8.2-19.8-13.7-31.3c-7.6-16-10.1-32.6-10.8-40.5
	c-0.3-2.7-2.5-4.8-5.3-4.8h-2.4c-2.7,0-5,2.1-5.3,4.8c-0.8,7.9-3.2,24.5-10.8,40.5c-5.5,11.5-11.9,20.5-13.7,31.3
	C256.2,332,265.8,349.5,290.4,349.5z"/>
<path class="st6" d="M321.5,312.9c-1.1-6.4-3.8-12.2-6.9-18.2c0.3,1.2,0.6,2.4,0.8,3.7c3.2,19.1-6.4,36.6-31,36.6
	c-11.7,0-20-4-25.2-10.2c1.9,13.9,12,24.7,31.3,24.7C315,349.5,324.7,332,321.5,312.9z"/>
<path class="st5" d="M316,334.4c-3.5,2.5-3.3,7.7,0.4,9.9c13.9,8.4,32.2,6.6,44.2-5.4c12-12,13.8-30.3,5.4-44.2
	c-2.2-3.7-7.5-3.9-10-0.3l-10.7,15.2c-3.7,5.2-8.2,9.8-13.4,13.5L316,334.4z"/>
<g>
	<path class="st6" d="M369.7,303.5c-0.7,8.2-4.1,16.3-10.5,22.6c-11.2,11.2-28,13.5-41.4,6.9l-1.9,1.3c-3.5,2.5-3.3,7.7,0.4,9.9
		c13.9,8.4,32.2,6.6,44.2-5.4C370.1,329.4,373.2,315.7,369.7,303.5z"/>
	<path class="st6" d="M273.7,356c-1.1,0-2-0.9-2-2c0-4.1,2.8-7.8,2.9-7.9c0.7-0.9,1.9-1,2.8-0.4c0.9,0.7,1,1.9,0.4,2.8
		c0,0-2.1,2.8-2.1,5.5C275.6,355.1,274.8,356,273.7,356z"/>
	<path class="st6" d="M307.2,356c-1.1,0-2-0.9-2-2c0-2.7-2.1-5.5-2.1-5.5c-0.7-0.9-0.5-2.1,0.4-2.8c0.9-0.7,2.1-0.5,2.8,0.4
		c0.1,0.2,2.9,3.8,2.9,7.9C309.2,355.1,308.3,356,307.2,356z"/>
	<path class="st6" d="M290.4,357.4c-1.1,0-2-0.9-2-2v-5.9c0-1.1,0.9-2,2-2c1.1,0,2,0.9,2,2v5.9C292.4,356.5,291.5,357.4,290.4,357.4
		z"/>
	<path class="st6" d="M298.3,355.4c-1.1,0-2-0.9-2-2c0-1.6-0.8-3.2-0.9-3.2c-0.5-1-0.2-2.2,0.7-2.7c1-0.5,2.2-0.2,2.7,0.7
		c0.1,0.2,1.4,2.5,1.4,5.2C300.3,354.6,299.4,355.4,298.3,355.4z"/>
	<path class="st6" d="M282.6,355.4c-1.1,0-2-0.9-2-2c0-2.7,1.2-4.9,1.4-5.2c0.5-1,1.8-1.3,2.7-0.7c1,0.5,1.3,1.8,0.7,2.7
		c0,0.1-0.9,1.6-0.9,3.2C284.6,354.6,283.7,355.4,282.6,355.4z"/>
</g>
<g>
	<g>
		<g>
			<path class="st7" d="M279.9,74.5c6.3-6,9.3-3.9,15.6-9.8c6.3-6,3.8-8.5,10.1-14.5c6.3-6,8.7-3.5,15-9.5c6.3-6,3.8-8.5,10.1-14.5
				l9.6,9.9l0.3,6.9l8.2,1.9l9.6,9.9c-6.3,6-3.8,8.5-10.1,14.5c-6.3,6-8.7,3.5-15,9.5c-6.3,6-3.8,8.5-10.1,14.5
				c-5.5,5.2-8,4-12.8,7.6l-21-1.9L279.9,74.5z"/>
		</g>
		<g>
			<path class="st8" d="M348.7,44.9L348.7,44.9l5.9,6.2c-6.3,6-3.8,8.5-10.1,14.5c-6.3,6-8.7,3.5-15,9.5c-6.3,6-3.8,8.5-10.1,14.5
				c-5.5,5.2-8,4-12.8,7.6l-18.7-1.7l1.4,3.5l21,1.9c4.7-3.6,7.3-2.3,12.8-7.6c6.3-6,3.8-8.5,10.1-14.5c6.3-6,8.7-3.5,15-9.5
				c6.3-6,3.8-8.5,10.1-14.5L348.7,44.9z"/>
		</g>
		<g>
			<path class="st9" d="M292.1,82.3c4.9-3.8,7.4-2.4,12.9-7.7c6.3-6,3.8-8.5,10.1-14.5c6.3-6,8.7-3.5,15-9.5
				c6.3-6,3.8-8.5,10.1-14.5l8.5,8.8c-6.3,6-3.8,8.5-10.1,14.5c-6.3,6-8.7,3.5-15,9.5c-6.3,6-3.8,8.5-10.1,14.5
				c-6.3,6-8.7,3.5-15,9.5h-9.2L292.1,82.3z"/>
		</g>
	</g>
	<g>
		<g>
			<path class="st10" d="M325,118.8c-6.3-6-3.8-8.5-10.1-14.5c-6.3-6-8.7-3.5-15-9.5c-6.3-6-3.8-8.5-10.1-14.5
				c-6.3-6-8.7-3.5-15-9.5c-6.3-6-3.8-8.5-10.1-14.5l-9.6,9.9l-1.6,7.9l-6.8,0.9l-9.6,9.9c6.3,6,3.8,8.5,10.1,14.5
				c6.3,6,8.7,3.5,15,9.5c6.3,6,3.8,8.5,10.1,14.5c6.3,6,8.7,3.5,15,9.5c6.3,6,3.8,8.5,10.1,14.5l9.6-9.9l2.3-7l6.2-1.7L325,118.8z"
				/>
		</g>
		<g>
			<path class="st11" d="M314.9,104.3c-6.3-6-8.7-3.5-15-9.5c-6.3-6-3.8-8.5-10.1-14.5c-6.3-6-8.7-3.5-15-9.5
				c-6.3-6-3.8-8.5-10.1-14.5l-4.1,4.2c6.2,5.9,3.8,8.5,10,14.4c6.3,6,8.7,3.5,15,9.5c6.3,6,3.8,8.5,10.1,14.5c6.3,6,8.7,3.5,15,9.5
				c6.3,6,3.8,8.5,10.1,14.5l-5.6,5.8l0.2-0.1l9.6-9.9C318.8,112.8,321.2,110.3,314.9,104.3L314.9,104.3z"/>
		</g>
		<g>
			<path class="st9" d="M315.4,128.7c-6.3-6-3.8-8.5-10.1-14.5s-8.7-3.5-15-9.5c-6.3-6-3.8-8.5-10.1-14.5c-6.3-6-8.7-3.5-15-9.5
				c-6.3-6-3.8-8.5-10.1-14.5l-8.5,8.8c6.3,6,3.8,8.5,10.1,14.5c6.3,6,8.7,3.5,15,9.5c6.3,6,3.8,8.5,10.1,14.5c6.3,6,8.7,3.5,15,9.5
				s3.8,8.5,10.1,14.5L315.4,128.7z"/>
		</g>
	</g>
</g>
<g id="Page-1_1_">
	<g id="_x30_17---Parmesan">
		<path id="Path_9_" class="st12" d="M151,274.9V311c0,7.4-5.1,14.4-11.3,20.3l-2.3-36.2L151,274.9z"/>
		<path id="Path_8_" class="st12" d="M85.5,313.3v33.9c0,0.6-0.2,1.2-0.7,1.6c-0.4,0.4-1,0.7-1.6,0.7C48,348.7,19.9,331.8,19.9,311
			v-36.2L85.5,313.3z"/>
		<path id="Path_7_" class="st13" d="M151,274.9c0,7.4-5.1,14.4-11.3,20.3l-54.2-16.9v35c-36.2,0-65.6-17.2-65.6-38.4
			c0-21.2,29.3-38.4,65.6-38.4S151,253.6,151,274.9z"/>
		<path id="Path_6_" class="st14" d="M29.2,274.9c-0.7,0-1.3-0.3-1.7-0.8c-0.4-0.5-0.6-1.2-0.5-1.8c2.1-12.2,18-23.2,39.5-27.3
			c0.8-0.2,1.6,0.1,2.1,0.7c0.5,0.6,0.7,1.5,0.4,2.2s-0.9,1.3-1.7,1.5c-22.6,4.3-34.4,15.3-35.9,23.6
			C31.2,274.1,30.2,274.9,29.2,274.9L29.2,274.9z"/>
		<path id="Path_5_" class="st15" d="M139.7,295.1v36.2l-54.2-24.8v-36.2L139.7,295.1z"/>
		<g>
			<circle id="Oval" class="st16" cx="100.2" cy="294.1" r="5.7"/>
			<circle id="Oval_1_" class="st16" cx="127.3" cy="307.6" r="5.7"/>
			<circle id="Oval_2_" class="st16" cx="105.8" cy="306.5" r="2.3"/>
			<circle id="Oval_3_" class="st16" cx="112.6" cy="292.9" r="2.3"/>
			<circle id="Oval_4_" class="st16" cx="114.9" cy="304.2" r="2.3"/>
		</g>
	</g>
</g>
</svg>
