<?xml version="1.0" encoding="utf-8"?>
<!-- Generator: Adobe Illustrator 24.1.3, SVG Export Plug-In . SVG Version: 6.00 Build 0)  -->
<svg version="1.1" id="Layer_1" xmlns="http://www.w3.org/2000/svg" xmlns:xlink="http://www.w3.org/1999/xlink" x="0px" y="0px"
	 viewBox="0 0 400.5 400" style="enable-background:new 0 0 400.5 400;" xml:space="preserve">
<style type="text/css">
	.st0{fill:#536673;}
	.st1{fill:#EEB04A;}
	.st2{fill:#F8E981;}
	.st3{fill:#F0B51D;}
	.st4{fill:#F4C34E;}
	.st5{fill:#6B3818;}
	.st6{fill:#9A5124;}
	.st7{fill:#8B471F;}
	.st8{fill:#F05446;}
	.st9{fill:#F2685C;}
	.st10{fill:#7AAE53;}
	.st11{fill:#6A9C45;}
	.st12{fill:#E54D3E;}
	.st13{fill:#E04738;}
	.st14{fill:#FFF4D8;}
	.st15{fill:#F8DBAA;}
</style>
<g>
	<path class="st0" d="M80.2,52.7l-1.9,3.8c-2.6,5.3-6.1,10.1-10.3,14.3l-29.4,29.4L27.8,105c-0.5,4.3,4.4,9.6,8.5,9.6
		c0.5,0,0.9,0.4,0.9,0.9c0,3.8,2.7,6.5,6.4,6.4c0.5,0,0.9,0.4,0.9,0.9c0,3.8,2.7,6.5,6.4,6.4c0.5,0,0.9,0.4,0.9,0.9
		c0,3.8,2.7,6.5,6.4,6.4c0.5,0,0.9,0.4,0.9,0.9c0,4.1,5.3,9.1,9.6,8.5l4.8-10.7l29.5-29.5c4.2-4.2,9-7.6,14.3-10.3l3.8-1.9
		L80.2,52.7z"/>
	
		<rect x="81.2" y="38.6" transform="matrix(0.7178 -0.6963 0.6963 0.7178 -0.5354 80.0285)" class="st1" width="34.5" height="4.2"/>
	
		<rect x="116.2" y="73.9" transform="matrix(0.6883 -0.7254 0.7254 0.6883 -13.7283 119.9082)" class="st1" width="33" height="4.2"/>
	<rect x="84.1" y="39.6" transform="matrix(0.7071 -0.7071 0.7071 0.7071 1.551 87.079)" class="st2" width="43.6" height="4.2"/>
	<rect x="87.6" y="41.8" transform="matrix(0.7071 -0.7071 0.7071 0.7071 1.9306 92.3939)" class="st1" width="49.8" height="4.2"/>
	<rect x="91.7" y="45.5" transform="matrix(0.7071 -0.7071 0.7071 0.7071 0.8398 97.1016)" class="st2" width="51.9" height="4.2"/>
	
		<rect x="96.1" y="49.9" transform="matrix(0.7071 -0.7071 0.7071 0.7071 -0.9839 101.5064)" class="st1" width="51.9" height="4.2"/>
	
		<rect x="100.8" y="55" transform="matrix(0.7071 -0.7071 0.7071 0.7071 -3.5433 105.6064)" class="st2" width="49.8" height="4.2"/>
	
		<rect x="105.5" y="60.1" transform="matrix(0.7071 -0.7071 0.7071 0.7071 -6.0997 109.7052)" class="st1" width="47.7" height="4.2"/>
	
		<rect x="110.6" y="66.5" transform="matrix(0.6983 -0.7158 0.7158 0.6983 -9.3895 114.8099)" class="st2" width="41.8" height="4.2"/>
	<path class="st3" d="M80.1,94.1l-4,1.1c-4.7,0.7-8.5,4.4-9.2,9.2l-1.1,4l4-1.1c4.7-0.7,8.5-4.4,9.2-9.2L80.1,94.1z"/>
	<path class="st3" d="M63.1,86.8l-2.1,3.6c-2.9,3.8-2.9,9.1,0,13l2.1,3.6l2.1-3.6c2.9-3.8,2.9-9.1,0-13L63.1,86.8z"/>
	<path class="st3" d="M87.4,111.8l-3.6-2.1c-3.8-2.9-9.1-2.9-13,0l-3.6,2.1l3.6,2.1c3.8,2.9,9.1,2.9,13,0L87.4,111.8z"/>
	<path class="st3" d="M69.9,88.5c-0.5,0-1.1-0.2-1.5-0.6c-0.8-0.8-0.8-2.1,0-2.9l7.3-7.3c0.8-0.8,2.1-0.8,2.9,0
		c0.8,0.8,0.8,2.1,0,2.9l-7.3,7.3C71,88.3,70.5,88.5,69.9,88.5z"/>
	<path class="st3" d="M76.9,90.4c-0.5,0-1.1-0.2-1.5-0.6c-0.8-0.8-0.8-2.1,0-2.9l9.1-9.1c0.8-0.8,2.1-0.8,2.9,0
		c0.8,0.8,0.8,2.1,0,2.9l-9.1,9.1C77.9,90.2,77.4,90.4,76.9,90.4z"/>
	<path class="st3" d="M86.4,98.5c-0.5,0-1.1-0.2-1.5-0.6c-0.8-0.8-0.8-2.1,0-2.9l9.1-9.1c0.8-0.8,2.1-0.8,2.9,0
		c0.8,0.8,0.8,2.1,0,2.9l-9.1,9.1C87.5,98.3,86.9,98.5,86.4,98.5z"/>
	<path class="st3" d="M86.5,89.5c-0.5,0-1.1-0.2-1.5-0.6c-0.8-0.8-0.8-2.1,0-2.9l8.2-8.2c0.8-0.8,2.1-0.8,2.9,0
		c0.8,0.8,0.8,2.1,0,2.9L88,88.9C87.6,89.3,87.1,89.5,86.5,89.5z"/>
	<path class="st3" d="M87.5,106.1c-0.5,0-1.1-0.2-1.5-0.6c-0.8-0.8-0.8-2.1,0-2.9l7.3-7.3c0.8-0.8,2.1-0.8,2.9,0s0.8,2.1,0,2.9
		l-7.3,7.3C88.6,105.9,88.1,106.1,87.5,106.1z"/>
	
		<rect x="38.7" y="101.7" transform="matrix(0.7071 -0.7071 0.7071 0.7071 -61.4521 59.2628)" class="st4" width="4.2" height="4.2"/>
	
		<rect x="43.1" y="106.1" transform="matrix(0.7071 -0.7071 0.7071 0.7071 -63.2766 63.6653)" class="st4" width="4.2" height="4.2"/>
	
		<rect x="47.5" y="110.5" transform="matrix(0.7071 -0.7071 0.7071 0.7071 -65.1017 68.0691)" class="st4" width="4.2" height="4.2"/>
	
		<rect x="51.9" y="114.9" transform="matrix(0.7071 -0.7071 0.7071 0.7071 -66.9255 72.4723)" class="st4" width="4.2" height="4.2"/>
	
		<rect x="56.3" y="119.4" transform="matrix(0.7071 -0.7071 0.7071 0.7071 -68.7498 76.877)" class="st4" width="4.2" height="4.2"/>
	
		<rect x="60.8" y="123.8" transform="matrix(0.7071 -0.7071 0.7071 0.7071 -70.5728 81.2817)" class="st4" width="4.2" height="4.2"/>
	
		<rect x="65.2" y="128.2" transform="matrix(0.7071 -0.7071 0.7071 0.7071 -72.3965 85.6854)" class="st4" width="4.2" height="4.2"/>
	
		<rect x="69.6" y="132.6" transform="matrix(0.7071 -0.7071 0.7071 0.7071 -74.2215 90.0886)" class="st4" width="4.2" height="4.2"/>
</g>
<path class="st5" d="M364.7,103.3c-1.6,0-3-1.3-3-3V67.9c0-1.6-1.3-3-3-3H350V59h8.9c4.9,0,8.9,4,8.9,8.9v32.5
	C367.7,101.9,366.3,103.3,364.7,103.3z"/>
<path class="st6" d="M355.3,108c-1.5-1.1-2.4-2.9-2.4-4.7V70.8c0-13-10.6-23.6-23.6-23.6h-43.7c-4.2,0-8.5-0.8-12.4-2.3l-11.6-4.3
	c-4-1.5-8.2-2.3-12.4-2.3H226v8.9h-24.1c-1.4,0-2.6,1-2.9,2.4l-4.8,24.3c-0.3,1.6,0.7,3.2,2.3,3.5l7.8,1.6c2.6,0.5,5.2-0.1,7.3-1.8
	l11.5-9.2l5.9,47.2v32.5h11.8l5.9-32.5h36.7c5.3-0.1,10.5-1.6,14.9-4.4c4.8-2.9,10.3-4.4,15.9-4.4h10.4c1.9,2.8,4.4,5.1,7.3,6.9
	l18,10.8l-5.9,23.6h11.8l8.9-32.5L355.3,108z"/>
<path class="st7" d="M352.9,103.3V70.8c0-2.8-0.5-5.5-1.5-8.1c-34.7,24.1-90.2,29.1-125.3,29.6l2.8,22.8v32.5h11.8l5.9-32.5h36.7
	c5.3-0.1,10.5-1.6,14.9-4.4c4.8-2.9,10.3-4.4,15.9-4.4h10.4c1.9,2.8,4.4,5.1,7.3,6.9l18,10.8l-5.9,23.6h11.8l8.9-32.5l-9.4-7.1
	C353.8,106.9,352.9,105.1,352.9,103.3z"/>
<path class="st5" d="M217.2,47.2v-3c0-4.9-4-8.9-8.9-8.9h-8.9l-5.9-5.9v8.9c0,4.9,4,8.9,8.9,8.9H217.2z"/>
<path class="st7" d="M229,44.3c0-4.9-4-8.9-8.9-8.9h-8.9l-5.9-5.9v8.9c0,4.9,4,8.9,8.9,8.9H229V44.3z"/>
<g>
	<path class="st5" d="M246.7,118c-1.6,0-3-1.3-3-3v-14.8h5.9v14.8C249.6,116.7,248.3,118,246.7,118z"/>
	<path class="st5" d="M324.5,106.3c-0.6,0.4-1.4,0.6-2.1,0.4c-0.7-0.2-1.4-0.7-1.7-1.3c-2.1-3.8-3.1-8.1-3.1-12.5V82.6h5.9v10.2
		c0,3.4,0.8,6.8,2.5,9.8c0.6,1.2,0.2,2.6-0.9,3.3L324.5,106.3z"/>
</g>
<g id="Flat_1_">
	<path class="st8" d="M111.6,292.6c0,17.7-14.3,32-32,32h-17c-17.7,0-32-14.3-32-32c0-17.7,14.3-32,32-32h17
		C97.3,260.6,111.6,274.9,111.6,292.6z"/>
	<path class="st9" d="M43.6,282.9l-3.8-1.9c0.8-1.7,1.9-3.2,3.1-4.6l3.3,2.7C45.2,280.2,44.3,281.5,43.6,282.9L43.6,282.9z"/>
	<path class="st9" d="M41.2,306.5c-4-6.2-5.2-13.8-3.2-20.9l4.1,1.2c-1.7,5.9-0.7,12.3,2.6,17.4L41.2,306.5z"/>
	<path class="st10" d="M75.4,256.4l12.8-6.4l-8.5,14.9l10.7,10.7l-14.9-2.1l-4.3,12.8l-4.3-12.8L52,275.5l10.7-10.7L54.1,250
		l12.8,6.4v-5.7c0-8,5.2-15.2,12.8-17.7l2.1,6.4c-4,2.7-6.4,7.1-6.4,11.9V256.4z"/>
	<path class="st11" d="M75.4,262.8c-1.2,0-2.1-1-2.1-2.1v-4.3c0-1.2,1-2.1,2.1-2.1s2.1,1,2.1,2.1v4.3
		C77.5,261.8,76.6,262.8,75.4,262.8z"/>
	<path class="st11" d="M66.9,262.8c-1.2,0-2.1-1-2.1-2.1v-4.3c0-1.2,1-2.1,2.1-2.1s2.1,1,2.1,2.1v4.3
		C69,261.8,68.1,262.8,66.9,262.8z"/>
	<path class="st12" d="M111.6,292.6c0,17.7-14.3,32-32,32h-17c-11.2,0-21.6-5.8-27.4-15.4c32.3-1.4,55.1-12.4,68.8-37.2
		C109,277.7,111.6,285,111.6,292.6L111.6,292.6z"/>
	<path class="st9" d="M154.3,324.6c0,17.7-14.3,32-32,32h-17c-17.7,0-32-14.3-32-32s14.3-32,32-32h17
		C139.9,292.6,154.3,306.9,154.3,324.6z"/>
	<g>
		<path class="st13" d="M104.2,309.6c2.9,0,5.3,2.4,5.3,5.3v-9.9c0-2.2-1.8-4-4-4h-0.3c-13,0-23.5,10.5-23.4,23.5c0,0.1,0,0.1,0,0.2
			c0.1,12.9,10.8,23.2,23.7,23.2c2.2,0,4-1.8,4-4c0,0,0,0,0,0v-12c0,2.9-2.4,5.3-5.3,5.3s-5.3-2.4-5.3-5.3c0-1.2,0.4-2.3,1.1-3.2h0
			c-2.9,0-5.3-2.4-5.3-5.3c0-2.9,2.4-5.3,5.3-5.3h0c-1.8-2.3-1.3-5.7,1-7.5C101.9,310,103,309.6,104.2,309.6L104.2,309.6z"/>
		<path class="st13" d="M122,301.1c-2.2,0-4,1.8-4,4v9.9c0-2.9,2.4-5.3,5.3-5.3s5.3,2.4,5.3,5.3c0,1.2-0.4,2.3-1.1,3.2h0
			c2.9,0,5.3,2.4,5.3,5.3c0,2.9-2.4,5.3-5.3,5.3h0c1.8,2.4,1.3,5.7-1.1,7.5c-2.4,1.8-5.7,1.3-7.5-1.1c-0.7-0.9-1.1-2-1.1-3.2v12
			c0,2.2,1.8,4,4,4h0.3c13,0,23.5-10.5,23.4-23.5c0-0.1,0-0.1,0-0.2C145.6,311.4,134.9,301.1,122,301.1z"/>
	</g>
</g>
<path class="st14" d="M272,345.3c0,0-10.9,0.7-21-5.6c-10-6.3-18.7-29.9,1.7-45.8c20.4-15.9,25.2-24.9,25.2-24.9h6.7v76.3H272z"/>
<path class="st15" d="M274.9,332.9h-12.6c0,0-10.4,0.7-20.2-5.1c2,5.4,5.4,9.8,8.9,12c10.1,6.3,21,5.6,21,5.6h12.6L274.9,332.9z"/>
<path class="st14" d="M308.9,345.3c0,0,10.9,0.7,21-5.6c10-6.3,18.7-29.9-1.7-45.8C307.8,278,303,269,303,269h-6.7v76.3H308.9z"/>
<path class="st15" d="M333.9,299.4c4.3,13-2.2,26.3-9.4,30.8c-10.1,6.3-21,5.6-21,5.6h-7.3v9.5h12.6c0,0,10.9,0.7,21-5.6
	C338.7,334.2,346.6,314.8,333.9,299.4z"/>
<path class="st14" d="M290.4,349.5c24.6,0,34.2-17.5,31-36.6c-1.8-10.8-8.2-19.8-13.7-31.3c-7.6-16-10.1-32.6-10.8-40.5
	c-0.3-2.7-2.5-4.8-5.3-4.8h-2.4c-2.7,0-5,2.1-5.3,4.8c-0.8,7.9-3.2,24.5-10.8,40.5c-5.5,11.5-11.9,20.5-13.7,31.3
	C256.2,332,265.8,349.5,290.4,349.5z"/>
<path class="st15" d="M321.5,312.9c-1.1-6.4-3.8-12.2-6.9-18.2c0.3,1.2,0.6,2.4,0.8,3.7c3.2,19.1-6.4,36.6-31,36.6
	c-11.7,0-20-4-25.2-10.2c1.9,13.9,12,24.7,31.3,24.7C315,349.5,324.7,332,321.5,312.9z"/>
<path class="st14" d="M316,334.4c-3.5,2.5-3.3,7.7,0.4,9.9c13.9,8.4,32.2,6.6,44.2-5.4c12-12,13.8-30.3,5.4-44.2
	c-2.2-3.7-7.5-3.9-10-0.3l-10.7,15.2c-3.7,5.2-8.2,9.8-13.4,13.5L316,334.4z"/>
<g>
	<path class="st15" d="M369.7,303.5c-0.7,8.2-4.1,16.3-10.5,22.6c-11.2,11.2-28,13.5-41.4,6.9l-1.9,1.3c-3.5,2.5-3.3,7.7,0.4,9.9
		c13.9,8.4,32.2,6.6,44.2-5.4C370.1,329.4,373.2,315.7,369.7,303.5z"/>
	<path class="st15" d="M273.7,356c-1.1,0-2-0.9-2-2c0-4.1,2.8-7.8,2.9-7.9c0.7-0.9,1.9-1,2.8-0.4c0.9,0.7,1,1.9,0.4,2.8
		c0,0-2.1,2.8-2.1,5.5C275.6,355.1,274.8,356,273.7,356z"/>
	<path class="st15" d="M307.2,356c-1.1,0-2-0.9-2-2c0-2.7-2.1-5.5-2.1-5.5c-0.7-0.9-0.5-2.1,0.4-2.8c0.9-0.7,2.1-0.5,2.8,0.4
		c0.1,0.2,2.9,3.8,2.9,7.9C309.2,355.1,308.3,356,307.2,356z"/>
	<path class="st15" d="M290.4,357.4c-1.1,0-2-0.9-2-2v-5.9c0-1.1,0.9-2,2-2c1.1,0,2,0.9,2,2v5.9
		C292.4,356.5,291.5,357.4,290.4,357.4z"/>
	<path class="st15" d="M298.3,355.4c-1.1,0-2-0.9-2-2c0-1.6-0.8-3.2-0.9-3.2c-0.5-1-0.2-2.2,0.7-2.7c1-0.5,2.2-0.2,2.7,0.7
		c0.1,0.2,1.4,2.5,1.4,5.2C300.3,354.6,299.4,355.4,298.3,355.4z"/>
	<path class="st15" d="M282.6,355.4c-1.1,0-2-0.9-2-2c0-2.7,1.2-4.9,1.4-5.2c0.5-1,1.8-1.3,2.7-0.7c1,0.5,1.3,1.8,0.7,2.7
		c0,0.1-0.9,1.6-0.9,3.2C284.6,354.6,283.7,355.4,282.6,355.4z"/>
</g>
</svg>
