<?xml version="1.0" encoding="utf-8"?>
<!-- Generator: Adobe Illustrator 24.1.3, SVG Export Plug-In . SVG Version: 6.00 Build 0)  -->
<svg version="1.1" id="Layer_1" xmlns="http://www.w3.org/2000/svg" xmlns:xlink="http://www.w3.org/1999/xlink" x="0px" y="0px"
	 viewBox="0 0 400.5 400" style="enable-background:new 0 0 400.5 400;" xml:space="preserve">
<style type="text/css">
	.st0{fill:#763D19;}
	.st1{fill:#FCC88A;}
	.st2{fill:#3FB549;}
	.st3{fill:#128240;}
	.st4{fill:#F9DAB7;}
	.st5{fill:#FBE8CC;}
	.st6{fill:#5F8C47;}
	.st7{fill:#6A9C45;}
	.st8{fill:#7AAE53;}
	.st9{fill:#89BB66;}
	.st10{fill:#C97D5D;}
	.st11{fill:#C0E6ED;}
	.st12{fill:#CCEBF4;}
	.st13{fill:#FBBF9A;}
	.st14{fill:#FFD574;}
	.st15{fill:#FBB35C;}
	.st16{fill:#FFF9F1;}
	.st17{fill:#6ECFF0;}
	.st18{fill:#E5D8C6;}
	.st19{fill:#4CC6E4;}
	.st20{fill:#B6E4F4;}
	.st21{fill:#F3E7D6;}
	.st22{fill:#F2672F;}
</style>
<path class="st0" d="M85.7,367h-10c-6.9,0-12.5,5.6-12.5,12.5h5c0-3.3,2.2-6.2,5.4-7.2c-0.2,0.7-0.3,1.4-0.4,2.2v5h5v-5
	c0-1.4,1.1-2.5,2.5-2.5c1.4,0,2.5,1.1,2.5,2.5v5h5v-5c0-0.7-0.1-1.5-0.4-2.2c3.2,0.9,5.4,3.9,5.4,7.2h5
	C98.2,372.6,92.6,367,85.7,367z"/>
<path class="st1" d="M68.1,271.6c0,6.3-3,12.3-8,16.1l-16.7,12.5c-9.7,7.3-15.4,18.7-15.4,30.8c0,21.3,17.2,38.5,38.5,38.5l0,0h28.4
	c21.3,0,38.5-17.2,38.5-38.5l0,0c0-12.1-5.7-23.5-15.4-30.8l-16.7-12.5c-5.1-3.8-8-9.7-8-16.1H68.1z"/>
<path class="st2" d="M73.1,271.6v-9.9c0-6.5-2.6-12.8-7.2-17.4c-3.4-3.4-5.3-8-5.3-12.9c4.8,0,9.4,1.9,12.9,5.3
	c6.2,6.2,9.7,14.7,9.7,23.5v11.3H73.1z"/>
<path class="st3" d="M88.2,276.6v-9.9c0-6.5,2.6-12.8,7.2-17.4c3.4-3.4,5.3-8,5.3-12.9c-4.8,0-9.4,1.9-12.9,5.3
	c-6.2,6.2-9.7,14.7-9.7,23.5v11.3H88.2z"/>
<path class="st4" d="M120.8,334c0,19.6-15.9,35.5-35.5,35.5H76c-19.6,0-35.5-15.9-35.5-35.5c0-9.4,3.7-18.4,10.4-25.1l11.6-11.6
	c6.8-6.8,10.6-16.1,10.6-25.7h15.1c0,9.6,3.8,18.9,10.6,25.7l11.6,11.6C117.1,315.5,120.8,324.6,120.8,334z"/>
<path class="st5" d="M56.6,349.8c2.3,11.4,12.3,19.7,24,19.7c11.7,0,21.7-8.2,24-19.7c2.3-11.5,0.1-23.5-6.1-33.5l-4.8-7.6
	c-7-11.1-10.6-24-10.6-37.1h-5c0,13.1-3.7,26-10.6,37.1l-4.8,7.6C56.5,326.3,54.3,338.3,56.6,349.8z"/>
<g id="Flat">
	<path class="st6" d="M313.9,84.4l-5.5,21.3l20.2,5.7c4.4,1.3,9.2,0.6,13.1-1.8l21.2-12.8c4.6-2.9,8-7.4,9.3-12.7
		c2.9-11.2-3.4-22.6-14-25.6c-5.1-1.4-10.6-0.7-15.1,2.1L322,73.3C318,75.8,315,79.8,313.9,84.4L313.9,84.4z"/>
	<path class="st6" d="M315.3,83.2L294,88.8l-5.7-20.2c-1.3-4.4-0.6-9.2,1.8-13.1l12.8-21.2c2.9-4.6,7.4-8,12.7-9.3
		c11.2-2.9,22.6,3.4,25.6,14c1.4,5.1,0.7,10.6-2.1,15.1l-12.8,21.2C323.9,79.2,319.9,82.1,315.3,83.2z"/>
	<g>
		<path class="st7" d="M361.3,84.9c-3.4,1.1-7.1,0.2-9.5-2.4l11.3-6.8l-2.7-4.4l-11.2,6.7c-1-5,4-9.1,4.2-9.3l-3.2-4
			c-3.3,2.7-8.1,9.1-5.6,16.1L307,103.5l2.7,4.4l37.6-22.7c3.4,4.1,7.7,5.3,11.2,5.3c1.6,0,3.1-0.3,4.6-0.8L361.3,84.9z"/>
		<path class="st7" d="M321.3,55.2c7,0,14.1-5.4,14.5-5.7l-3.2-4.1c-2.2,1.7-7.8,5.1-12.1,4.6l8-13.3l-4.4-2.7L316,47.4
			c-3.3-4-2.5-9.8-2.5-9.9l-2.6-0.4l-2.6-0.4c-0.1,0.4-1.3,9.5,4.9,15.2l-21.4,35.5l4.4,2.7l21.4-35.5
			C318.8,55,320.1,55.2,321.3,55.2z"/>
		<path class="st7" d="M360.1,96.6c11.7,6.1,16.2,20.7,10.2,32.4c-2.9,5.6-7.9,9.9-14,11.8l-27.9,8.9c-5.2,1.7-10.9,1.2-15.8-1.4
			l-12.4-5.6c-3.1-1.4-6.5-1.7-9.8-0.9l-0.1,0c-13.6,4.2-26.3,11-37.3,20.1l-11.3,9.4c-2,1.7-4.6,2.6-7.2,2.6h-0.2
			c-3.3,0-6.5-1.5-8.6-4.1l7.8-6.3c0,0,0.3,1.2,13.2-9.1c9.6-7.7,24.9-17.8,41.7-23.1c2.7-0.8,5-2.6,6.4-5.1l7.1-12.1
			c2.5-4.9,6.9-8.6,12.2-10.3l27.9-8.9C347.9,93.1,354.5,93.7,360.1,96.6z"/>
		<path class="st7" d="M300.5,37c-6.1-11.7-20.7-16.2-32.4-10.2c-5.6,2.9-9.9,7.9-11.8,14l-8.9,27.9c-1.7,5.2-1.2,10.9,1.4,15.8
			l5.6,12.4c1.4,3.1,1.7,6.5,0.9,9.8l0,0.1c-4.2,13.6-11,26.3-20.1,37.3l-9.4,11.3c-1.7,2-2.6,4.6-2.6,7.2v0.2
			c0,3.3,1.5,6.5,4.1,8.6l6.3-7.8c0,0-1.2-0.3,9.1-13.2c7.7-9.6,17.8-24.9,23.1-41.7c0.8-2.7,2.6-5,5.1-6.4l12.1-7.1
			c4.9-2.5,8.6-6.9,10.3-12.2l8.9-27.9C304,49.2,303.4,42.6,300.5,37L300.5,37z"/>
	</g>
	<path class="st8" d="M278,58.2c7.6,0,12.8-6,14.6-9.6l-4.6-2.3c-0.9,1.5-2,2.9-3.3,4.1c-2.1,1.9-4.5,2.8-7.1,2.7
		c1.7-10.2,2.3-17.6,2.3-18.3l-5.2-0.4c0,0.2-0.6,7.4-2.2,17.3c-5.4-2.9-5.6-9-5.6-9.3l-2.6,0h-2.6c0,3.9,2.1,11.4,9.8,14.6
		c-0.9,4.9-2,10.1-3.4,15.4c-1.6-0.8-2.9-2.2-4.1-4.1c-1.1-1.8-1.9-3.7-2.3-5.8l-5.1,1c0.8,4.1,3.9,11.2,10.1,13.9
		c-1.3,4.4-2.9,8.8-4.7,13l4.7,2.1c2-4.5,3.7-9.2,5.1-14c0.1,0,0.2,0,0.3,0c12.1,0,15.2-9.1,15.4-9.5l-4.9-1.6
		c0,0.1-1.9,5.4-9.3,5.9c1.4-5.2,2.5-10.3,3.4-15.1C277.2,58.1,277.6,58.2,278,58.2z"/>
	<path class="st8" d="M313,60.3c-6.3,0-12.3,2.5-16.8,7l-20.9,20.9c-3.6,3.6-5.7,8.6-5.7,13.7v17.8l-23,23
		c-5.3,5.3-11.2,10.1-17.4,14.3l-2.3,1.6c-2.3,1.6-3.7,4.2-3.7,7c0,4.6,3.8,8.4,8.4,8.4c0,0,0,0,0,0c2.8,0,5.4-1.4,7-3.7l1.6-2.3
		c4.2-6.3,9-12.1,14.3-17.4l23-23h17.8c5.2,0,10.1-2,13.7-5.7l20.9-20.9c4.5-4.5,7-10.5,7-16.8C336.8,71,326.1,60.3,313,60.3
		L313,60.3z"/>
	<path class="st9" d="M323.4,91.7c-0.1,0.1-9.6,5.6-16,1.6l15.7-15.7l-3.7-3.7L304,89.4c-2.8-6.3,2.2-14.7,2.2-14.8l-2.2-1.3
		l-2.2-1.3c-1.5,2.6-2.5,5.3-3.2,8.2c-1.2,5.1-0.6,9.6,1.6,13.1l-11.7,11.7c-2.8-6.3,2.2-14.7,2.2-14.8l-2.2-1.3l-2.2-1.3
		c-1.5,2.6-2.5,5.3-3.2,8.2c-1.2,5.1-0.6,9.6,1.6,13.1l-6.6,6.6l3.7,3.7l6.5-6.5c2.5,1.9,5.6,2.9,9.1,2.9c1.7,0,3.4-0.2,5-0.6
		c2.9-0.7,5.6-1.8,8.2-3.2l-2.7-4.4c-0.1,0.1-9.6,5.6-16,1.6l11.8-11.8c2.5,1.9,5.6,2.9,9.1,2.9c1.7,0,3.4-0.2,5-0.6
		c2.9-0.7,5.6-1.8,8.2-3.2L323.4,91.7z"/>
	<path class="st8" d="M342,121.5c6.5-2,12.9-3.6,18.4-4.3l-0.6-5.1c-5.4,0.7-11.7,2.2-18,4.1c0.9-3.9,3.2-7.7,4.4-9.3l-4.1-3.1
		c-1.3,1.8-2.4,3.7-3.4,5.7c-1.4,3-2.2,5.9-2.4,8.4c-4.1,1.3-8,2.8-11.7,4.2c0.8-3.9,3.3-7.9,4.4-9.4l-4.1-3.1
		c-1.3,1.8-2.4,3.7-3.4,5.7c-1.5,3.3-2.4,6.3-2.4,9c-8,3.2-13.8,5.9-14.3,6.1l2.2,4.7c0.1-0.1,5.5-2.5,13.2-5.6
		c1.3,2.3,4,4.4,8.1,6.4c2.3,1.1,4.7,2,7.1,2.8l1.5-4.9c-4.7-1.4-10.1-4.1-11.9-6.2c3.7-1.4,7.8-3,12-4.4c1.1,2.5,3.9,4.7,8.4,6.9
		c2.3,1.1,4.7,2,7.1,2.8l1.5-4.9C349.1,126.4,343.5,123.6,342,121.5L342,121.5z"/>
</g>
<path class="st10" d="M297.8,312.7l21.2-79.2c0.4-1.5,2-2.4,3.5-2l2.7,0.7c1.5,0.4,2.4,2,2,3.5L306,314.9
	c-1.5,5.5-1.1,11.3,0.8,16.7c0.7,2.1,0.9,4.4,0.3,6.7l-2.2,8.2c-1.6,6.1-7.8,9.7-13.9,8l0,0c-6-1.6-9.6-7.9-8-13.9l2.2-8.2
	c0.6-2.3,1.9-4.2,3.6-5.7C293.1,323,296.3,318.2,297.8,312.7z"/>
<path class="st11" d="M344.1,288.8h-12.8v-14.8h-88.4v88.6c0,3.1,2.5,5.7,5.7,5.7c0,4.7,3.8,8.5,8.5,8.5h60.1c4.7,0,8.5-3.8,8.5-8.5
	c3.1,0,5.7-2.5,5.7-5.7v-16.5h4.8c6.5,0,12.4-4.7,14.6-10.9l6.7-18.4c1.5-4,2.2-8.2,2.2-12.5C359.7,295.8,352.7,288.8,344.1,288.8z
	 M349.5,314l-6.7,18.4c-1,2.8-3.7,4.7-6.7,4.7h-4.8v-39.8h12.8c3.9,0,7.1,3.2,7.1,7.1C351.2,307.7,350.6,310.9,349.5,314z"/>
<path class="st12" d="M316.2,368.3h-67.6c-3.1,0-5.7-2.5-5.7-5.7v-88.6h79v88.6C321.9,365.8,319.4,368.3,316.2,368.3z"/>
<path class="st13" d="M306,314.9c-1.5,5.5-1.1,11.3,0.8,16.7c0.7,2.1,0.9,4.4,0.3,6.7l-2.2,8.2c-1.6,6.1-7.8,9.7-13.9,8l0,0
	c-6-1.6-9.6-7.9-8-13.9l2.2-8.2c0.6-2.3,1.9-4.2,3.6-5.7c4.3-3.7,7.6-8.5,9-14l10.3-38.7h8.8L306,314.9z"/>
<g>
	<path class="st11" d="M268.9,258v4c0,1.2-1,2.1-2.1,2.1c-1.2,0-2.1-1-2.1-2.1v-4c0-1.4-0.8-2.6-2.1-3.1c-2.9-1.2-4.7-4-4.7-7.1
		v-8.5c0-1.2,1-2.1,2.1-2.1c1.2,0,2.1,1,2.1,2.1v8.5c0,1.4,0.8,2.6,2.1,3.1C267,252.1,268.9,254.9,268.9,258z M274.4,247.2
		c-1.3-0.5-2.1-1.8-2.1-3.1v-10.5c0-1.2-1-2.1-2.1-2.1c-1.2,0-2.1,1-2.1,2.1v10.5c0,3.1,1.8,5.9,4.7,7.1c1.3,0.5,2.1,1.8,2.1,3.1
		v7.7c0,1.2,1,2.1,2.1,2.1c1.2,0,2.1-1,2.1-2.1v-7.7C279.1,251.2,277.2,248.4,274.4,247.2z"/>
	<path class="st11" d="M335.3,273.2L335.3,273.2c0,2.4-1.9,4.3-4.3,4.3h-87.8c-2.4,0-4.3-1.9-4.3-4.3l0,0c0-2.4,1.9-4.3,4.3-4.3H331
		C333.4,268.9,335.3,270.9,335.3,273.2z"/>
</g>
<path class="st14" d="M331.3,297.3v65.3c0,3.1-2.5,5.7-5.7,5.7h-77.1c-3.1,0-5.7-2.5-5.7-5.7v-54H262c8.3,0,16.6-1.9,24-5.7l0,0
	c7.5-3.7,15.7-5.7,24-5.7H331.3z"/>
<path class="st15" d="M331.3,297.3v65.3c0,3.1-2.5,5.7-5.7,5.7h-9.4c3.1,0,5.7-2.5,5.7-5.7v-65.3H331.3z M310.7,297.3H310
	c-2.8,0-5.5,0.2-8.3,0.6l-3.9,14.7c-1.5,5.5-4.7,10.3-9,14c-1.7,1.4-3,3.4-3.6,5.7l-2.2,8.2c-1.6,6.1,2,12.3,8,13.9
	c6,1.6,12.3-2,13.9-8l2.2-8.2c0.6-2.3,0.5-4.6-0.3-6.7c-1.9-5.4-2.3-11.2-0.8-16.7L310.7,297.3z M262.8,302.5
	c-3.1,0-5.7,2.5-5.7,5.7s2.5,5.7,5.7,5.7s5.7-2.5,5.7-5.7S265.9,302.5,262.8,302.5z M272.7,322.3c-2.3,0-4.3,1.9-4.3,4.3
	s1.9,4.3,4.3,4.3c2.3,0,4.3-1.9,4.3-4.3S275,322.3,272.7,322.3z"/>
<path class="st16" d="M120.3,43.5H39.8L27.2,65.2l0,0v105.6c0,1.8,1.5,3.2,3.2,3.2h99.1c1.8,0,3.2-1.5,3.2-3.2V65.2L120.3,43.5z"/>
<path class="st17" d="M107.7,116.1c-2.7-0.9-5.9-1.4-10.1-1.4c-17.6,0-17.6,10-35.2,10c-17.6,0-17.6-10-35.2-10v56.1
	c0,1.8,1.5,3.2,3.2,3.2h77.3L107.7,116.1L107.7,116.1z"/>
<path class="st18" d="M107.7,65.2V174h21.9c1.8,0,3.2-1.5,3.2-3.2V65.2H107.7z"/>
<path class="st17" d="M118.8,28.6H41.3c-0.8,0-1.5,0.7-1.5,1.5v24.3h80.5V30.1C120.3,29.3,119.6,28.6,118.8,28.6z"/>
<path class="st19" d="M118.8,28.6h-13.9v25.8h15.4V30.1C120.3,29.3,119.6,28.6,118.8,28.6z"/>
<polygon class="st20" points="120.3,43.5 39.8,43.5 27.2,65.2 132.9,65.2 "/>
<g>
	<polygon class="st21" points="132.9,65.2 120.3,43.5 107.7,65.2 	"/>
	<rect x="92.4" y="65.2" class="st21" width="15.4" height="108.8"/>
</g>
<path class="st19" d="M92.4,174h15.4v-57.9c-2.7-0.9-5.9-1.4-10.1-1.4c-2,0-3.7,0.1-5.3,0.3L92.4,174L92.4,174z"/>
<polygon class="st17" points="104.9,43.5 92.4,65.2 107.7,65.2 120.3,43.5 "/>
<g>
	<path class="st22" d="M51.9,96c-0.3,0.5-0.7,0.7-1.1,0.7c-0.4,0-0.8-0.2-1.1-0.7l-3-5.6v11.4c0,0.7-0.9,1.1-1.7,1.1
		c-0.9,0-1.7-0.4-1.7-1.1V85.5c0-1.3,0.8-1.7,1.7-1.7c1.2,0,1.8,0.3,2.6,1.8l3.2,5.9l3.2-5.9c0.9-1.5,1.4-1.8,2.7-1.8
		c0.9,0,1.7,0.4,1.7,1.7v16.3c0,0.7-0.9,1.1-1.7,1.1c-0.9,0-1.7-0.4-1.7-1.1V90.6L51.9,96z"/>
	<path class="st22" d="M61.5,84.8c0-0.7,0.8-1,1.7-1c0.8,0,1.7,0.3,1.7,1v17c0,0.7-0.9,1.1-1.7,1.1c-0.9,0-1.7-0.4-1.7-1.1V84.8z"/>
	<path class="st22" d="M69.5,102.9c-0.8,0-1.5-0.4-1.5-1.1v-17c0-0.7,0.8-1,1.7-1c0.8,0,1.7,0.3,1.7,1v15.1h6.4c0.7,0,1,0.7,1,1.5
		c0,0.7-0.3,1.5-1,1.5L69.5,102.9L69.5,102.9z"/>
	<path class="st22" d="M80.6,84.8c0-0.7,0.8-1,1.7-1c0.8,0,1.7,0.3,1.7,1v7.1l5.6-7.7c0.3-0.4,0.6-0.5,0.9-0.5c0.9,0,2,0.9,2,1.8
		c0,0.2,0,0.4-0.2,0.7L87.7,92l5.7,8.7c0.1,0.2,0.2,0.4,0.2,0.6c0,0.8-1,1.7-2,1.7c-0.4,0-0.9-0.2-1.2-0.7l-4.9-7.4L84,96.7v5.1
		c0,0.7-0.9,1.1-1.7,1.1c-0.9,0-1.7-0.4-1.7-1.1L80.6,84.8L80.6,84.8L80.6,84.8z"/>
</g>
</svg>
