<?xml version="1.0" encoding="utf-8"?>
<!-- Generator: Adobe Illustrator 24.1.3, SVG Export Plug-In . SVG Version: 6.00 Build 0)  -->
<svg version="1.1" id="Layer_1" xmlns="http://www.w3.org/2000/svg" xmlns:xlink="http://www.w3.org/1999/xlink" x="0px" y="0px"
	 viewBox="0 0 400.5 400" style="enable-background:new 0 0 400.5 400;" xml:space="preserve">
<style type="text/css">
	.st0{fill:#FFF4D8;}
	.st1{fill:#F8DBAA;}
	.st2{fill:#9B9B9B;}
	.st3{fill:#E21F26;}
	.st4{fill:#AA1E23;}
	.st5{fill:#E5E5E5;}
	.st6{fill:#CFD0D0;}
	.st7{fill:#FFE7C3;}
	.st8{fill:#FFCF88;}
	.st9{fill:#38B779;}
	.st10{fill:#EF3B53;}
	.st11{fill:#F05446;}
	.st12{fill:#F2685C;}
	.st13{fill:#7AAE53;}
	.st14{fill:#6A9C45;}
	.st15{fill:#E54D3E;}
	.st16{fill:#E04738;}
	.st17{fill:#527A38;}
	.st18{fill:#3F5C2B;}
	.st19{fill:#4D5C3C;}
	.st20{fill:#749A3E;}
	.st21{fill:#8FC640;}
	.st22{fill:#749B3E;}
	.st23{fill:#51673B;}
</style>
<path class="st0" d="M60.4,365.7c0,0-13.6,0.9-26.1-7c-12.5-7.8-23.3-37.3,2.1-57.1c25.4-19.8,31.3-31,31.3-31H76v95.1H60.4z"/>
<path class="st1" d="M64,350.2H48.4c0,0-12.9,0.9-25.2-6.4c2.5,6.8,6.7,12.2,11,14.9c12.5,7.9,26.1,7,26.1,7H76L64,350.2z"/>
<path class="st0" d="M106.3,365.7c0,0,13.6,0.9,26.1-7c12.5-7.8,23.3-37.3-2.1-57.1c-25.4-19.8-31.3-31-31.3-31h-8.4v95.1H106.3z"/>
<path class="st1" d="M137.5,308.5c5.3,16.2-2.8,32.8-11.6,38.4c-12.5,7.9-26.1,7-26.1,7h-9.1v11.9h15.7c0,0,13.6,0.9,26.1-7
	C143.5,351.8,153.4,327.7,137.5,308.5z"/>
<path class="st0" d="M83.4,371c30.6,0,42.7-21.8,38.7-45.6c-2.3-13.4-10.3-24.7-17.1-39c-9.5-19.9-12.5-40.6-13.5-50.4
	c-0.3-3.4-3.2-6-6.6-6h-3c-3.4,0-6.2,2.6-6.6,6c-1,9.9-4,30.5-13.5,50.4c-6.8,14.3-14.8,25.6-17.1,39C40.7,349.2,52.7,371,83.4,371z
	"/>
<path class="st1" d="M122,325.3c-1.3-7.9-4.7-15.1-8.6-22.7c0.4,1.5,0.7,3,1,4.6c4,23.8-8,45.6-38.7,45.6c-14.6,0-25-4.9-31.4-12.7
	c2.3,17.3,14.9,30.8,39,30.8C114,371,126,349.2,122,325.3z"/>
<path class="st0" d="M115.1,352.1c-4.4,3.1-4.1,9.6,0.5,12.4c17.3,10.5,40.1,8.2,55.1-6.7c14.9-14.9,17.2-37.7,6.7-55
	c-2.8-4.6-9.3-4.8-12.4-0.4l-13.3,19c-4.5,6.5-10.2,12.2-16.7,16.8L115.1,352.1z"/>
<g>
	<path class="st1" d="M182.1,313.6c-0.8,10.3-5.2,20.3-13,28.2c-14,14-34.8,16.8-51.6,8.6l-2.3,1.7c-4.4,3.1-4.1,9.6,0.5,12.4
		c17.3,10.5,40.1,8.2,55.1-6.7C182.6,345.8,186.4,328.8,182.1,313.6z"/>
	<path class="st1" d="M62.5,379c-1.4,0-2.5-1.1-2.5-2.5c0-5.1,3.5-9.7,3.6-9.9c0.8-1.1,2.4-1.3,3.5-0.4c1.1,0.8,1.3,2.4,0.5,3.5
		c0,0-2.6,3.5-2.6,6.8C64.9,377.9,63.8,379,62.5,379z"/>
	<path class="st1" d="M104.2,379c-1.4,0-2.5-1.1-2.5-2.5c0-3.4-2.6-6.8-2.6-6.8c-0.8-1.1-0.6-2.6,0.4-3.5c1.1-0.8,2.6-0.6,3.5,0.4
		c0.1,0.2,3.6,4.8,3.6,9.9C106.7,377.9,105.6,379,104.2,379z"/>
	<path class="st1" d="M83.4,380.7c-1.4,0-2.5-1.1-2.5-2.5V371c0-1.4,1.1-2.5,2.5-2.5c1.4,0,2.5,1.1,2.5,2.5v7.3
		C85.8,379.6,84.7,380.7,83.4,380.7z"/>
	<path class="st1" d="M93.1,378.3c-1.4,0-2.5-1.1-2.5-2.5c0-2-1.1-4-1.1-4c-0.7-1.2-0.3-2.7,0.9-3.4c1.2-0.7,2.7-0.3,3.4,0.9
		c0.2,0.3,1.7,3.1,1.7,6.5C95.6,377.2,94.5,378.3,93.1,378.3z"/>
	<path class="st1" d="M73.6,378.3c-1.4,0-2.5-1.1-2.5-2.5c0-3.3,1.5-6.1,1.7-6.5c0.7-1.2,2.2-1.6,3.4-0.9c1.2,0.7,1.6,2.2,0.9,3.4
		c0,0.1-1.1,2-1.1,4C76.1,377.2,75,378.3,73.6,378.3z"/>
</g>
<path class="st2" d="M111.2,57.2H91.7l-36-14.4C47.1,39.3,41.5,31,41.5,21.6h8.7c0,5.8,3.5,10.9,8.8,13l34.4,13.8h17.8L111.2,57.2
	L111.2,57.2z"/>
<polygon class="st3" points="77.5,56 32.1,56 32.1,76.8 37.9,96.3 32.1,149.5 32.1,170.9 77.5,170.9 "/>
<polygon class="st4" points="76,56 76,170.9 120,170.9 120,149.5 114.1,96.3 120,76.8 120,56 "/>
<path class="st5" d="M32.1,48.4v8.7H120v-8.7H32.1z"/>
<rect x="76" y="48.4" class="st6" width="43.9" height="8.7"/>
<path class="st7" d="M32.1,76.8v72.7H120V76.8H32.1z"/>
<rect x="76" y="76.8" class="st8" width="43.9" height="72.7"/>
<rect x="71.7" y="84" class="st9" width="8.7" height="12.5"/>
<path class="st10" d="M99.5,96.3c-3.9-4-9.2-6.2-15.1-6.2c-2.9,0-5.8,0.5-8.4,1.5c-2.6-1-5.5-1.5-8.4-1.5c-5.9,0-11.2,2.2-15.1,6.2
	c-4,4.2-6.2,9.9-6.2,16.6c0,9.5,6.4,19.5,15.2,23.9c1.8,0.9,6.7,3.3,14.5,3.3c7.8,0,12.8-2.5,14.4-3.3c8.8-4.4,15.3-14.5,15.3-24
	C105.7,106.3,103.6,100.5,99.5,96.3z"/>
<path class="st3" d="M99.5,96.3c-3.9-4-9.2-6.2-15.1-6.2c-2.9,0-5.8,0.5-8.4,1.5c0,9.2,0,39.8,0,48.5c7.8,0,12.8-2.5,14.4-3.3
	c8.8-4.4,15.3-14.5,15.3-24C105.7,106.3,103.6,100.5,99.5,96.3z"/>
<g id="Flat_1_">
	<path class="st11" d="M321.1,301.6c0,21.2-17.2,38.4-38.4,38.4h-20.5c-21.2,0-38.4-17.2-38.4-38.4s17.2-38.4,38.4-38.4h20.5
		C303.9,263.2,321.1,280.4,321.1,301.6z"/>
	<path class="st12" d="M239.4,290l-4.6-2.3c1-2,2.3-3.9,3.7-5.6l3.9,3.3C241.3,286.8,240.2,288.3,239.4,290L239.4,290z"/>
	<path class="st12" d="M236.4,318.4c-4.9-7.4-6.2-16.6-3.8-25.2l4.9,1.4c-2,7.1-0.9,14.8,3.2,21L236.4,318.4z"/>
	<path class="st13" d="M277.6,258.1l15.4-7.7l-10.2,17.9l12.8,12.8l-17.9-2.6l-5.1,15.4l-5.1-15.4l-17.9,2.6l12.8-12.8L252,250.4
		l15.4,7.7v-6.9c0-9.7,6.2-18.3,15.4-21.3l2.6,7.7c-4.8,3.2-7.7,8.6-7.7,14.4V258.1z"/>
	<path class="st14" d="M277.6,265.8c-1.4,0-2.6-1.1-2.6-2.6v-5.1c0-1.4,1.1-2.6,2.6-2.6s2.6,1.1,2.6,2.6v5.1
		C280.1,264.6,279,265.8,277.6,265.8z"/>
	<path class="st14" d="M267.3,265.8c-1.4,0-2.6-1.1-2.6-2.6v-5.1c0-1.4,1.1-2.6,2.6-2.6c1.4,0,2.6,1.1,2.6,2.6v5.1
		C269.9,264.6,268.7,265.8,267.3,265.8z"/>
	<path class="st15" d="M321.1,301.6c0,21.2-17.2,38.4-38.4,38.4h-20.5c-13.5,0-25.9-7-32.9-18.5c38.8-1.6,66.2-14.9,82.7-44.8
		C317.9,283.7,321.1,292.5,321.1,301.6L321.1,301.6z"/>
	<path class="st12" d="M372.3,340.1c0,21.2-17.2,38.4-38.4,38.4h-20.5c-21.2,0-38.4-17.2-38.4-38.4c0-21.2,17.2-38.4,38.4-38.4h20.5
		C355.1,301.6,372.3,318.8,372.3,340.1z"/>
	<g>
		<path class="st16" d="M312.1,322.1c3.5,0,6.4,2.9,6.4,6.4v-11.9c0-2.6-2.1-4.8-4.8-4.8h-0.4c-15.6,0-28.2,12.7-28.2,28.2
			c0,0.1,0,0.1,0,0.2c0.2,15.5,13,27.9,28.5,27.9c2.6,0,4.8-2.1,4.8-4.8c0,0,0,0,0,0V349c0,3.5-2.9,6.4-6.4,6.4
			c-3.5,0-6.4-2.9-6.4-6.4c0-1.4,0.5-2.8,1.3-3.9h0c-3.5,0-6.4-2.9-6.4-6.4s2.9-6.4,6.4-6.4h0c-2.1-2.8-1.6-6.8,1.3-9
			C309.4,322.6,310.7,322.1,312.1,322.1L312.1,322.1z"/>
		<path class="st16" d="M333.6,311.9c-2.6,0-4.8,2.1-4.8,4.8v11.9c0-3.5,2.9-6.4,6.4-6.4c3.5,0,6.4,2.9,6.4,6.4
			c0,1.4-0.5,2.8-1.3,3.9h0c3.5,0,6.4,2.9,6.4,6.4s-2.9,6.4-6.4,6.4h0c2.1,2.8,1.6,6.8-1.3,9c-2.8,2.1-6.8,1.6-9-1.3
			c-0.8-1.1-1.3-2.5-1.3-3.8v14.4c0,2.6,2.1,4.8,4.8,4.8h0.4c15.6,0,28.2-12.7,28.2-28.2c0-0.1,0-0.1,0-0.2
			C361.9,324.3,349.1,311.9,333.6,311.9z"/>
	</g>
</g>
<path class="st17" d="M255.6,125.3c0,0-8.3-2.8-15.6,6.7c0,0,4.9,6.2,14.7,3.6L255.6,125.3L255.6,125.3z"/>
<path class="st18" d="M246.3,132c3.2-4.1,6.5-6,9.3-6.7l0-0.1h0c0,0-8.3-2.7-15.6,6.8c0,0,4.4,5.6,13.2,3.9
	C248.6,134.9,246.3,132,246.3,132z"/>
<path class="st19" d="M253.8,130.7c-2.3-1.3-7.5-0.4-8.1-0.3c-0.5,0.1-0.8,0.6-0.8,1.1c0.1,0.5,0.6,0.8,1.1,0.8
	c2-0.3,5.6-0.6,6.9,0.1c0.5,0.2,1,0.1,1.3-0.4C254.4,131.5,254.3,130.9,253.8,130.7L253.8,130.7z"/>
<path class="st20" d="M265.3,80.7c1.7-1.1,3.5-2.1,5.4-2.9c1.4-0.6,2.8-1,4.3-1.1c1.5-0.1,2.9,0.1,4.1,1c8.7,6.2,1,15.5,5.2,17.3
	c0,0-13.6,4.4-19.3-14C265,80.8,265.2,80.7,265.3,80.7z"/>
<path class="st21" d="M280.6,61.2c8.6,9.8-5.6,15.4-5.6,15.4c-1.5,0.2-2.9,0.5-4.3,1.1v0c0,0-7.7-6.7,0.1-13.9
	c5.3-4.9,5.3-7.4,4.8-8.5L280.6,61.2z"/>
<path class="st19" d="M261.3,82.4l1.2,1.4c0.5-0.4,1.1-0.9,1.9-1.5c2.1,6,5.3,10.2,9.5,12.3c2.1,1.1,4.4,1.6,6.8,1.6
	c1.3,0,2.6-0.2,3.9-0.5c0.5-0.2,0.8-0.7,0.6-1.2c-0.1-0.3-0.3-0.5-0.5-0.6c-1-0.4-0.9-1.5-0.5-4.2c0.5-3.8,1.2-9-4.5-13
	c-1.5-1.1-3.3-1.3-5.3-1.1c1.9-4,2.3-9.7,2.3-10c0-0.5-0.4-1-0.9-1c-0.5,0-0.9,0.4-1,0.9c0,0.1-0.4,7.3-2.9,10.6
	C266.7,78,261.7,82.1,261.3,82.4z M278.6,78.3c4.7,3.3,4.2,7.5,3.7,11.2c-0.2,1.8-0.5,3.5,0.1,4.7c-2.6,0.3-5.3-0.1-7.6-1.3
	c-3.7-1.9-6.6-5.8-8.5-11.3c8.2,1,10.9,7.9,11.1,8.2c0.2,0.5,0.7,0.7,1.2,0.5c0.5-0.2,0.7-0.7,0.5-1.2c-0.1-0.3-2.9-7.4-11-9.1
	C271.7,78,276,76.5,278.6,78.3L278.6,78.3z"/>
<path class="st21" d="M284.6,159.7c-0.1-0.7-0.4-1.4-0.8-2c-3.5-4.3-15-15.7-28.5,0.1c0,0,13,24.2,28.5,4.6c0.3-0.4,0.6-1,0.7-1.5
	c0.1-0.3,0.1-0.5,0.1-0.8C284.6,159.9,284.6,159.8,284.6,159.7z"/>
<path class="st22" d="M261.6,157.8c3.9-4.6,7.7-6.9,11.1-7.7c-4.9-1.2-10.9,0.1-17.4,7.7c0,0,8,15,19.1,11.8
	C266.7,167.3,261.6,157.8,261.6,157.8z"/>
<path class="st19" d="M284.4,158.7c-0.1,0-0.2,0.1-0.3,0.1c0,0-3.3,1.8-12.9-1.5c-5.9-2-12.6-1.1-15.1-0.7c-0.5,0.1-0.8,0.6-0.8,1.1
	c0,0,0,0,0,0c0.1,0.5,0.6,0.8,1.1,0.7c2.3-0.4,8.7-1.3,14.2,0.6c9.5,3.3,13.4,1.9,14.3,1.4c2.2-0.3,5.8,1.8,7,2.6l1-1.6
	C292.5,161.2,287.7,158.2,284.4,158.7L284.4,158.7z"/>
<path class="st17" d="M371.6,111.3c0.9-15.9-11.5-15.7-11.5-15.7l-6.4,4.8h0c4.1,13.7,18.1,11,18.1,11S371.8,111.4,371.6,111.3z"/>
<path class="st19" d="M359.2,97.7l-1.8,0.5c1.7,5.8,10.4,11.8,13.2,13.5c0.4,0.3,1,0.2,1.3-0.3c0,0,0,0,0,0c0.3-0.4,0.1-1-0.3-1.3
	C369.1,108.5,360.7,102.8,359.2,97.7L359.2,97.7z"/>
<path class="st17" d="M350.7,122.5c0-2.5-1-4.7-2-6.2c0,0,8.3-2.8,15.6,6.7c0,0-4.9,6.2-14.7,3.6
	C350.4,125.3,350.7,123.9,350.7,122.5L350.7,122.5z"/>
<path class="st19" d="M358.6,121.3c-0.1,0-3.5-0.8-8,0.2c-0.5,0.1-0.8,0.6-0.7,1.1c0.1,0.4,0.5,0.7,0.9,0.7c0.1,0,0.1,0,0.2,0
	c2.4-0.5,4.8-0.6,7.2-0.2c0.5,0.1,1-0.2,1.1-0.7C359.4,121.9,359.1,121.4,358.6,121.3L358.6,121.3L358.6,121.3z"/>
<path class="st20" d="M320.5,148.7c-0.5,0.6-0.7,1.2-0.8,2c0,0.1,0,0.3,0,0.4c0,0.3,0,0.5,0.1,0.8c0.1,0.6,0.4,1.1,0.7,1.5
	c15.6,19.6,28.5-4.6,28.5-4.6C335.5,133,324,144.4,320.5,148.7L320.5,148.7z"/>
<path class="st19" d="M333.1,148.3c-9.7,3.3-12.9,1.5-12.9,1.5c-0.1-0.1-0.2-0.1-0.3-0.1c-3.3-0.6-8,2.5-8.5,2.9l1,1.6
	c1.2-0.8,4.8-2.9,7-2.6c0.9,0.5,4.8,1.8,14.3-1.4c5.4-1.9,11.9-1,14.2-0.6c0.5,0.1,1-0.2,1.1-0.7c0.1-0.5-0.2-1-0.7-1.1c0,0,0,0,0,0
	C345.7,147.2,339,146.3,333.1,148.3L333.1,148.3z"/>
<path class="st20" d="M296.5,108.3c0,0-3.4,7.6-2.8,14.4l16.4,9.1c1.1,1.3,1.8,1.5,1.8,1.5l0,0c0.1-0.1,0.2-0.2,0.3-0.3
	c0.4-0.4,0.6-0.9,0.8-1.5C314.5,126.2,317.1,110.2,296.5,108.3L296.5,108.3z"/>
<path class="st19" d="M302.9,118.2l1.7-0.8c-2.1-4.3-5.3-7.7-6.7-9.1c-0.4-0.4-1-0.4-1.3,0c0,0,0,0,0,0c-0.3,0.4-0.3,0.9,0,1.3
	C297.8,110.9,300.8,114.2,302.9,118.2z"/>
<path class="st19" d="M313.4,139.4c-0.1,0.5,0.1,1,0.5,1.2l0.8,0.5c0.5-0.8,0.7-1.8,0.7-2.7c0-1.4-0.5-3.6-3-5.7
	c-0.1-0.1-0.2-0.1-0.2-0.1c0,0-0.6-0.3-1.5-1.3l-1.4,1.2c0.6,0.7,1.2,1.3,2,1.7C313.8,136.3,313.7,138.3,313.4,139.4L313.4,139.4z"
	/>
<path class="st21" d="M307.5,116.7c-1.2,0.1-2.3,0.3-3.5,0.5c-4.7,0.9-7.9,2.7-10,4.9c-5.5,5.7-4,14.2-3,17.9c0.1,0.5,0.4,1,0.8,1.5
	c0.1,0.1,0.2,0.2,0.3,0.3c0.3,0.3,0.6,0.5,1,0.6c0.5,0.2,1.1,0.3,1.6,0.3c9.5-0.5,13.6-4.4,15-9c0.3-0.8,0.4-1.6,0.5-2.5
	C311.2,124.2,307.5,116.7,307.5,116.7L307.5,116.7z"/>
<path class="st19" d="M298,129.4c-2.9,9.8-6.2,11.4-6.2,11.4c-0.1,0-0.2,0.1-0.3,0.2c-3.1,2.6-3.3,5.6-2.8,7.4
	c0.1,0.5,0.7,0.8,1.2,0.6c0.1,0,0.2-0.1,0.2-0.1c0.4-0.2,0.5-0.7,0.4-1.1c-0.3-1-0.4-3.1,2.1-5.3c0.9-0.4,4.3-2.7,7.1-12.6
	c1.6-5.5,6-10.3,7.7-11.9c0.4-0.4,0.4-0.9,0-1.3c-0.3-0.4-0.9-0.4-1.3-0.1c0,0,0,0,0,0C304.4,118.4,299.7,123.4,298,129.4z"/>
<path class="st23" d="M352.9,37.8c-0.7,0-1.4,0.5-1.5,1.2c-0.4,2-1.5,6.4-3.1,12.4v0c-1.6,6.1-3.8,13.9-6.5,22.7
	c-2.1,6.8-4.6,14.2-7.4,21.8l-4.8,12.2c-4.4,10.8-9.5,21.8-15.3,31.9c0,0,0,0,0,0c-3,5.3-6.2,10.3-9.8,15.2
	c-0.6,0.8-0.4,1.9,0.3,2.5c0.3,0.2,0.7,0.4,1.1,0.4c2.2,0,4.2-1,5.6-2.7c0.4-0.5,0.9-1.1,1.3-1.6c10.1-13.1,18.2-30.9,24.4-48
	l1.8-5.4c6.4-18.9,10.8-37.4,13.3-49.3c1.1-5.3,1.8-9.2,2.2-11.3c0-0.1,0-0.2,0-0.3C354.4,38.5,353.7,37.8,352.9,37.8L352.9,37.8z"
	/>
<path class="st23" d="M290,149C290,149,290,149,290,149c-5.8-10.1-10.9-21.2-15.3-31.9l-4.8-12.2c-2.8-7.6-5.2-14.9-7.4-21.8
	c-2.7-8.7-4.9-16.6-6.5-22.7c-1.6-6-2.6-10.4-3.1-12.4c-0.2-0.8-1-1.4-1.9-1.2c-0.7,0.2-1.2,0.8-1.2,1.5c0,0.1,0,0.2,0,0.3
	c0.4,2.1,1.1,6.1,2.2,11.3c2.5,11.9,6.9,30.4,13.3,49.3l1.8,5.4c6.2,17,14.3,34.9,24.4,48c0.4,0.6,0.9,1.1,1.3,1.6
	c1.4,1.7,3.4,2.7,5.6,2.7c1,0,1.8-0.8,1.8-1.8c0-0.4-0.1-0.8-0.4-1.1C296.3,159.3,293,154.2,290,149L290,149z"/>
<path class="st21" d="M347.3,114.2c0.6,0.6,1.1,1.3,1.5,2c1,1.5,2,3.7,2,6.2c0,1.4-0.4,2.8-1.1,4.1c-1.7,3.1-5.6,6.2-13.6,8.7
	c-0.6,0.1-1.1-0.2-1.3-0.8c0-0.1,0-0.1,0-0.2C332.8,109.8,347.3,114.2,347.3,114.2L347.3,114.2z"/>
<path class="st21" d="M345.1,44.7c-0.7,0.3-1.4,0.4-2.1,0.1c-20.8-6.7-10.6-24.2-10.6-24.2c18.6,1.3,15.4,17.9,14.3,22.1
	c-0.2,0.6-0.5,1.2-1,1.6C345.5,44.5,345.3,44.6,345.1,44.7L345.1,44.7z"/>
<path class="st20" d="M339.9,103c0,0.3-0.2,0.7-0.3,0.9c-0.2,0.3-0.4,0.5-0.7,0.7c-0.4,0.3-1,0.7-1.7,1.1c-1.9,1.1-4.6,2.3-7.6,2.3
	c-3.9,0.1-8.1-1.9-11.1-8.6c7.4-5.4,12.5-5.3,15.9-3.6c2.2,1.2,3.7,3,4.6,4.4v0c0.3,0.4,0.5,0.9,0.7,1.3
	C339.9,102,339.9,102.5,339.9,103L339.9,103z"/>
<path class="st21" d="M264.4,112c-0.1-0.5,0-0.9,0.2-1.4c0.2-0.4,0.5-0.9,0.7-1.3c1.1-1.9,2.7-3.4,4.6-4.4c3.4-1.7,8.5-1.9,15.9,3.6
	c-3,6.8-7.2,8.7-11.1,8.6c-2.9,0-5.7-1.2-7.6-2.3c-0.7-0.4-1.3-0.8-1.7-1.1c-0.3-0.2-0.5-0.4-0.7-0.7
	C264.6,112.6,264.4,112.3,264.4,112L264.4,112z"/>
<path class="st21" d="M259.2,53.7c-0.2-0.1-0.4-0.2-0.6-0.4c-0.5-0.4-0.8-0.9-1-1.6c-1.1-4.2-4.2-20.8,14.3-22.1
	c0,0,10.2,17.5-10.6,24.2C260.6,54.1,259.9,54.1,259.2,53.7z"/>
<path class="st20" d="M251.7,109.5c-0.1,0.1-0.2,0.1-0.3,0.2c-0.5,0.3-1.1,0.4-1.6,0.4h0c-0.6,0-1.3-0.2-1.8-0.5
	c-0.9-0.6-1.8-1.3-2.6-2c-0.8-0.7-1.5-1.5-2.1-2.3c-3.2-4.2-5.3-11,0-21.3c0,0,13.5-0.4,9.9,23.2C253,108.1,252.5,109,251.7,109.5z"
	/>
<path class="st21" d="M249.8,110.1c-0.6,0-1.3-0.2-1.8-0.5c-0.9-0.6-1.8-1.3-2.6-2c-0.8-0.7-1.5-1.5-2.1-2.3c0,0-12.4-0.2-11.5,15.8
	C231.7,121.1,245.7,123.9,249.8,110.1L249.8,110.1z"/>
<path class="st20" d="M352.6,100.5c-0.8-0.5-1.3-1.4-1.5-2.3c-3.5-23.6,9.9-23.2,9.9-23.2c5.3,10.3,3.2,17.1,0,21.3
	c-0.6,0.8-1.4,1.6-2.1,2.3c-0.8,0.7-1.7,1.4-2.6,2c-0.5,0.3-1.2,0.5-1.8,0.5h0c-0.6,0-1.1-0.1-1.6-0.4
	C352.8,100.6,352.7,100.6,352.6,100.5L352.6,100.5z"/>
<path class="st20" d="M256.9,123.2c0,0,14.5-4.4,12.5,20c0,0.6-0.5,1-1.1,1c-0.1,0-0.1,0-0.2,0c-8-2.5-11.9-5.6-13.6-8.7h0
	c-2.2-4-0.5-8,0.9-10.3C255.9,124.5,256.4,123.8,256.9,123.2z"/>
<path class="st17" d="M251.6,107.6c-0.8-0.7-1.5-1.5-2.1-2.3c-3-3.9-5-10.1-0.9-19.3c-1.5-1.2-3.4-1.8-5.3-1.9
	c-5.3,10.3-3.2,17.1,0,21.3c0.6,0.8,1.4,1.6,2.1,2.3c0.8,0.8,1.7,1.4,2.6,2c0.5,0.4,1.2,0.5,1.8,0.6h0c0.7,0,1.4-0.2,1.9-0.6
	c0.4-0.3,0.7-0.6,1-1C252.3,108.2,251.9,107.9,251.6,107.6L251.6,107.6z"/>
<path class="st22" d="M244.3,106.6c-0.4-0.4-0.8-0.9-1.1-1.3c0,0-12.4-0.2-11.5,15.8c2.1,0.3,4.2,0.3,6.2-0.1
	C237.5,112.2,241,108.3,244.3,106.6z"/>
<g>
	<path class="st19" d="M248.1,99.9c0.2-6.4-2.1-9.3-2.1-9.5c-0.3-0.4-0.9-0.5-1.3-0.2c-0.4,0.3-0.5,0.9-0.2,1.3l0,0
		c0,0,1.9,2.5,1.7,8.2c-0.2,6.1,3.9,9.7,4.7,10.3l-0.2,0.2c2,1.8,5.8,3,8,3.6c-1.9,1.9-3.5,4.8-2.8,9.3c0.9,5.9,5.7,13,8.4,16.2
		c0.3,0.4,0.9,0.4,1.3,0.1c0.4-0.3,0.4-0.9,0.1-1.3c-2.8-3.2-7.1-10-8-15.2c-1.3-8.4,6.4-10.1,6.7-10.2c0,0,0,0,0,0c0,0,0,0,0.1,0
		c0.1,0,12.6-3.8,18.4-2.5c0.5,0.1,1-0.2,1.1-0.7c0.1-0.5-0.2-1-0.7-1.1l0,0c-6.2-1.4-18.5,2.3-19.3,2.5c-1.2,0.3-2.4,0.8-3.5,1.5
		c-1.2-0.3-5.6-1.4-8-3.1c0-0.3-0.2-0.5-0.4-0.7C252.2,108.7,248,105.5,248.1,99.9L248.1,99.9z"/>
	<path class="st19" d="M244.4,107.3c-1.5,5.1-9.8,10.8-12.4,12.5c-0.4,0.3-0.6,0.8-0.3,1.3c0.3,0.4,0.8,0.6,1.3,0.3c0,0,0,0,0,0
		c2.8-1.8,11.5-7.7,13.2-13.5L244.4,107.3z"/>
	<path class="st19" d="M255.6,61.3c0.5,0.2,1,0.1,1.3-0.4c0,0,0,0,0,0c2.9-5.6,11-24.1,11.1-24.2c0.2-0.5,0-1-0.5-1.2
		c-0.5-0.2-1,0-1.2,0.5c-0.1,0.2-8.2,18.6-11,24.1C254.9,60.5,255.1,61,255.6,61.3C255.6,61.3,255.6,61.3,255.6,61.3z"/>
	<path class="st19" d="M321.3,101.3c5.8-1.3,18.2,2.5,18.4,2.5c0,0,0,0,0.1,0c0,0,0,0,0,0c0.3,0.1,8.1,1.8,6.7,10.2
		c-0.8,5.2-5.2,12-8,15.2c-0.3,0.4-0.3,1,0.1,1.3c0.4,0.3,1,0.3,1.3-0.1c2.7-3.1,7.5-10.2,8.4-16.2c0.7-4.6-0.8-7.5-2.8-9.3
		c2.2-0.6,6-1.9,8-3.6l-0.2-0.2c0.8-0.7,4.9-4.3,4.7-10.3c-0.2-5.7,1.7-8.2,1.7-8.3c0.3-0.4,0.2-1-0.2-1.3c-0.4-0.3-1-0.2-1.3,0.2
		c-0.1,0.1-2.3,3-2.1,9.5c0.2,5.6-4.1,8.8-4.1,8.9c-0.2,0.2-0.4,0.4-0.4,0.7c-2.4,1.7-6.8,2.8-8,3.1c-1.1-0.7-2.3-1.2-3.5-1.5
		c-0.8-0.2-13.1-3.9-19.3-2.5c-0.5,0.1-0.8,0.6-0.7,1.1C320.3,101.1,320.8,101.5,321.3,101.3L321.3,101.3z"/>
	<path class="st19" d="M347.4,51.8c0.2,0.5,0.8,0.6,1.3,0.4s0.6-0.8,0.4-1.3c0,0,0,0,0,0c-2.9-5.6-10.9-24-11-24.1
		c-0.2-0.5-0.8-0.7-1.2-0.5c-0.5,0.2-0.7,0.8-0.5,1.2C336.4,27.8,344.5,46.2,347.4,51.8z"/>
</g>
<path class="st17" d="M334.5,68.7c-0.8-0.3-1.7-0.4-2.5-0.5c-0.3-0.1-14.1-5.7-5.6-15.4l5.4-6.5c0,0,0,0,0,0c0,0,0,0,0,0
	c-0.3,0.7-0.9,3.6,4.3,9.1c7.3,7.7,0.1,13.9,0.1,13.9C335.7,69.1,335.1,68.9,334.5,68.7L334.5,68.7z"/>
<path class="st19" d="M334.6,69.7c0.5,0,0.9-0.4,0.9-0.9c0-0.2-0.1-0.4-0.2-0.6c-2.6-3.3-3.1-10.8-3.1-10.8c0-0.5-0.5-0.9-1-0.9
	c-0.5,0-0.9,0.5-0.9,1c0,0.3,0.4,8.2,3.5,11.9C334.1,69.5,334.3,69.7,334.6,69.7L334.6,69.7z"/>
<path class="st21" d="M332.1,68.2c0.9,0.1,1.7,0.2,2.5,0.5c0.6,0.2,1.2,0.4,1.8,0.6c1.9,0.8,3.7,1.8,5.4,2.9
	c0.1,0.1,0.2,0.1,0.3,0.2c-5.8,18.5-19.3,14-19.3,14c4.2-1.8-3.6-11.2,5.2-17.3C329.2,68.4,330.6,68.1,332.1,68.2L332.1,68.2z"/>
<path class="st19" d="M328.6,82c0.5,0.2,1-0.1,1.2-0.5c0.1-0.3,3.1-7.8,12-8.3c0.5,0,0.9-0.5,0.9-1c0-0.5-0.5-0.9-1-0.9
	c-10.2,0.6-13.5,9.1-13.7,9.5C327.9,81.3,328.2,81.9,328.6,82L328.6,82z"/>
<path class="st17" d="M368.5,30.2c8.6,9.8-5.4,15.3-5.4,15.3c-1.6,0.1-3.2,0.5-4.7,1.1c0,0-7.3-6.4,0.3-13.9
	c5.6-5.5,4.6-8.4,4.3-9.1c0,0,0,0,0,0c0,0,0,0,0,0L368.5,30.2z"/>
<path class="st19" d="M359.8,46.8c0.4,0.3,1,0.3,1.3-0.1c3-3.7,3.5-11.5,3.5-11.8c0-0.5-0.4-1-0.9-1c-0.5,0-1,0.4-1,0.9c0,0,0,0,0,0
	c0,0.1-0.4,7.5-3.1,10.7C359.3,45.8,359.4,46.4,359.8,46.8C359.8,46.8,359.8,46.8,359.8,46.8L359.8,46.8z"/>
<path class="st21" d="M352.9,49.7C352.9,49.7,352.9,49.6,352.9,49.7c1.7-1.2,3.5-2.2,5.4-3c1.5-0.6,3.1-1,4.7-1.1
	c1.4-0.1,2.8,0.2,4,1c8.7,6.2,1,15.5,5.2,17.3C372.2,63.9,358.7,68,352.9,49.7L352.9,49.7z"/>
<path class="st19" d="M352.8,50.6c9,0.5,12.2,8,12.4,8.3c0.2,0.5,0.7,0.7,1.2,0.5c0.5-0.2,0.7-0.7,0.5-1.2c-0.2-0.4-3.8-8.9-14-9.5
	c-0.5,0-1,0.4-1,0.9S352.3,50.6,352.8,50.6C352.8,50.6,352.8,50.6,352.8,50.6L352.8,50.6z"/>
<path class="st20" d="M244,54.7c-0.9-0.3-1.7-0.4-2.6-0.5c0,0-14.2-5.6-5.6-15.3l5-5.9c-0.5,1.1-0.5,3.6,4.8,8.5
	c7.8,7.2,0.3,13.9,0.3,13.9C245.3,55.1,244.6,54.9,244,54.7z"/>
<path class="st17" d="M242,38.9l0.5-0.6c-2.3-2.9-2.2-4.5-1.8-5.3l-5,5.9c-8.6,9.8,5.6,15.3,5.6,15.3c0.9,0.1,1.8,0.2,2.6,0.5
	c0.6,0.2,1.3,0.4,1.9,0.6c0.4-0.4,0.8-0.9,1.2-1.3C244.6,53,234.4,47.6,242,38.9z"/>
<path class="st19" d="M244,55.7c0.5,0,0.9-0.4,0.9-0.9c0-0.2-0.1-0.4-0.2-0.6c-2.7-3.3-3.2-10.7-3.2-10.8c0-0.5-0.5-0.9-1-0.9
	c-0.5,0-0.9,0.5-0.9,1c0,0.3,0.5,8.1,3.6,11.8C243.4,55.6,243.7,55.7,244,55.7z"/>
<path class="st21" d="M251.3,58.4c-5.8,18.3-19.3,14.2-19.3,14.2c4.2-1.8-3.6-11.2,5.2-17.3c1.2-0.8,2.6-1.1,4.1-1
	c0.9,0.1,1.8,0.2,2.6,0.5c0.6,0.2,1.3,0.4,1.9,0.6C247.8,56.2,249.6,57.2,251.3,58.4C251.3,58.3,251.3,58.4,251.3,58.4L251.3,58.4z"
	/>
<path class="st22" d="M238.3,72.6c4.2-1.8-3.6-11.2,5.2-17.3c0.3-0.2,0.5-0.3,0.8-0.5c-0.1,0-0.2-0.1-0.3-0.1
	c-0.9-0.3-1.7-0.4-2.6-0.5c-1.5-0.1-2.9,0.2-4.1,1c-8.7,6.2-1,15.5-5.2,17.3c2.1,0.5,4.3,0.5,6.4,0
	C238.4,72.6,238.3,72.6,238.3,72.6z"/>
<path class="st19" d="M237.9,68.1c0.5,0.2,1,0,1.2-0.5c0,0,0,0,0,0c0-0.1,3.4-7.8,12.4-8.3c0.5,0,0.9-0.5,0.9-1c0-0.5-0.5-0.9-1-0.9
	c0,0,0,0,0,0c-10.2,0.6-13.8,9.1-14,9.5C237.2,67.4,237.4,67.9,237.9,68.1z"/>
</svg>
