<?xml version="1.0" encoding="iso-8859-1"?>
<!-- Generator: Adobe Illustrator 19.0.0, SVG Export Plug-In . SVG Version: 6.00 Build 0)  -->
<svg version="1.1" id="Layer_1" xmlns="http://www.w3.org/2000/svg" xmlns:xlink="http://www.w3.org/1999/xlink" x="0px" y="0px"
	 viewBox="0 0 512 512" style="enable-background:new 0 0 512 512;" xml:space="preserve">
<g>
	<path style="fill:#8CE16E;" d="M252.047,229.517h4.407l-1.766-17.062c-0.317-3.091-8.594-76.531-76.54-152.894
		c-2.134-2.397-5.177-3.785-8.355-3.823c-3.115-0.183-6.293,1.305-8.499,3.67l-11.66,12.537c-2.498,2.687-3.636,6.349-3.115,10.05
		c0.514,3.602,2.538,6.745,5.566,8.608c20.142,12.469,69.693,49.441,94.729,123.454L252.047,229.517z"/>
	<path style="fill:#8CE16E;" d="M260.045,229.517h-4.407l1.766-17.062c0.317-3.091,8.594-76.531,76.54-152.894
		c2.134-2.397,5.177-3.785,8.355-3.823c3.115-0.183,6.293,1.305,8.499,3.67l11.66,12.537c2.498,2.687,3.636,6.349,3.115,10.05
		c-0.514,3.602-2.538,6.745-5.566,8.608c-20.142,12.469-69.693,49.441-94.729,123.454L260.045,229.517z"/>
</g>
<path style="fill:#9BF57D;" d="M250.572,220.69h10.493c4.117-59.533,10.548-140.936,19.199-206.712
	C281.372,5.549,277.011,0,271.14,0h-30.643c-5.87,0-10.232,5.549-9.124,13.977C240.024,79.754,246.455,161.156,250.572,220.69z"/>
<path style="fill:#FFF082;" d="M224.39,214.37c-48.631,7.622-89.443,43.307-98.782,91.639
	c-16.671,86.28,74.034,133.536,114.212,174.695c4.788,4.904,7.352,11.514,7.352,18.368v4.1c0,4.879,3.948,8.828,8.828,8.828
	c4.879,0,8.828-3.948,8.828-8.828v-4.103c0-6.854,2.564-13.464,7.352-18.368c36.856-37.756,116.233-80.643,116.233-154.081
	C388.414,243.187,311.247,200.757,224.39,214.37z"/>
<g>
	<path style="fill:#FFDC64;" d="M299.776,423.724h-26.483c-4.879,0-8.828-3.948-8.828-8.828c0-4.879,3.948-8.828,8.828-8.828h26.483
		c4.879,0,8.828,3.948,8.828,8.828C308.603,419.776,304.655,423.724,299.776,423.724z"/>
	<path style="fill:#FFDC64;" d="M272.931,379.586h-34.948c-4.879,0-8.828-3.948-8.828-8.828c0-4.879,3.948-8.828,8.828-8.828h34.948
		c4.879,0,8.828,3.948,8.828,8.828C281.759,375.638,277.811,379.586,272.931,379.586z"/>
	<path style="fill:#FFDC64;" d="M343.914,326.621h-26.483c-4.879,0-8.828-3.948-8.828-8.828c0-4.879,3.948-8.828,8.828-8.828h26.483
		c4.879,0,8.828,3.948,8.828,8.828C352.741,322.673,348.793,326.621,343.914,326.621z"/>
	<path style="fill:#FFDC64;" d="M258.241,459.486c-7.171-10.019-15.081-20.655-22.637-32.258c-1.409-2.164-3.807-3.503-6.39-3.503
		H211.5c-4.879,0-8.828-3.948-8.828-8.828c0-4.879,3.948-8.828,8.828-8.828h5.191c5.582,0,9.231-5.805,6.82-10.84
		c-7.663-16.009-20.685-46.466-20.696-68.608h8.685c4.879,0,8.828-3.948,8.828-8.828c0-4.879-3.948-8.828-8.828-8.828h-7.836
		c0.099-1.002,0.104-1.944,0.222-2.957c3.034-26.169,11.623-48.588,23.482-64.881c4.09-5.62,4.057-13.187-0.285-18.615
		c-3.842-4.802-10.188-6.808-16.124-5.198c-42.558,11.544-76.889,44.895-85.352,88.694
		c-16.68,86.327,74.133,133.588,114.278,174.761c4.759,4.881,7.287,11.484,7.287,18.301v4.102c0,4.879,3.948,8.828,8.828,8.828
		c4.879,0,8.828-3.948,8.828-8.828v-23.136C264.829,472.655,262.537,465.487,258.241,459.486z"/>
	<path style="fill:#FFDC64;" d="M256,273.655h-18.017c-4.879,0-8.828-3.948-8.828-8.828c0-4.879,3.948-8.828,8.828-8.828H256
		c4.879,0,8.828,3.948,8.828,8.828C264.827,269.707,260.879,273.655,256,273.655z"/>
</g>
<g>
</g>
<g>
</g>
<g>
</g>
<g>
</g>
<g>
</g>
<g>
</g>
<g>
</g>
<g>
</g>
<g>
</g>
<g>
</g>
<g>
</g>
<g>
</g>
<g>
</g>
<g>
</g>
<g>
</g>
</svg>
