<svg id="Capa_1" enable-background="new 0 0 495.127 495.127" height="512" viewBox="0 0 495.127 495.127" width="512" xmlns="http://www.w3.org/2000/svg"><path d="m167.798 491.725c6.224 0 8.789-7.983 3.729-11.608l-19.349-13.861c-6.953-4.981-11.066-12.933-11.066-21.396v-61.864c0-3.536-2.867-6.403-6.403-6.403h-11.912c-3.536 0-6.403 2.867-6.403 6.403v61.864c0 8.463-4.113 16.415-11.066 21.396l-19.349 13.861c-5.06 3.625-2.496 11.608 3.729 11.608z" fill="#f7f6e7"/><path d="m171.527 480.117-19.349-13.861c-6.953-4.981-11.066-12.933-11.066-21.396v-61.864c0-3.536-2.867-6.403-6.403-6.403h-11.912c-3.536 0-6.403 2.867-6.403 6.403v61.864c0 4.007-.932 7.895-2.641 11.412 1.9 3.911 4.764 7.362 8.425 9.985l19.349 13.861c5.06 3.625 2.495 11.608-3.729 11.608h30c6.224-.001 8.789-7.984 3.729-11.609z" fill="#e6e6dc"/><path d="m128.753 395.293c-27.716 0-51.121-18.456-58.597-43.749-2.135-7.225-2.726-14.82-2.046-22.323l16.136-126.043c.441-4.872 4.526-8.603 9.418-8.603h70.177c4.892 0 8.976 3.731 9.418 8.603l16.136 126.043c.68 7.504.089 15.098-2.046 22.323-7.475 25.293-30.88 43.749-58.596 43.749z" fill="#f7f6e7"/><path d="m189.396 329.221-16.136-126.043c-.441-4.872-4.526-8.603-9.418-8.603h-30c4.892 0 8.976 3.731 9.418 8.603l16.136 126.043c.68 7.504.089 15.098-2.046 22.323-6.079 20.57-22.695 36.616-43.597 41.893 4.799 1.211 9.824 1.856 15 1.856 27.716 0 51.121-18.456 58.597-43.749 2.135-7.225 2.726-14.819 2.046-22.323z" fill="#e6e6dc"/><path d="m184.177 288.459h-110.848l-5.219 40.762c-.68 7.504-.089 15.098 2.046 22.323 7.475 25.293 30.88 43.749 58.597 43.749 27.716 0 51.121-18.456 58.597-43.749 2.135-7.225 2.726-14.82 2.046-22.323z" fill="#fef0ae"/><path d="m189.396 329.221-5.219-40.762h-30l5.219 40.762c.68 7.504.089 15.098-2.046 22.323-6.079 20.57-22.695 36.616-43.597 41.893 4.799 1.211 9.824 1.856 15 1.856 27.716 0 51.121-18.456 58.597-43.749 2.135-7.225 2.726-14.819 2.046-22.323z" fill="#fee97d"/><path d="m427.284 258.954c0-12.035-8.322-26.188-18.743-39.194-26.618-33.219-30.792-74.699-30.792-117.268v-20.267l-34.646-19-30.745 20v19.268c0 42.568-4.174 84.049-30.792 117.268-10.421 13.006-18.743 27.159-18.743 39.194v58.588l20 64.321-20 60.775v34.502c0 9.934 8.053 17.987 17.987 17.987h128.488c9.934 0 17.987-8.053 17.987-17.987v-34.502l-20-62.548 20-62.548v-58.589z" fill="#596c76"/><path d="m408.541 219.76c-26.618-33.219-30.792-74.699-30.792-117.268v-26.038h-30v26.039c0 42.568 4.174 84.048 30.792 117.268 10.421 13.006 18.743 27.159 18.743 39.194v218.185c0 9.934-8.053 17.987-17.987 17.987h30c9.934 0 17.987-8.053 17.987-17.987v-34.502l-20-64.725 20-60.371v-58.588c0-12.035-8.321-26.188-18.743-39.194z" fill="#4e6067"/><path d="m262.822 317.542h164.462v125.096h-164.462z" fill="#f7f6e7"/><path d="m397.284 317.542h30v125.096h-30z" fill="#e6e6dc"/><path d="m377.749 83.186v-66.79c0-9.055-7.341-16.396-16.396-16.396h-32.598c-9.055 0-16.396 7.341-16.396 16.396v66.79z" fill="#fea613"/><path d="m361.353 0h-30c9.056 0 16.396 7.341 16.396 16.396v66.79h30v-66.79c0-9.055-7.341-16.396-16.396-16.396z" fill="#fe9901"/><path d="m384.413 387.59h-76.33c-4.143 0-7.5-3.358-7.5-7.5s3.357-7.5 7.5-7.5h76.33c4.143 0 7.5 3.358 7.5 7.5s-3.358 7.5-7.5 7.5z" fill="#fea613"/><path d="m370.859 246.058c0 19.115-5.496 34.612-24.612 34.612s-34.612-15.496-34.612-34.612 15.496-34.612 34.612-34.612 24.612 15.496 24.612 34.612z" fill="#fea613"/><path d="m346.248 211.446c-5.374 0-10.462 1.225-15 3.411 11.604 5.589 19.612 17.46 19.612 31.201s-8.008 25.612-19.612 31.201c4.538 2.186 9.626 3.41 15 3.41 19.116 0 34.612-15.496 34.612-34.612s-15.497-34.611-34.612-34.611z" fill="#fe9901"/></svg>